<svg width="540" height="342" viewBox="0 0 540 342" fill="none" xmlns="http://www.w3.org/2000/svg">
<g clip-path="url(#clip0_283_77)">
<rect x="0.5" y="299.5" width="49" height="83" transform="rotate(-90 0.5 299.5)" fill="#F1F3F4" stroke="#CCCCCC"/>
<rect x="439.5" y="199.5" width="16" height="57" transform="rotate(-90 439.5 199.5)" fill="#D9D9D9" stroke="#CCCCCC"/>
<rect x="419.5" y="50.5" width="50" height="100" transform="rotate(-90 419.5 50.5)" fill="#D9D9D9" stroke="#CCCCCC"/>
<rect x="496.5" y="249.5" width="50" height="23" transform="rotate(-90 496.5 249.5)" fill="#D9D9D9" stroke="#CCCCCC"/>
<rect x="83.5" y="299.5" width="100" height="37" transform="rotate(-90 83.5 299.5)" fill="white" stroke="#CCCCCC"/>
<rect x="419.5" y="299.5" width="100" height="39" transform="rotate(-90 419.5 299.5)" fill="white" stroke="#CCCCCC"/>
<rect x="19.5" y="250.5" width="51" height="64" transform="rotate(-90 19.5 250.5)" fill="#E0E5FF" stroke="#CCCCCC"/>
<rect x="19.5" y="199.5" width="99" height="151" transform="rotate(-90 19.5 199.5)" fill="#FDF9EF" stroke="#F0E9D7"/>
<mask id="path-9-inside-1_283_77" fill="white">
<path fill-rule="evenodd" clip-rule="evenodd" d="M419 184L419 200L440 200L440 184L496 184L496 200L520 200L520 184L520 183L520 50L419 50L419 183L419 184Z"/>
</mask>
<path fill-rule="evenodd" clip-rule="evenodd" d="M419 184L419 200L440 200L440 184L496 184L496 200L520 200L520 184L520 183L520 50L419 50L419 183L419 184Z" fill="#FDF9EF"/>
<path d="M419 200L418 200L418 201L419 201L419 200ZM440 200L440 201L441 201L441 200L440 200ZM440 184L440 183L439 183L439 184L440 184ZM496 184L497 184L497 183L496 183L496 184ZM496 200L495 200L495 201L496 201L496 200ZM520 200L520 201L521 201L521 200L520 200ZM520 50L521 50L521 49L520 49L520 50ZM419 50L419 49L418 49L418 50L419 50ZM420 200L420 184L418 184L418 200L420 200ZM440 199L419 199L419 201L440 201L440 199ZM439 184L439 200L441 200L441 184L439 184ZM496 183L440 183L440 185L496 185L496 183ZM495 184L495 200L497 200L497 184L495 184ZM496 201L520 201L520 199L496 199L496 201ZM521 200L521 184L519 184L519 200L521 200ZM521 184L521 183L519 183L519 184L521 184ZM519 50L519 183L521 183L521 50L519 50ZM419 51L520 51L520 49L419 49L419 51ZM420 183L420 50L418 50L418 183L420 183ZM420 184L420 183L418 183L418 184L420 184Z" fill="#F0E9D7" mask="url(#path-9-inside-1_283_77)"/>
<rect x="19.5" y="100.5" width="100" height="151" transform="rotate(-90 19.5 100.5)" fill="#FDF9EF" stroke="#F0E9D7"/>
<mask id="path-12-inside-2_283_77" fill="white">
<path fill-rule="evenodd" clip-rule="evenodd" d="M120 199L170 199L170 -2.18557e-06L420 -1.31134e-05L420 300L171 300L170 300L120 300L120 199Z"/>
</mask>
<path fill-rule="evenodd" clip-rule="evenodd" d="M120 199L170 199L170 -2.18557e-06L420 -1.31134e-05L420 300L171 300L170 300L120 300L120 199Z" fill="#FDF9EF"/>
<path d="M170 199L170 200L171 200L171 199L170 199ZM120 199L120 198L119 198L119 199L120 199ZM170 -2.18557e-06L170 -1L169 -1L169 -2.14186e-06L170 -2.18557e-06ZM420 -1.31134e-05L421 -1.31571e-05L421 -1.00001L420 -1.00001L420 -1.31134e-05ZM420 300L420 301L421 301L421 300L420 300ZM120 300L119 300L119 301L120 301L120 300ZM170 198L120 198L120 200L170 200L170 198ZM171 199L171 -2.22928e-06L169 -2.14186e-06L169 199L171 199ZM170 0.999998L420 0.999987L420 -1.00001L170 -1L170 0.999998ZM419 -1.30697e-05L419 300L421 300L421 -1.31571e-05L419 -1.30697e-05ZM420 299L171 299L171 301L420 301L420 299ZM171 299L170 299L170 301L171 301L171 299ZM120 301L170 301L170 299L120 299L120 301ZM119 199L119 300L121 300L121 199L119 199Z" fill="#F0E9D7" mask="url(#path-12-inside-2_283_77)"/>
<rect x="458.5" y="249.5" width="50" height="38" transform="rotate(-90 458.5 249.5)" fill="#F1F3F4" stroke="#CCCCCC"/>
<rect x="458.5" y="299.5" width="50" height="81" transform="rotate(-90 458.5 299.5)" fill="#F1F3F4" stroke="#CCCCCC"/>
<line x1="459" y1="249.5" x2="451" y2="249.5" stroke="#CCCCCC"/>
<path d="M520 249.5L539.5 249.5L539.5 299.5L459 299.5L458 299.5L420 299.5L419 299.5L171 299.5L170 299.5L121 299.5L120 299.5L84 299.5L83 299.5L0.5 299.5L0.499998 250.5L19 250.5L19.5 250.5L19.5 250L19.5 200L19.5 199L19.5 101L19.5 100L19.5 0.499999L170 0.499993L171 0.499993L419 0.499982L420 0.499982L519.5 0.499977L519.5 50L519.5 51L519.5 183L519.5 184L519.5 199L519.5 200L519.5 249L519.5 249.5L520 249.5Z" stroke="#CCCCCC"/>
</g>
<defs>
<clipPath id="clip0_283_77">
<rect width="342" height="540" fill="white" transform="translate(0 342) rotate(-90)"/>
</clipPath>
</defs>
</svg>
