<svg width="540" height="342" viewBox="0 0 540 342" fill="none" xmlns="http://www.w3.org/2000/svg">
<g clip-path="url(#clip0_283_227)">
<mask id="path-1-inside-1_283_227" fill="white">
<path fill-rule="evenodd" clip-rule="evenodd" d="M83 300L83 199L121 199L121 250L419 250L419 199L459 199L459 300L420 300L419 300L121 300L120 300L83 300Z"/>
</mask>
<path fill-rule="evenodd" clip-rule="evenodd" d="M83 300L83 199L121 199L121 250L419 250L419 199L459 199L459 300L420 300L419 300L121 300L120 300L83 300Z" fill="white"/>
<path d="M83 199L83 198L82 198L82 199L83 199ZM83 300L82 300L82 301L83 301L83 300ZM121 199L122 199L122 198L121 198L121 199ZM121 250L120 250L120 251L121 251L121 250ZM419 250L419 251L420 251L420 250L419 250ZM419 199L419 198L418 198L418 199L419 199ZM459 199L460 199L460 198L459 198L459 199ZM459 300L459 301L460 301L460 300L459 300ZM82 199L82 300L84 300L84 199L82 199ZM121 198L83 198L83 200L121 200L121 198ZM122 250L122 199L120 199L120 250L122 250ZM419 249L121 249L121 251L419 251L419 249ZM420 250L420 199L418 199L418 250L420 250ZM419 200L459 200L459 198L419 198L419 200ZM458 199L458 300L460 300L460 199L458 199ZM459 299L420 299L420 301L459 301L459 299ZM420 299L419 299L419 301L420 301L420 299ZM121 301L419 301L419 299L121 299L121 301ZM120 301L121 301L121 299L120 299L120 301ZM83 301L120 301L120 299L83 299L83 301Z" fill="#CCCCCC" mask="url(#path-1-inside-1_283_227)"/>
<rect x="439.5" y="199.5" width="16" height="57" transform="rotate(-90 439.5 199.5)" fill="#D9D9D9" stroke="#CCCCCC"/>
<rect x="496.5" y="249.5" width="50" height="23" transform="rotate(-90 496.5 249.5)" fill="#D9D9D9" stroke="#CCCCCC"/>
<rect x="0.500015" y="299.5" width="49" height="83" transform="rotate(-90 0.500015 299.5)" fill="#F1F3F4" stroke="#CCCCCC"/>
<rect x="19.5" y="250.5" width="51" height="64" transform="rotate(-90 19.5 250.5)" fill="#E0E5FF" stroke="#CCCCCC"/>
<mask id="path-7-inside-2_283_227" fill="white">
<path fill-rule="evenodd" clip-rule="evenodd" d="M269 99L269 251L420 251L420 99L520 99L520 -1.09716e-05L269 0L269 98L269 99Z"/>
</mask>
<path fill-rule="evenodd" clip-rule="evenodd" d="M269 99L269 251L420 251L420 99L520 99L520 -1.09716e-05L269 0L269 98L269 99Z" fill="#FDF9EF"/>
<path d="M269 251L268 251L268 252L269 252L269 251ZM420 251L420 252L421 252L421 251L420 251ZM420 99L420 98L419 98L419 99L420 99ZM520 99L520 100L521 100L521 99L520 99ZM520 -1.09716e-05L521 -1.10153e-05L521 -1.00001L520 -1.00001L520 -1.09716e-05ZM269 0L269 -1L268 -1L268 4.37114e-08L269 0ZM270 251L270 99L268 99L268 251L270 251ZM420 250L269 250L269 252L420 252L420 250ZM419 99L419 251L421 251L421 99L419 99ZM520 98L420 98L420 100L520 100L520 98ZM519 -1.09278e-05L519 99L521 99L521 -1.10153e-05L519 -1.09278e-05ZM269 1L520 0.999989L520 -1.00001L269 -1L269 1ZM270 98L270 -4.37114e-08L268 4.37114e-08L268 98L270 98ZM270 99L270 98L268 98L268 99L270 99Z" fill="#F0E9D7" mask="url(#path-7-inside-2_283_227)"/>
<rect x="458.5" y="249.5" width="50" height="38" transform="rotate(-90 458.5 249.5)" fill="#F1F3F4" stroke="#CCCCCC"/>
<rect x="458.5" y="299.5" width="50" height="81" transform="rotate(-90 458.5 299.5)" fill="#F1F3F4" stroke="#CCCCCC"/>
<line x1="459" y1="249.5" x2="451" y2="249.5" stroke="#CCCCCC"/>
<mask id="path-12-inside-3_283_227" fill="white">
<path fill-rule="evenodd" clip-rule="evenodd" d="M419 184L419 200L440 200L440 184L496 184L496 200L520 200L520 184L520 183L520 98L419 98L419 183L419 184Z"/>
</mask>
<path fill-rule="evenodd" clip-rule="evenodd" d="M419 184L419 200L440 200L440 184L496 184L496 200L520 200L520 184L520 183L520 98L419 98L419 183L419 184Z" fill="#FDF9EF"/>
<path d="M419 200L418 200L418 201L419 201L419 200ZM440 200L440 201L441 201L441 200L440 200ZM440 184L440 183L439 183L439 184L440 184ZM496 184L497 184L497 183L496 183L496 184ZM496 200L495 200L495 201L496 201L496 200ZM520 200L520 201L521 201L521 200L520 200ZM520 98L521 98L521 97L520 97L520 98ZM419 98L419 97L418 97L418 98L419 98ZM420 200L420 184L418 184L418 200L420 200ZM440 199L419 199L419 201L440 201L440 199ZM439 184L439 200L441 200L441 184L439 184ZM496 183L440 183L440 185L496 185L496 183ZM495 184L495 200L497 200L497 184L495 184ZM496 201L520 201L520 199L496 199L496 201ZM521 200L521 184L519 184L519 200L521 200ZM521 184L521 183L519 183L519 184L521 184ZM519 98L519 183L521 183L521 98L519 98ZM419 99L520 99L520 97L419 97L419 99ZM420 183L420 98L418 98L418 183L420 183ZM420 184L420 183L418 183L418 184L420 184Z" fill="#F0E9D7" mask="url(#path-12-inside-3_283_227)"/>
<mask id="path-14-inside-4_283_227" fill="white">
<path fill-rule="evenodd" clip-rule="evenodd" d="M19 200L19 101L19 100L19 0L270 -1.09716e-05L270 101L121 101L121 200L19 200Z"/>
</mask>
<path fill-rule="evenodd" clip-rule="evenodd" d="M19 200L19 101L19 100L19 0L270 -1.09716e-05L270 101L121 101L121 200L19 200Z" fill="#FDF9EF"/>
<path d="M19 200L18 200L18 201L19 201L19 200ZM19 0L19 -1L18 -1L18 4.37114e-08L19 0ZM270 -1.09716e-05L271 -1.10153e-05L271 -1.00001L270 -1.00001L270 -1.09716e-05ZM270 101L270 102L271 102L271 101L270 101ZM121 101L121 100L120 100L120 101L121 101ZM121 200L121 201L122 201L122 200L121 200ZM18 101L18 200L20 200L20 101L18 101ZM20 101L20 100L18 100L18 101L20 101ZM20 100L20 -4.37114e-08L18 4.37114e-08L18 100L20 100ZM19 1L270 0.999989L270 -1.00001L19 -1L19 1ZM269 -1.09278e-05L269 101L271 101L271 -1.10153e-05L269 -1.09278e-05ZM270 100L121 100L121 102L270 102L270 100ZM122 200L122 101L120 101L120 200L122 200ZM19 201L121 201L121 199L19 199L19 201Z" fill="#F0E9D7" mask="url(#path-14-inside-4_283_227)"/>
<rect x="0.5" y="0.5" width="150" height="74" transform="matrix(4.37114e-08 1 1 -4.37114e-08 120 100)" fill="#FDF9EF" stroke="#F0E9D7"/>
<rect x="0.5" y="0.5" width="150" height="75" transform="matrix(4.37114e-08 1 1 -4.37114e-08 194 100)" fill="#FDF9EF" stroke="#F0E9D7"/>
<path d="M520 249.5L539.5 249.5L539.5 299.5L459 299.5L458 299.5L420 299.5L419 299.5L171 299.5L170 299.5L121 299.5L120 299.5L84 299.5L83 299.5L0.500015 299.5L0.500013 250.5L19 250.5L19.5 250.5L19.5 250L19.5 200L19.5 199L19.5 101L19.5 100L19.5 0.499999L170 0.499993L171 0.499993L419 0.499982L420 0.499982L519.5 0.499977L519.5 50L519.5 51L519.5 183L519.5 184L519.5 199L519.5 200L519.5 249L519.5 249.5L520 249.5Z" stroke="#CCCCCC"/>
</g>
<defs>
<clipPath id="clip0_283_227">
<rect width="342" height="540" fill="white" transform="translate(1.52588e-05 342) rotate(-90)"/>
</clipPath>
</defs>
</svg>
