<svg width="815" height="555" viewBox="0 0 815 555" fill="none" xmlns="http://www.w3.org/2000/svg">
<g clip-path="url(#clip0_293_577)">
<rect x="654.5" y="173.5" width="154" height="119" fill="#FDF9EF" stroke="#CCCCCC"/>
<rect x="285.5" y="0.5" width="145" height="136" fill="#FDF9EF" stroke="#CCCCCC"/>
<mask id="path-3-inside-1_293_577" fill="white">
<path fill-rule="evenodd" clip-rule="evenodd" d="M556 0H430V137H555H556H587V68H556V0Z"/>
</mask>
<path fill-rule="evenodd" clip-rule="evenodd" d="M556 0H430V137H555H556H587V68H556V0Z" fill="#FDF9EF"/>
<path d="M430 0V-1H429V0H430ZM556 0H557V-1H556V0ZM430 137H429V138H430V137ZM587 137V138H588V137H587ZM587 68H588V67H587V68ZM556 68H555V69H556V68ZM430 1H556V-1H430V1ZM431 137V0H429V137H431ZM555 136H430V138H555V136ZM556 136H555V138H556V136ZM587 136H556V138H587V136ZM586 68V137H588V68H586ZM556 69H587V67H556V69ZM555 0V68H557V0H555Z" fill="#CCCCCC" mask="url(#path-3-inside-1_293_577)"/>
<rect x="654.5" y="292.5" width="154" height="119" fill="#FDF9EF" stroke="#CCCCCC"/>
<rect x="654.5" y="411.5" width="154" height="9" fill="#D9D9D9" stroke="#CCCCCC"/>
<rect x="782.5" y="437.5" width="32" height="23" fill="#D9D9D9" stroke="#CCCCCC"/>
<rect x="782.5" y="437.5" width="32" height="23" fill="#D9D9D9" stroke="#CCCCCC"/>
<rect x="802.5" y="460.5" width="12" height="30" fill="#D9D9D9" stroke="#CCCCCC"/>
<path d="M721.5 485.5H736.5V500.242L721.5 493.815V485.5Z" fill="#D9D9D9" stroke="#CCCCCC"/>
<rect x="613.5" y="488.5" width="50" height="66" fill="#F1F3F4" stroke="#CCCCCC"/>
<rect x="555.5" y="456.5" width="46" height="37" fill="white" stroke="#CCCCCC"/>
<rect x="555.5" y="456.5" width="46" height="37" fill="white" stroke="#CCCCCC"/>
<rect x="721.5" y="437.5" width="26" height="48" fill="#F1F3F4" stroke="#CCCCCC"/>
<rect x="721.5" y="437.5" width="26" height="48" fill="#F1F3F4" stroke="#CCCCCC"/>
<rect x="202.5" y="136.5" width="40" height="31" fill="#F1F3F4" stroke="#CCCCCC"/>
<rect x="79.2357" y="234.63" width="28.477" height="72" transform="rotate(18.6391 79.2357 234.63)" fill="#E0E5FF" stroke="#CCCCCC"/>
<rect x="54.1039" y="226.153" width="26.546" height="72" transform="rotate(18.6391 54.1039 226.153)" fill="#E0E5FF" stroke="#CCCCCC"/>
<path d="M276.636 476.191L286.371 448.025L312.906 456.975L303.319 485.398L276.636 476.191Z" fill="#F1F3F4" stroke="#CCCCCC"/>
<mask id="path-20-inside-2_293_577" fill="white">
<path fill-rule="evenodd" clip-rule="evenodd" d="M655 167H617V359H512V456V457V490H556V457H601V489H663V492H716.068L722 494.419V438H766V460H747V475H803V460H784V438H806V420H722H721H664H663H655V360V359V167Z"/>
</mask>
<path fill-rule="evenodd" clip-rule="evenodd" d="M655 167H617V359H512V456V457V490H556V457H601V489H663V492H716.068L722 494.419V438H766V460H747V475H803V460H784V438H806V420H722H721H664H663H655V360V359V167Z" fill="white"/>
<path d="M617 167V166H616V167H617ZM655 167H656V166H655V167ZM617 359V360H618V359H617ZM512 359V358H511V359H512ZM512 490H511V491H512V490ZM556 490V491H557V490H556ZM556 457V456H555V457H556ZM601 457H602V456H601V457ZM601 489H600V490H601V489ZM663 489H664V488H663V489ZM663 492H662V493H663V492ZM716.068 492L716.446 491.074L716.264 491H716.068V492ZM722 494.419L721.622 495.345L723 495.907V494.419H722ZM722 438V437H721V438H722ZM766 438H767V437H766V438ZM766 460V461H767V460H766ZM747 460V459H746V460H747ZM747 475H746V476H747V475ZM803 475V476H804V475H803ZM803 460H804V459H803V460ZM784 460H783V461H784V460ZM784 438V437H783V438H784ZM806 438V439H807V438H806ZM806 420H807V419H806V420ZM655 420H654V421H655V420ZM617 168H655V166H617V168ZM618 359V167H616V359H618ZM512 360H617V358H512V360ZM513 456V359H511V456H513ZM513 457V456H511V457H513ZM513 490V457H511V490H513ZM556 489H512V491H556V489ZM555 457V490H557V457H555ZM601 456H556V458H601V456ZM602 489V457H600V489H602ZM663 488H601V490H663V488ZM664 492V489H662V492H664ZM716.068 491H663V493H716.068V491ZM722.378 493.493L716.446 491.074L715.691 492.926L721.622 495.345L722.378 493.493ZM721 438V494.419H723V438H721ZM766 437H722V439H766V437ZM767 460V438H765V460H767ZM747 461H766V459H747V461ZM748 475V460H746V475H748ZM803 474H747V476H803V474ZM802 460V475H804V460H802ZM784 461H803V459H784V461ZM783 438V460H785V438H783ZM806 437H784V439H806V437ZM805 420V438H807V420H805ZM722 421H806V419H722V421ZM721 421H722V419H721V421ZM664 421H721V419H664V421ZM663 421H664V419H663V421ZM655 421H663V419H655V421ZM654 360V420H656V360H654ZM654 359V360H656V359H654ZM654 167V359H656V167H654Z" fill="#CCCCCC" mask="url(#path-20-inside-2_293_577)"/>
<rect x="747.5" y="437.5" width="19" height="23" fill="#E0E5FF" stroke="#CCCCCC"/>
<path d="M814.5 490.5V532.247L777.5 516.668V474.5H802.5V490V490.5H803H814.5Z" fill="#E0E5FF" stroke="#CCCCCC"/>
<path d="M747.5 485V474.5H777.5V516.682L736.5 500.271V485.5L747 485.5L747.5 485.5V485Z" fill="#E0E5FF" stroke="#CCCCCC"/>
<rect x="202.5" y="167.5" width="104" height="62" fill="#D9D9D9" stroke="#CCCCCC"/>
<rect x="489.5" y="167.5" width="24" height="66" fill="#D9D9D9" stroke="#CCCCCC"/>
<rect x="555.5" y="167.5" width="30.75" height="66" fill="#E0E5FF" stroke="#CCCCCC"/>
<rect x="586.5" y="167.5" width="30.75" height="66" fill="#E0E5FF" stroke="#CCCCCC"/>
<mask id="path-29-inside-3_293_577" fill="white">
<path fill-rule="evenodd" clip-rule="evenodd" d="M202 0H169V69H202V137H286V0H203H202Z"/>
</mask>
<path fill-rule="evenodd" clip-rule="evenodd" d="M202 0H169V69H202V137H286V0H203H202Z" fill="#D9D9D9"/>
<path d="M169 0V-1H168V0H169ZM169 69H168V70H169V69ZM202 69H203V68H202V69ZM202 137H201V138H202V137ZM286 137V138H287V137H286ZM286 0H287V-1H286V0ZM169 1H202V-1H169V1ZM170 69V0H168V69H170ZM202 68H169V70H202V68ZM203 137V69H201V137H203ZM286 136H202V138H286V136ZM285 0V137H287V0H285ZM203 1H286V-1H203V1ZM202 1H203V-1H202V1Z" fill="#CCCCCC" mask="url(#path-29-inside-3_293_577)"/>
<mask id="path-31-inside-4_293_577" fill="white">
<path fill-rule="evenodd" clip-rule="evenodd" d="M618 0H555V69H618V137H743V0H619H618Z"/>
</mask>
<path fill-rule="evenodd" clip-rule="evenodd" d="M618 0H555V69H618V137H743V0H619H618Z" fill="#D9D9D9"/>
<path d="M555 0V-1H554V0H555ZM555 69H554V70H555V69ZM618 69H619V68H618V69ZM618 137H617V138H618V137ZM743 137V138H744V137H743ZM743 0H744V-1H743V0ZM555 1H618V-1H555V1ZM556 69V0H554V69H556ZM618 68H555V70H618V68ZM619 137V69H617V137H619ZM743 136H618V138H743V136ZM742 0V137H744V0H742ZM619 1H743V-1H619V1ZM618 1H619V-1H618V1Z" fill="#CCCCCC" mask="url(#path-31-inside-4_293_577)"/>
<rect x="457.5" y="167.5" width="32" height="66" fill="#F1F3F4" stroke="#CCCCCC"/>
<rect x="586.5" y="68.5" width="32" height="68" fill="#F1F3F4" stroke="#CCCCCC"/>
<mask id="path-35-inside-5_293_577" fill="white">
<path fill-rule="evenodd" clip-rule="evenodd" d="M305.857 136H241.827V167H201.809V230H305.857V308H323.797L321.012 316.254L105.745 243L82.8221 311.024L30.8339 293.483L0.5 383.5L276.923 476.825L286.665 448.665L313.127 457.599L313.498 456.51L353.077 470.243L362.511 443H405.286V490H513.438V360H618V308V307V233H555.971L555.971 168L555.971 167L555.971 136H457.926H456.926H306.857H305.857ZM350.033 349L356.885 328.837L356.887 328.838L363.919 308H406.903V349H350.033ZM512.952 168V233H457.926V168H512.952Z"/>
</mask>
<path fill-rule="evenodd" clip-rule="evenodd" d="M305.857 136H241.827V167H201.809V230H305.857V308H323.797L321.012 316.254L105.745 243L82.8221 311.024L30.8339 293.483L0.5 383.5L276.923 476.825L286.665 448.665L313.127 457.599L313.498 456.51L353.077 470.243L362.511 443H405.286V490H513.438V360H618V308V307V233H555.971L555.971 168L555.971 167L555.971 136H457.926H456.926H306.857H305.857ZM350.033 349L356.885 328.837L356.887 328.838L363.919 308H406.903V349H350.033ZM512.952 168V233H457.926V168H512.952Z" fill="#FDF9EF"/>
<path d="M241.827 136V135H240.827V136H241.827ZM241.827 167V168H242.827V167H241.827ZM201.809 167V166H200.809V167H201.809ZM201.809 230H200.809V231H201.809V230ZM305.857 230H306.857V229H305.857V230ZM305.857 308H304.857V309H305.857V308ZM323.797 308L324.744 308.32L325.19 307H323.797V308ZM321.012 316.254L320.689 317.2L321.639 317.523L321.959 316.573L321.012 316.254ZM105.745 243L106.067 242.053L105.117 241.73L104.797 242.681L105.745 243ZM82.8221 311.024L82.5024 311.971L83.4503 312.291L83.7698 311.343L82.8221 311.024ZM30.8339 293.483L31.1536 292.535L30.2057 292.215L29.8862 293.163L30.8339 293.483ZM0.5 383.5L-0.447642 383.181L-0.766794 384.128L0.180122 384.447L0.5 383.5ZM276.923 476.825L276.603 477.773L277.543 478.09L277.868 477.152L276.923 476.825ZM286.665 448.665L286.985 447.718L286.045 447.4L285.72 448.338L286.665 448.665ZM313.127 457.599L312.808 458.547L313.753 458.866L314.074 457.921L313.127 457.599ZM313.498 456.51L313.825 455.566L312.875 455.236L312.551 456.189L313.498 456.51ZM353.077 470.243L352.749 471.187L353.694 471.515L354.022 470.57L353.077 470.243ZM362.511 443V442H361.799L361.566 442.673L362.511 443ZM405.286 443H406.286V442H405.286V443ZM405.286 490H404.286V491H405.286V490ZM513.438 490V491H514.438V490H513.438ZM513.438 360V359H512.438V360H513.438ZM618 360V361H619V360H618ZM618 233H619V232H618V233ZM555.971 233L554.971 233L554.971 234H555.971V233ZM555.971 168L554.971 168L554.971 168L555.971 168ZM555.971 167L556.971 167L556.971 167L555.971 167ZM555.971 136L556.971 136L556.971 135H555.971V136ZM356.885 328.837L357.202 327.889L356.258 327.574L355.939 328.515L356.885 328.837ZM350.033 349L349.087 348.678L348.637 350H350.033V349ZM356.887 328.838L356.571 329.786L357.516 330.101L357.834 329.157L356.887 328.838ZM363.919 308V307H363.201L362.971 307.68L363.919 308ZM406.903 308H407.903V307H406.903V308ZM406.903 349V350H407.903V349H406.903ZM512.952 233V234H513.952V233H512.952ZM512.952 168H513.952V167H512.952V168ZM457.926 233H456.926V234H457.926V233ZM457.926 168V167H456.926V168H457.926ZM241.827 137H305.857V135H241.827V137ZM242.827 167V136H240.827V167H242.827ZM201.809 168H241.827V166H201.809V168ZM202.809 230V167H200.809V230H202.809ZM305.857 229H201.809V231H305.857V229ZM306.857 308V230H304.857V308H306.857ZM323.797 307H305.857V309H323.797V307ZM321.959 316.573L324.744 308.32L322.849 307.68L320.064 315.934L321.959 316.573ZM105.422 243.947L320.689 317.2L321.334 315.307L106.067 242.053L105.422 243.947ZM83.7698 311.343L106.692 243.319L104.797 242.681L81.8745 310.704L83.7698 311.343ZM30.5142 294.43L82.5024 311.971L83.1418 310.076L31.1536 292.535L30.5142 294.43ZM1.44764 383.819L31.7815 293.802L29.8862 293.163L-0.447642 383.181L1.44764 383.819ZM277.243 475.878L0.819878 382.552L0.180122 384.447L276.603 477.773L277.243 475.878ZM285.72 448.338L275.978 476.498L277.868 477.152L287.61 448.992L285.72 448.338ZM313.447 456.652L286.985 447.718L286.345 449.613L312.808 458.547L313.447 456.652ZM312.551 456.189L312.181 457.278L314.074 457.921L314.444 456.832L312.551 456.189ZM353.405 469.298L313.825 455.566L313.17 457.455L352.749 471.187L353.405 469.298ZM361.566 442.673L352.132 469.915L354.022 470.57L363.456 443.327L361.566 442.673ZM405.286 442H362.511V444H405.286V442ZM406.286 490V443H404.286V490H406.286ZM513.438 489H405.286V491H513.438V489ZM512.438 360V490H514.438V360H512.438ZM618 359H513.438V361H618V359ZM617 308V360H619V308H617ZM617 307V308H619V307H617ZM617 233V307H619V233H617ZM555.971 234H618V232H555.971V234ZM554.971 168L554.971 233L556.971 233L556.971 168L554.971 168ZM554.971 167L554.971 168L556.971 168L556.971 167L554.971 167ZM554.971 136L554.971 167L556.971 167L556.971 136L554.971 136ZM457.926 137H555.971V135H457.926V137ZM456.926 137H457.926V135H456.926V137ZM306.857 137H456.926V135H306.857V137ZM305.857 137H306.857V135H305.857V137ZM355.939 328.515L349.087 348.678L350.98 349.322L357.832 329.159L355.939 328.515ZM357.203 327.889L357.202 327.889L356.569 329.786L356.571 329.786L357.203 327.889ZM362.971 307.68L355.939 328.518L357.834 329.157L364.866 308.32L362.971 307.68ZM406.903 307H363.919V309H406.903V307ZM407.903 349V308H405.903V349H407.903ZM350.033 350H406.903V348H350.033V350ZM513.952 233V168H511.952V233H513.952ZM457.926 234H512.952V232H457.926V234ZM456.926 168V233H458.926V168H456.926ZM512.952 167H457.926V169H512.952V167Z" fill="#CCCCCC" mask="url(#path-35-inside-5_293_577)"/>
<line x1="432" y1="167.5" x2="458" y2="167.5" stroke="#CCCCCC"/>
<mask id="path-38-inside-6_293_577" fill="white">
<path d="M563 492L595 492L595 495L563 495L563 492Z"/>
</mask>
<path d="M563 492L595 492L595 495L563 495L563 492Z" fill="#CDF2FB"/>
<path d="M594 492L594 495L596 495L596 492L594 492ZM564 495L564 492L562 492L562 495L564 495Z" fill="#CCCCCC" mask="url(#path-38-inside-6_293_577)"/>
<mask id="path-40-inside-7_293_577" fill="white">
<path d="M563 455L595 455L595 458L563 458L563 455Z"/>
</mask>
<path d="M563 455L595 455L595 458L563 458L563 455Z" fill="#CDF2FB"/>
<path d="M594 455L594 458L596 458L596 455L594 455ZM564 458L564 455L562 455L562 458L564 458Z" fill="#CCCCCC" mask="url(#path-40-inside-7_293_577)"/>
</g>
<defs>
<clipPath id="clip0_293_577">
<rect width="815" height="555" fill="white"/>
</clipPath>
</defs>
</svg>
