<svg width="815" height="555" viewBox="0 0 815 555" fill="none" xmlns="http://www.w3.org/2000/svg">
<rect x="654.5" y="171.5" width="160" height="240" fill="#D9D9D9" stroke="#CCCCCC"/>
<rect x="617.5" y="170.5" width="37" height="178" fill="#D9D9D9" stroke="#CCCCCC"/>
<rect x="350.5" y="307.5" width="185" height="42" fill="#D9D9D9" stroke="#CCCCCC"/>
<rect x="651.5" y="410.5" width="163" height="10" fill="#D9D9D9" stroke="#CCCCCC"/>
<rect x="782.5" y="437.5" width="32" height="23" fill="#D9D9D9" stroke="#CCCCCC"/>
<rect x="782.5" y="437.5" width="32" height="23" fill="#D9D9D9" stroke="#CCCCCC"/>
<rect x="802.5" y="460.5" width="12" height="30" fill="#D9D9D9" stroke="#CCCCCC"/>
<path d="M721.5 485.5H736.5V500.242L721.5 493.815V485.5Z" fill="#D9D9D9" stroke="#CCCCCC"/>
<rect x="613.5" y="488.5" width="50" height="66" fill="#F1F3F4" stroke="#CCCCCC"/>
<rect x="555.5" y="456.5" width="46" height="37" fill="white" stroke="#CCCCCC"/>
<mask id="path-11-inside-1_293_648" fill="white">
<path fill-rule="evenodd" clip-rule="evenodd" d="M446 440H407V452V453V489H544V452H446V440Z"/>
</mask>
<path fill-rule="evenodd" clip-rule="evenodd" d="M446 440H407V452V453V489H544V452H446V440Z" fill="#D9D9D9"/>
<path d="M407 440V439H406V440H407ZM446 440H447V439H446V440ZM407 489H406V490H407V489ZM544 489V490H545V489H544ZM544 452H545V451H544V452ZM446 452H445V453H446V452ZM407 441H446V439H407V441ZM408 452V440H406V452H408ZM408 453V452H406V453H408ZM408 489V453H406V489H408ZM544 488H407V490H544V488ZM543 452V489H545V452H543ZM446 453H544V451H446V453ZM445 440V452H447V440H445Z" fill="#CCCCCC" mask="url(#path-11-inside-1_293_648)"/>
<rect x="721.5" y="437.5" width="26" height="48" fill="#F1F3F4" stroke="#CCCCCC"/>
<rect x="721.5" y="437.5" width="26" height="48" fill="#F1F3F4" stroke="#CCCCCC"/>
<rect x="202.5" y="136.5" width="40" height="31" fill="#F1F3F4" stroke="#CCCCCC"/>
<path d="M276.636 476.191L286.371 448.025L312.906 456.975L303.319 485.398L276.636 476.191Z" fill="#F1F3F4" stroke="#CCCCCC"/>
<mask id="path-17-inside-2_293_648" fill="white">
<path fill-rule="evenodd" clip-rule="evenodd" d="M543 410H556H652V420H663H664H721H722H815V438H784V460H803V475H747V460H766V438H722V494.419L716.068 492H663V489H601V457H556V489H543V457V410Z"/>
</mask>
<path fill-rule="evenodd" clip-rule="evenodd" d="M543 410H556H652V420H663H664H721H722H815V438H784V460H803V475H747V460H766V438H722V494.419L716.068 492H663V489H601V457H556V489H543V457V410Z" fill="white"/>
<path d="M543 410V409H542V410H543ZM652 410H653V409H652V410ZM652 420H651V421H652V420ZM815 420H816V419H815V420ZM815 438V439H816V438H815ZM784 438V437H783V438H784ZM784 460H783V461H784V460ZM803 460H804V459H803V460ZM803 475V476H804V475H803ZM747 475H746V476H747V475ZM747 460V459H746V460H747ZM766 460V461H767V460H766ZM766 438H767V437H766V438ZM722 438V437H721V438H722ZM722 494.419L721.622 495.345L723 495.907V494.419H722ZM716.068 492L716.446 491.074L716.264 491H716.068V492ZM663 492H662V493H663V492ZM663 489H664V488H663V489ZM601 489H600V490H601V489ZM601 457H602V456H601V457ZM556 457V456H555V457H556ZM556 489V490H557V489H556ZM543 489H542V490H543V489ZM556 409H543V411H556V409ZM652 409H556V411H652V409ZM653 420V410H651V420H653ZM652 421H663V419H652V421ZM663 421H664V419H663V421ZM664 421H721V419H664V421ZM721 421H722V419H721V421ZM722 421H815V419H722V421ZM814 420V438H816V420H814ZM815 437H784V439H815V437ZM783 438V460H785V438H783ZM784 461H803V459H784V461ZM802 460V475H804V460H802ZM803 474H747V476H803V474ZM748 475V460H746V475H748ZM747 461H766V459H747V461ZM767 460V438H765V460H767ZM766 437H722V439H766V437ZM721 438V494.419H723V438H721ZM722.378 493.493L716.446 491.074L715.691 492.926L721.622 495.345L722.378 493.493ZM716.068 491H663V493H716.068V491ZM664 492V489H662V492H664ZM663 488H601V490H663V488ZM602 489V457H600V489H602ZM556 458H601V456H556V458ZM557 489V457H555V489H557ZM543 490H556V488H543V490ZM542 457V489H544V457H542ZM542 410V457H544V410H542Z" fill="#CCCCCC" mask="url(#path-17-inside-2_293_648)"/>
<rect x="747.5" y="437.5" width="19" height="23" fill="#D9D9D9" stroke="#CCCCCC"/>
<path d="M814.5 490.5V532.247L777.5 516.668V474.5H802.5V490V490.5H803H814.5Z" fill="#E0E5FF" stroke="#CCCCCC"/>
<path d="M747.5 485V474.5H777.5V516.682L736.5 500.271V485.5L747 485.5L747.5 485.5V485Z" fill="#E0E5FF" stroke="#CCCCCC"/>
<rect x="489.5" y="167.5" width="24" height="66" fill="#D9D9D9" stroke="#CCCCCC"/>
<mask id="path-23-inside-3_293_648" fill="white">
<path fill-rule="evenodd" clip-rule="evenodd" d="M445 410H407V441H445V453H544V441V410H445Z"/>
</mask>
<path fill-rule="evenodd" clip-rule="evenodd" d="M445 410H407V441H445V453H544V441V410H445Z" fill="#FDF9EF"/>
<path d="M407 410V409H406V410H407ZM407 441H406V442H407V441ZM445 441H446V440H445V441ZM445 453H444V454H445V453ZM544 453V454H545V453H544ZM544 410H545V409H544V410ZM407 411H445V409H407V411ZM408 441V410H406V441H408ZM445 440H407V442H445V440ZM446 453V441H444V453H446ZM544 452H445V454H544V452ZM543 441V453H545V441H543ZM543 410V441H545V410H543ZM445 411H544V409H445V411Z" fill="#CCCCCC" mask="url(#path-23-inside-3_293_648)"/>
<rect x="457.5" y="167.5" width="32" height="66" fill="#F1F3F4" stroke="#CCCCCC"/>
<rect x="586.5" y="68.5" width="32" height="68" fill="#F1F3F4" stroke="#CCCCCC"/>
<rect x="618.5" y="68.5" width="123" height="68" fill="#D9D9D9" stroke="#CCCCCC"/>
<rect x="675.5" y="1.5" width="66" height="67" fill="#D9D9D9" stroke="#CCCCCC"/>
<rect x="630.5" y="136.5" width="24" height="50" fill="#D9D9D9" stroke="#CCCCCC"/>
<mask id="path-30-inside-4_293_648" fill="white">
<path fill-rule="evenodd" clip-rule="evenodd" d="M430.5 0H202.5V137H242.271V167H202.309V230H306.211V308H324.126L321.512 315.755L106.305 243.098L83.4062 311.052L31.334 293.483L1.00012 383.5L277.423 476.825L287.142 448.734L313.688 457.697L318.641 443H408.114V411H655.5V348H618.5V308V307V233H555.974V168V167V137H556.5H587.5V69H676.5V0H556.5H555.5H431.5H430.5ZM357.117 328.82L350.317 349H405H405.5H535V308H407.5H405H364.191L357.169 328.838L357.117 328.82ZM513.015 233V168H458.067V233H513.015Z"/>
</mask>
<path fill-rule="evenodd" clip-rule="evenodd" d="M430.5 0H202.5V137H242.271V167H202.309V230H306.211V308H324.126L321.512 315.755L106.305 243.098L83.4062 311.052L31.334 293.483L1.00012 383.5L277.423 476.825L287.142 448.734L313.688 457.697L318.641 443H408.114V411H655.5V348H618.5V308V307V233H555.974V168V167V137H556.5H587.5V69H676.5V0H556.5H555.5H431.5H430.5ZM357.117 328.82L350.317 349H405H405.5H535V308H407.5H405H364.191L357.169 328.838L357.117 328.82ZM513.015 233V168H458.067V233H513.015Z" fill="#FDF9EF"/>
<path d="M202.5 0V-1H201.5V0H202.5ZM202.5 137H201.5V138H202.5V137ZM242.271 137H243.271V136H242.271V137ZM242.271 167V168H243.271V167H242.271ZM202.309 167V166H201.309V167H202.309ZM202.309 230H201.309V231H202.309V230ZM306.211 230H307.211V229H306.211V230ZM306.211 308H305.211V309H306.211V308ZM324.126 308L325.073 308.319L325.518 307H324.126V308ZM321.512 315.755L321.192 316.703L322.14 317.023L322.46 316.075L321.512 315.755ZM106.305 243.098L106.625 242.15L105.677 241.83L105.358 242.778L106.305 243.098ZM83.4062 311.052L83.0865 312L84.0344 312.319L84.3539 311.371L83.4062 311.052ZM31.334 293.483L31.6537 292.535L30.7058 292.215L30.3864 293.163L31.334 293.483ZM1.00012 383.5L0.0524802 383.181L-0.266672 384.128L0.680244 384.447L1.00012 383.5ZM277.423 476.825L277.103 477.773L278.044 478.09L278.368 477.152L277.423 476.825ZM287.142 448.734L287.461 447.787L286.521 447.469L286.197 448.407L287.142 448.734ZM313.688 457.697L313.368 458.645L314.316 458.965L314.636 458.016L313.688 457.697ZM318.641 443V442H317.923L317.693 442.681L318.641 443ZM408.114 443V444H409.114V443H408.114ZM408.114 411V410H407.114V411H408.114ZM655.5 411V412H656.5V411H655.5ZM655.5 348H656.5V347H655.5V348ZM618.5 348H617.5V349H618.5V348ZM618.5 233H619.5V232H618.5V233ZM555.974 233H554.974V234H555.974V233ZM555.974 137V136H554.974V137H555.974ZM587.5 137V138H588.5V137H587.5ZM587.5 69V68H586.5V69H587.5ZM676.5 69V70H677.5V69H676.5ZM676.5 0H677.5V-1H676.5V0ZM350.317 349L349.369 348.681L348.925 350H350.317V349ZM357.117 328.82L357.437 327.873L356.489 327.553L356.169 328.501L357.117 328.82ZM535 349V350H536V349H535ZM535 308H536V307H535V308ZM364.191 308V307H363.473L363.244 307.681L364.191 308ZM357.169 328.838L356.849 329.785L357.797 330.105L358.117 329.157L357.169 328.838ZM513.015 168H514.015V167H513.015V168ZM513.015 233V234H514.015V233H513.015ZM458.067 168V167H457.067V168H458.067ZM458.067 233H457.067V234H458.067V233ZM202.5 1H430.5V-1H202.5V1ZM203.5 137V0H201.5V137H203.5ZM242.271 136H202.5V138H242.271V136ZM243.271 167V137H241.271V167H243.271ZM202.309 168H242.271V166H202.309V168ZM203.309 230V167H201.309V230H203.309ZM306.211 229H202.309V231H306.211V229ZM307.211 308V230H305.211V308H307.211ZM324.126 307H306.211V309H324.126V307ZM322.46 316.075L325.073 308.319L323.178 307.681L320.565 315.436L322.46 316.075ZM105.986 244.045L321.192 316.703L321.832 314.808L106.625 242.15L105.986 244.045ZM84.3539 311.371L107.253 243.417L105.358 242.778L82.4586 310.733L84.3539 311.371ZM31.0143 294.43L83.0865 312L83.7259 310.105L31.6537 292.535L31.0143 294.43ZM1.94776 383.819L32.2817 293.802L30.3864 293.163L0.0524802 383.181L1.94776 383.819ZM277.743 475.878L1.32 382.553L0.680244 384.447L277.103 477.773L277.743 475.878ZM286.197 448.407L276.478 476.498L278.368 477.152L288.087 449.061L286.197 448.407ZM314.008 456.75L287.461 447.787L286.822 449.682L313.368 458.645L314.008 456.75ZM317.693 442.681L312.741 457.378L314.636 458.016L319.588 443.319L317.693 442.681ZM408.114 442H318.641V444H408.114V442ZM407.114 411V443H409.114V411H407.114ZM655.5 410H408.114V412H655.5V410ZM654.5 348V411H656.5V348H654.5ZM618.5 349H655.5V347H618.5V349ZM617.5 308V348H619.5V308H617.5ZM617.5 307V308H619.5V307H617.5ZM617.5 233V307H619.5V233H617.5ZM555.974 234H618.5V232H555.974V234ZM554.974 168V233H556.974V168H554.974ZM554.974 167V168H556.974V167H554.974ZM554.974 137V167H556.974V137H554.974ZM556.5 136H555.974V138H556.5V136ZM587.5 136H556.5V138H587.5V136ZM586.5 69V137H588.5V69H586.5ZM676.5 68H587.5V70H676.5V68ZM675.5 0V69H677.5V0H675.5ZM556.5 1H676.5V-1H556.5V1ZM555.5 1H556.5V-1H555.5V1ZM431.5 1H555.5V-1H431.5V1ZM430.5 1H431.5V-1H430.5V1ZM351.264 349.319L358.065 329.139L356.169 328.501L349.369 348.681L351.264 349.319ZM405 348H350.317V350H405V348ZM405.5 348H405V350H405.5V348ZM535 348H405.5V350H535V348ZM534 308V349H536V308H534ZM407.5 309H535V307H407.5V309ZM405 309H407.5V307H405V309ZM364.191 309H405V307H364.191V309ZM358.117 329.157L365.139 308.319L363.244 307.681L356.221 328.518L358.117 329.157ZM356.797 329.768L356.849 329.785L357.489 327.89L357.437 327.873L356.797 329.768ZM512.015 168V233H514.015V168H512.015ZM458.067 169H513.015V167H458.067V169ZM459.067 233V168H457.067V233H459.067ZM513.015 232H458.067V234H513.015V232Z" fill="#CCCCCC" mask="url(#path-30-inside-4_293_648)"/>
<line x1="432" y1="167.5" x2="458" y2="167.5" stroke="#CCCCCC"/>
<line x1="493" y1="291.5" x2="554" y2="291.5" stroke="#CCCCCC"/>
<line x1="554.5" y1="1" x2="554.5" y2="71" stroke="#CCCCCC"/>
<rect x="202.5" y="167.5" width="82" height="62" fill="#FDF9EF" stroke="#CCCCCC"/>
<rect x="555.5" y="493.5" width="46" height="60" fill="white" stroke="#CCCCCC"/>
<rect x="465.5" y="509.5" width="90" height="22" fill="#F1F3F4" stroke="#CCCCCC"/>
<mask id="path-38-inside-5_293_648" fill="white">
<path d="M563 492L595 492L595 495L563 495L563 492Z"/>
</mask>
<path d="M563 492L595 492L595 495L563 495L563 492Z" fill="#CDF2FB"/>
<path d="M594 492L594 495L596 495L596 492L594 492ZM564 495L564 492L562 492L562 495L564 495Z" fill="#CCCCCC" mask="url(#path-38-inside-5_293_648)"/>
<mask id="path-40-inside-6_293_648" fill="white">
<path d="M563 455L595 455L595 458L563 458L563 455Z"/>
</mask>
<path d="M563 455L595 455L595 458L563 458L563 455Z" fill="#CDF2FB"/>
<path d="M594 455L594 458L596 458L596 455L594 455ZM564 458L564 455L562 455L562 458L564 458Z" fill="#CCCCCC" mask="url(#path-40-inside-6_293_648)"/>
<rect x="79.2357" y="234.63" width="28.477" height="72" transform="rotate(18.6391 79.2357 234.63)" fill="#E0E5FF" stroke="#CCCCCC"/>
<rect x="54.1039" y="226.153" width="26.546" height="72" transform="rotate(18.6391 54.1039 226.153)" fill="#E0E5FF" stroke="#CCCCCC"/>
<rect x="555.5" y="167.5" width="30.75" height="66" fill="#E0E5FF" stroke="#CCCCCC"/>
<rect x="586.5" y="167.5" width="30.75" height="66" fill="#E0E5FF" stroke="#CCCCCC"/>
</svg>
