<svg width="815" height="555" viewBox="0 0 815 555" fill="none" xmlns="http://www.w3.org/2000/svg">
<rect x="651.5" y="410.5" width="163" height="10" fill="#D9D9D9" stroke="#CCCCCC"/>
<rect x="782.5" y="437.5" width="32" height="23" fill="#D9D9D9" stroke="#CCCCCC"/>
<rect x="782.5" y="437.5" width="32" height="23" fill="#D9D9D9" stroke="#CCCCCC"/>
<rect x="802.5" y="460.5" width="12" height="30" fill="#D9D9D9" stroke="#CCCCCC"/>
<path d="M721.5 485.5H736.5V500.242L721.5 493.815V485.5Z" fill="#D9D9D9" stroke="#CCCCCC"/>
<mask id="path-6-inside-1_293_742" fill="white">
<path fill-rule="evenodd" clip-rule="evenodd" d="M202 0H305.608H431.239H555.869H681V69H587.402V137H555.974V168H538V346H579V410H623V489H544H543H407V453V452V443H318.641L313.688 457.697L287.142 448.734L277.423 476.825L1.00012 383.5L31.334 293.483L83.4062 311.052L106.305 243.098L357.433 327.883L351.328 346H501V168H458V234H429V162H307V168H242V137H202V0Z"/>
</mask>
<path fill-rule="evenodd" clip-rule="evenodd" d="M202 0H305.608H431.239H555.869H681V69H587.402V137H555.974V168H538V346H579V410H623V489H544H543H407V453V452V443H318.641L313.688 457.697L287.142 448.734L277.423 476.825L1.00012 383.5L31.334 293.483L83.4062 311.052L106.305 243.098L357.433 327.883L351.328 346H501V168H458V234H429V162H307V168H242V137H202V0Z" fill="#FDF9EF"/>
<path d="M202 0V-1H201V0H202ZM681 0H682V-1H681V0ZM681 69V70H682V69H681ZM587.402 69V68H586.402V69H587.402ZM587.402 137V138H588.402V137H587.402ZM555.974 137V136H554.974V137H555.974ZM555.974 168V169H556.974V168H555.974ZM538 168V167H537V168H538ZM538 346H537V347H538V346ZM579 346H580V345H579V346ZM579 410H578V411H579V410ZM623 410H624V409H623V410ZM623 489V490H624V489H623ZM407 489H406V490H407V489ZM407 443H408V442H407V443ZM318.641 443V442H317.923L317.693 442.681L318.641 443ZM313.688 457.697L313.368 458.645L314.316 458.965L314.636 458.016L313.688 457.697ZM287.142 448.734L287.461 447.787L286.521 447.469L286.197 448.407L287.142 448.734ZM277.423 476.825L277.103 477.773L278.044 478.09L278.368 477.152L277.423 476.825ZM1.00012 383.5L0.0524802 383.181L-0.266672 384.128L0.680244 384.447L1.00012 383.5ZM31.334 293.483L31.6537 292.535L30.7058 292.215L30.3864 293.163L31.334 293.483ZM83.4062 311.052L83.0865 312L84.0344 312.319L84.3539 311.371L83.4062 311.052ZM106.305 243.098L106.625 242.15L105.677 241.83L105.358 242.778L106.305 243.098ZM357.433 327.883L358.381 328.202L358.7 327.255L357.753 326.935L357.433 327.883ZM351.328 346L350.38 345.681L349.936 347H351.328V346ZM501 346V347H502V346H501ZM501 168H502V167H501V168ZM458 168V167H457V168H458ZM458 234V235H459V234H458ZM429 234H428V235H429V234ZM429 162H430V161H429V162ZM307 162V161H306V162H307ZM307 168V169H308V168H307ZM242 168H241V169H242V168ZM242 137H243V136H242V137ZM202 137H201V138H202V137ZM305.608 -1H202V1H305.608V-1ZM431.239 -1H305.608V1H431.239V-1ZM555.869 -1H431.239V1H555.869V-1ZM681 -1H555.869V1H681V-1ZM682 69V0H680V69H682ZM587.402 70H681V68H587.402V70ZM588.402 137V69H586.402V137H588.402ZM555.974 138H587.402V136H555.974V138ZM556.974 168V137H554.974V168H556.974ZM538 169H555.974V167H538V169ZM539 346V168H537V346H539ZM579 345H538V347H579V345ZM580 410V346H578V410H580ZM579 411H623V409H579V411ZM622 410V489H624V410H622ZM623 488H544V490H623V488ZM544 488H543V490H544V488ZM407 490H543V488H407V490ZM406 453V489H408V453H406ZM406 452V453H408V452H406ZM406 443V452H408V443H406ZM318.641 444H407V442H318.641V444ZM314.636 458.016L319.588 443.319L317.693 442.681L312.741 457.378L314.636 458.016ZM286.822 449.682L313.368 458.645L314.008 456.75L287.461 447.787L286.822 449.682ZM278.368 477.152L288.087 449.061L286.197 448.407L276.478 476.498L278.368 477.152ZM0.680244 384.447L277.103 477.773L277.743 475.878L1.32 382.553L0.680244 384.447ZM30.3864 293.163L0.0524802 383.181L1.94776 383.819L32.2817 293.802L30.3864 293.163ZM83.7259 310.105L31.6537 292.535L31.0143 294.43L83.0865 312L83.7259 310.105ZM105.358 242.778L82.4586 310.733L84.3539 311.371L107.253 243.417L105.358 242.778ZM357.753 326.935L106.625 242.15L105.986 244.045L357.113 328.83L357.753 326.935ZM352.275 346.319L358.381 328.202L356.485 327.563L350.38 345.681L352.275 346.319ZM501 345H351.328V347H501V345ZM500 168V346H502V168H500ZM458 169H501V167H458V169ZM459 234V168H457V234H459ZM429 235H458V233H429V235ZM428 162V234H430V162H428ZM307 163H429V161H307V163ZM308 168V162H306V168H308ZM242 169H307V167H242V169ZM241 137V168H243V137H241ZM202 138H242V136H202V138ZM201 0V137H203V0H201Z" fill="#CCCCCC" mask="url(#path-6-inside-1_293_742)"/>
<rect x="613.5" y="488.5" width="50" height="66" fill="#F1F3F4" stroke="#CCCCCC"/>
<rect x="721.5" y="437.5" width="26" height="48" fill="#F1F3F4" stroke="#CCCCCC"/>
<rect x="721.5" y="437.5" width="26" height="48" fill="#F1F3F4" stroke="#CCCCCC"/>
<rect x="202.5" y="134.5" width="40" height="33" fill="#F1F3F4" stroke="#CCCCCC"/>
<path d="M276.636 476.191L286.371 448.025L312.906 456.975L303.319 485.398L276.636 476.191Z" fill="#F1F3F4" stroke="#CCCCCC"/>
<rect x="747.5" y="437.5" width="19" height="23" fill="#D9D9D9" stroke="#CCCCCC"/>
<path d="M814.5 490.5V532.247L777.5 516.668V474.5H802.5V490V490.5H803H814.5Z" fill="#E0E5FF" stroke="#CCCCCC"/>
<path d="M747.5 485V474.5H777.5V516.682L736.5 500.271V485.5L747 485.5L747.5 485.5V485Z" fill="#E0E5FF" stroke="#CCCCCC"/>
<rect x="563.5" y="0.5" width="23" height="36" fill="#E0E5FF" stroke="#CCCCCC"/>
<rect x="586.5" y="0.5" width="26" height="36" fill="#E0E5FF" stroke="#CCCCCC"/>
<rect x="457.5" y="167.5" width="32" height="66" fill="#F1F3F4" stroke="#CCCCCC"/>
<rect x="586.5" y="68.5" width="32" height="68" fill="#F1F3F4" stroke="#CCCCCC"/>
<rect x="654.5" y="172.5" width="160" height="114" fill="#D9D9D9" stroke="#CCCCCC"/>
<rect x="686.5" y="313.5" width="128" height="97" fill="#D9D9D9" stroke="#CCCCCC"/>
<rect x="578.5" y="346.5" width="44" height="64" fill="#D9D9D9" stroke="#CCCCCC"/>
<rect x="686.5" y="286.5" width="128" height="27" fill="#D9D9D9" stroke="#CCCCCC"/>
<mask id="path-24-inside-2_293_742" fill="white">
<path fill-rule="evenodd" clip-rule="evenodd" d="M687 286H654V347H622V410V411V420V421V489H663V492H716.068L722 494.419V438H766V460H747V475H803V460H784V438H815V420H722H721H664H663H652V411H654H655H687V286Z"/>
</mask>
<path fill-rule="evenodd" clip-rule="evenodd" d="M687 286H654V347H622V410V411V420V421V489H663V492H716.068L722 494.419V438H766V460H747V475H803V460H784V438H815V420H722H721H664H663H652V411H654H655H687V286Z" fill="white"/>
<path d="M654 286V285H653V286H654ZM687 286H688V285H687V286ZM654 347V348H655V347H654ZM622 347V346H621V347H622ZM622 489H621V490H622V489ZM663 489H664V488H663V489ZM663 492H662V493H663V492ZM716.068 492L716.446 491.074L716.264 491H716.068V492ZM722 494.419L721.622 495.345L723 495.907V494.419H722ZM722 438V437H721V438H722ZM766 438H767V437H766V438ZM766 460V461H767V460H766ZM747 460V459H746V460H747ZM747 475H746V476H747V475ZM803 475V476H804V475H803ZM803 460H804V459H803V460ZM784 460H783V461H784V460ZM784 438V437H783V438H784ZM815 438V439H816V438H815ZM815 420H816V419H815V420ZM652 420H651V421H652V420ZM652 411V410H651V411H652ZM687 411V412H688V411H687ZM654 287H687V285H654V287ZM655 347V286H653V347H655ZM622 348H654V346H622V348ZM623 410V347H621V410H623ZM623 411V410H621V411H623ZM623 420V411H621V420H623ZM623 421V420H621V421H623ZM623 489V421H621V489H623ZM663 488H622V490H663V488ZM664 492V489H662V492H664ZM716.068 491H663V493H716.068V491ZM722.378 493.493L716.446 491.074L715.691 492.926L721.622 495.345L722.378 493.493ZM721 438V494.419H723V438H721ZM766 437H722V439H766V437ZM767 460V438H765V460H767ZM747 461H766V459H747V461ZM748 475V460H746V475H748ZM803 474H747V476H803V474ZM802 460V475H804V460H802ZM784 461H803V459H784V461ZM783 438V460H785V438H783ZM815 437H784V439H815V437ZM814 420V438H816V420H814ZM722 421H815V419H722V421ZM721 421H722V419H721V421ZM664 421H721V419H664V421ZM663 421H664V419H663V421ZM652 421H663V419H652V421ZM651 411V420H653V411H651ZM654 410H652V412H654V410ZM655 410H654V412H655V410ZM687 410H655V412H687V410ZM686 286V411H688V286H686Z" fill="#CCCCCC" mask="url(#path-24-inside-2_293_742)"/>
<rect x="618.5" y="68.5" width="123" height="68" fill="#FDF9EF" stroke="#CCCCCC"/>
<rect x="680.5" y="0.5" width="61" height="68" fill="#FDF9EF" stroke="#CCCCCC"/>
<rect x="554.5" y="0.5" width="9" height="43" fill="#D9D9D9" stroke="#CCCCCC"/>
<line x1="556.5" y1="119" x2="556.5" y2="83" stroke="#CCCCCC"/>
<line x1="556" y1="68.5" x2="587" y2="68.5" stroke="#CCCCCC"/>
<rect x="202.5" y="167.5" width="104" height="62" fill="#FDF9EF" stroke="#CCCCCC"/>
<rect x="202.5" y="0.5" width="87" height="43" fill="#D9D9D9" stroke="#CCCCCC"/>
<rect x="305.5" y="63.5" width="192" height="75" fill="#FDF9EF" stroke="#CCCCCC"/>
<rect x="490.5" y="0.5" width="64" height="43" fill="#FDF9EF" stroke="#CCCCCC"/>
<rect x="612.5" y="0.5" width="68" height="43" fill="#FDF9EF" stroke="#CCCCCC"/>
<mask id="path-36-inside-3_293_742" fill="white">
<path fill-rule="evenodd" clip-rule="evenodd" d="M248 63H202V135H247H248H290V113H248V63Z"/>
</mask>
<path fill-rule="evenodd" clip-rule="evenodd" d="M248 63H202V135H247H248H290V113H248V63Z" fill="#FDF9EF"/>
<path d="M202 63V62H201V63H202ZM248 63H249V62H248V63ZM202 135H201V136H202V135ZM290 135V136H291V135H290ZM290 113H291V112H290V113ZM248 113H247V114H248V113ZM202 64H248V62H202V64ZM203 135V63H201V135H203ZM247 134H202V136H247V134ZM248 134H247V136H248V134ZM290 134H248V136H290V134ZM289 113V135H291V113H289ZM248 114H290V112H248V114ZM247 63V113H249V63H247Z" fill="#CCCCCC" mask="url(#path-36-inside-3_293_742)"/>
<rect x="247.5" y="63.5" width="42" height="50" fill="#FDF9EF" stroke="#CCCCCC"/>
<rect x="79.2357" y="234.63" width="28.477" height="72" transform="rotate(18.6391 79.2357 234.63)" fill="#E0E5FF" stroke="#CCCCCC"/>
<rect x="54.1039" y="226.153" width="26.546" height="72" transform="rotate(18.6391 54.1039 226.153)" fill="#E0E5FF" stroke="#CCCCCC"/>
</svg>
