<svg width="363" height="611" viewBox="0 0 363 611" fill="none" xmlns="http://www.w3.org/2000/svg">
<rect x="110.5" y="610.5" width="57" height="131" transform="rotate(-90 110.5 610.5)" fill="white" stroke="#CCCCCC"/>
<mask id="path-2-inside-1_304_1158" fill="white">
<path fill-rule="evenodd" clip-rule="evenodd" d="M-5.72619e-06 423L0 554L211 554L211 424L211 423L211 407L211 406L211 327L129 327L129 179L93 179L92 179L-1.63918e-05 179L-1.32883e-05 250L69 250L69 305L88 305L88 348L59 348L59 374L92 374L92 406L31 406L31 423L-5.72619e-06 423Z"/>
</mask>
<path fill-rule="evenodd" clip-rule="evenodd" d="M-5.72619e-06 423L0 554L211 554L211 424L211 423L211 407L211 406L211 327L129 327L129 179L93 179L92 179L-1.63918e-05 179L-1.32883e-05 250L69 250L69 305L88 305L88 348L59 348L59 374L92 374L92 406L31 406L31 423L-5.72619e-06 423Z" fill="white"/>
<path d="M0 554L-1 554L-1 555L4.37114e-08 555L0 554ZM-5.72619e-06 423L-5.7699e-06 422L-1.00001 422L-1.00001 423L-5.72619e-06 423ZM211 554L211 555L212 555L212 554L211 554ZM211 327L212 327L212 326L211 326L211 327ZM129 327L128 327L128 328L129 328L129 327ZM129 179L130 179L130 178L129 178L129 179ZM-1.63918e-05 179L-1.64355e-05 178L-1.00002 178L-1.00002 179L-1.63918e-05 179ZM-1.32883e-05 250L-1.00001 250L-1.00001 251L-1.32446e-05 251L-1.32883e-05 250ZM69 250L70 250L70 249L69 249L69 250ZM69 305L68 305L68 306L69 306L69 305ZM88 305L89 305L89 304L88 304L88 305ZM88 348L88 349L89 349L89 348L88 348ZM59 348L59 347L58 347L58 348L59 348ZM59 374L58 374L58 375L59 375L59 374ZM92 374L93 374L93 373L92 373L92 374ZM92 406L92 407L93 407L93 406L92 406ZM31 406L31 405L30 405L30 406L31 406ZM31 423L31 424L32 424L32 423L31 423ZM1 554L0.999994 423L-1.00001 423L-1 554L1 554ZM211 553L-4.37114e-08 553L4.37114e-08 555L211 555L211 553ZM210 424L210 554L212 554L212 424L210 424ZM210 423L210 424L212 424L212 423L210 423ZM210 407L210 423L212 423L212 407L210 407ZM210 406L210 407L212 407L212 406L210 406ZM210 327L210 406L212 406L212 327L210 327ZM129 328L211 328L211 326L129 326L129 328ZM128 179L128 327L130 327L130 179L128 179ZM93 180L129 180L129 178L93 178L93 180ZM92 180L93 180L93 178L92 178L92 180ZM-1.63481e-05 180L92 180L92 178L-1.64355e-05 178L-1.63481e-05 180ZM0.999987 250L0.999984 179L-1.00002 179L-1.00001 250L0.999987 250ZM69 249L-1.3332e-05 249L-1.32446e-05 251L69 251L69 249ZM70 305L70 250L68 250L68 305L70 305ZM88 304L69 304L69 306L88 306L88 304ZM89 348L89 305L87 305L87 348L89 348ZM59 349L88 349L88 347L59 347L59 349ZM60 374L60 348L58 348L58 374L60 374ZM92 373L59 373L59 375L92 375L92 373ZM93 406L93 374L91 374L91 406L93 406ZM31 407L92 407L92 405L31 405L31 407ZM32 423L32 406L30 406L30 423L32 423ZM-5.68248e-06 424L31 424L31 422L-5.7699e-06 422L-5.68248e-06 424Z" fill="#CCCCCC" mask="url(#path-2-inside-1_304_1158)"/>
<rect x="56.5" y="339.5" width="35" height="32" transform="rotate(-90 56.5 339.5)" fill="#F1F3F4" stroke="#CCCCCC"/>
<rect x="241.5" y="582.5" width="29" height="40" transform="rotate(-90 241.5 582.5)" fill="#F1F3F4" stroke="#CCCCCC"/>
<rect x="280.5" y="609.5" width="56" height="35" transform="rotate(-90 280.5 609.5)" fill="#E6E6E6" stroke="#CCCCCC"/>
<mask id="path-7-inside-2_304_1158" fill="white">
<path fill-rule="evenodd" clip-rule="evenodd" d="M-7.43094e-07 407L0 424L32 424L32 407L60 407L60 378L-2.01072e-06 378L-7.86805e-07 406L-7.43094e-07 407Z"/>
</mask>
<path fill-rule="evenodd" clip-rule="evenodd" d="M-7.43094e-07 407L0 424L32 424L32 407L60 407L60 378L-2.01072e-06 378L-7.86805e-07 406L-7.43094e-07 407Z" fill="#E0E5FF"/>
<path d="M0 424L-1 424L-1 425L4.37114e-08 425L0 424ZM32 424L32 425L33 425L33 424L32 424ZM32 407L32 406L31 406L31 407L32 407ZM60 407L60 408L61 408L61 407L60 407ZM60 378L61 378L61 377L60 377L60 378ZM-2.01072e-06 378L-2.05444e-06 377L-1 377L-1 378L-2.01072e-06 378ZM1 424L0.999999 407L-1 407L-1 424L1 424ZM32 423L-4.37114e-08 423L4.37114e-08 425L32 425L32 423ZM31 407L31 424L33 424L33 407L31 407ZM60 406L32 406L32 408L60 408L60 406ZM59 378L59 407L61 407L61 378L59 378ZM-1.96701e-06 379L60 379L60 377L-2.05444e-06 377L-1.96701e-06 379ZM0.999999 406L0.999998 378L-1 378L-1 406L0.999999 406ZM0.999999 407L0.999999 406L-1 406L-1 407L0.999999 407Z" fill="#CCCCCC" mask="url(#path-7-inside-2_304_1158)"/>
<rect x="0.5" y="304.5" width="55" height="69" transform="rotate(-90 0.5 304.5)" fill="#F1F3F4" stroke="#CCCCCC"/>
<rect x="0.5" y="55.5" width="55" height="90" transform="rotate(-90 0.5 55.5)" fill="#F1F3F4" stroke="#CCCCCC"/>
<rect x="90.5" y="55.5" width="55" height="41" transform="rotate(-90 90.5 55.5)" fill="white" stroke="#CCCCCC"/>
<rect x="0.5" y="179.5" width="124" height="220" transform="rotate(-90 0.5 179.5)" fill="#FDF9EF" stroke="#CCCCCC"/>
<rect x="210.5" y="553.5" width="254" height="152" transform="rotate(-90 210.5 553.5)" fill="#FDF9EF" stroke="#CCCCCC"/>
<rect x="128.5" y="299.5" width="120" height="92" transform="rotate(-90 128.5 299.5)" fill="#E6E6E6" stroke="#CCCCCC"/>
<rect x="128.5" y="327.5" width="28" height="82" transform="rotate(-90 128.5 327.5)" fill="#E6E6E6" stroke="#CCCCCC"/>
<mask id="path-16-inside-3_304_1158" fill="white">
<path fill-rule="evenodd" clip-rule="evenodd" d="M0 379L-1.70474e-06 340L-1.74846e-06 339L-3.27835e-06 304L57 304L57 340L50 340L50 348L60 348L60 379L50 379L49 379L0 379Z"/>
</mask>
<path fill-rule="evenodd" clip-rule="evenodd" d="M0 379L-1.70474e-06 340L-1.74846e-06 339L-3.27835e-06 304L57 304L57 340L50 340L50 348L60 348L60 379L50 379L49 379L0 379Z" fill="#E0E5FF"/>
<path d="M0 379L-1 379L-1 380L4.37114e-08 380L0 379ZM-3.27835e-06 304L-3.32207e-06 303L-1 303L-1 304L-3.27835e-06 304ZM57 304L58 304L58 303L57 303L57 304ZM57 340L57 341L58 341L58 340L57 340ZM50 340L50 339L49 339L49 340L50 340ZM50 348L49 348L49 349L50 349L50 348ZM60 348L61 348L61 347L60 347L60 348ZM60 379L60 380L61 380L61 379L60 379ZM-1 340L-1 379L1 379L0.999998 340L-1 340ZM-1 339L-1 340L0.999998 340L0.999998 339L-1 339ZM-1 304L-1 339L0.999998 339L0.999997 304L-1 304ZM57 303L-3.32207e-06 303L-3.23464e-06 305L57 305L57 303ZM58 340L58 304L56 304L56 340L58 340ZM50 341L57 341L57 339L50 339L50 341ZM51 348L51 340L49 340L49 348L51 348ZM50 349L60 349L60 347L50 347L50 349ZM59 348L59 379L61 379L61 348L59 348ZM60 378L50 378L50 380L60 380L60 378ZM50 378L49 378L49 380L50 380L50 378ZM4.37114e-08 380L49 380L49 378L-4.37114e-08 378L4.37114e-08 380Z" fill="#CCCCCC" mask="url(#path-16-inside-3_304_1158)"/>
<rect x="59.5" y="406.5" width="33" height="33" transform="rotate(-90 59.5 406.5)" fill="#E0E5FF" stroke="#CCCCCC"/>
<rect x="49.5" y="348.5" width="9" height="39" transform="rotate(-90 49.5 348.5)" fill="#E6E6E6" stroke="#CCCCCC"/>
<mask id="path-20-inside-4_304_1158" fill="white">
<path d="M112 566L112 598L109 598L109 566L112 566Z"/>
</mask>
<path d="M112 566L112 598L109 598L109 566L112 566Z" fill="#CDF2FB"/>
<path d="M112 597L109 597L109 599L112 599L112 597ZM109 567L112 567L112 565L109 565L109 567Z" fill="#CCCCCC" mask="url(#path-20-inside-4_304_1158)"/>
<mask id="path-22-inside-5_304_1158" fill="white">
<path d="M182 555L150 555L150 552L182 552L182 555Z"/>
</mask>
<path d="M182 555L150 555L150 552L182 552L182 555Z" fill="#CDF2FB"/>
<path d="M151 555L151 552L149 552L149 555L151 555ZM181 552L181 555L183 555L183 552L181 552Z" fill="#CCCCCC" mask="url(#path-22-inside-5_304_1158)"/>
<line x1="69" y1="249.5" x2="89" y2="249.5" stroke="#CCCCCC"/>
</svg>
