<svg width="363" height="611" viewBox="0 0 363 611" fill="none" xmlns="http://www.w3.org/2000/svg">
<mask id="path-1-inside-1_304_1164" fill="white">
<path fill-rule="evenodd" clip-rule="evenodd" d="M69 250L51 250L-1.57798e-05 250L-1.73534e-05 214L-5.11423e-06 190L51 190L51 214L92 214L92 56L90 56L90 -3.93403e-06L132 -5.7699e-06L132 56L129 56L129 327L211 327L211 423L211 424L211 553L242 553L242 611L138 611L138 553L173 553L173 424L88 424L88 328L87 328L87 305L69 305L69 250Z"/>
</mask>
<path fill-rule="evenodd" clip-rule="evenodd" d="M69 250L51 250L-1.57798e-05 250L-1.73534e-05 214L-5.11423e-06 190L51 190L51 214L92 214L92 56L90 56L90 -3.93403e-06L132 -5.7699e-06L132 56L129 56L129 327L211 327L211 423L211 424L211 553L242 553L242 611L138 611L138 553L173 553L173 424L88 424L88 328L87 328L87 305L69 305L69 250Z" fill="white"/>
<path d="M51 250L51 251L51 250ZM69 250L70 250L70 249L69 249L69 250ZM-1.57798e-05 250L-1.00002 250L-1.00002 251L-1.57361e-05 251L-1.57798e-05 250ZM-1.73534e-05 214L-1.00002 214L-1.00002 214L-1.73534e-05 214ZM-5.11423e-06 190L-5.15794e-06 189L-1 189L-1.00001 190L-5.11423e-06 190ZM51 190L52 190L52 189L51 189L51 190ZM51 214L50 214L50 215L51 215L51 214ZM92 214L92 215L93 215L93 214L92 214ZM92 56L93 56L93 55L92 55L92 56ZM90 56L89 56L89 57L90 57L90 56ZM90 -3.93403e-06L90 -1L89 -1L89 -3.89031e-06L90 -3.93403e-06ZM132 -5.7699e-06L133 -5.81362e-06L133 -1.00001L132 -1.00001L132 -5.7699e-06ZM132 56L132 57L133 57L133 56L132 56ZM129 56L129 55L128 55L128 56L129 56ZM129 327L128 327L128 328L129 328L129 327ZM211 327L212 327L212 326L211 326L211 327ZM211 423L210 423L210 423L211 423ZM211 424L212 424L212 424L211 424ZM211 553L210 553L210 554L211 554L211 553ZM242 553L243 553L243 552L242 552L242 553ZM242 611L242 612L243 612L243 611L242 611ZM138 611L137 611L137 612L138 612L138 611ZM138 553L138 552L137 552L137 553L138 553ZM173 553L173 554L174 554L174 553L173 553ZM173 424L174 424L174 423L173 423L173 424ZM88 424L87 424L87 425L88 425L88 424ZM88 328L89 328L89 327L88 327L88 328ZM87 328L86 328L86 329L87 329L87 328ZM87 305L88 305L88 304L87 304L87 305ZM69 305L68 305L68 306L69 306L69 305ZM51 251L69 251L69 249L51 249L51 251ZM-1.57361e-05 251L51 251L51 249L-1.58235e-05 249L-1.57361e-05 251ZM-1.00002 214L-1.00002 250L0.999984 250L0.999983 214L-1.00002 214ZM-1.00001 190L-1.00002 214L0.999983 214L0.999995 190L-1.00001 190ZM51 189L-5.15794e-06 189L-5.07052e-06 191L51 191L51 189ZM52 214L52 190L50 190L50 214L52 214ZM92 213L51 213L51 215L92 215L92 213ZM91 56L91 214L93 214L93 56L91 56ZM92 55L90 55L90 57L92 57L92 55ZM91 56L91 -3.97774e-06L89 -3.89031e-06L89 56L91 56ZM90 0.999996L132 0.999994L132 -1.00001L90 -1L90 0.999996ZM131 -5.72619e-06L131 56L133 56L133 -5.81362e-06L131 -5.72619e-06ZM132 55L129 55L129 57L132 57L132 55ZM130 327L130 56L128 56L128 327L130 327ZM211 326L129 326L129 328L211 328L211 326ZM212 423L212 327L210 327L210 423L212 423ZM212 424L212 423L210 423L210 424L212 424ZM212 553L212 424L210 424L210 553L212 553ZM242 552L211 552L211 554L242 554L242 552ZM243 611L243 553L241 553L241 611L243 611ZM138 612L242 612L242 610L138 610L138 612ZM137 553L137 611L139 611L139 553L137 553ZM173 552L138 552L138 554L173 554L173 552ZM172 424L172 553L174 553L174 424L172 424ZM88 425L173 425L173 423L88 423L88 425ZM87 328L87 424L89 424L89 328L87 328ZM87 329L88 329L88 327L87 327L87 329ZM86 305L86 328L88 328L88 305L86 305ZM69 306L87 306L87 304L69 304L69 306ZM68 250L68 305L70 305L70 250L68 250Z" fill="#CCCCCC" mask="url(#path-1-inside-1_304_1164)"/>
<rect x="56.5" y="339.5" width="35" height="32" transform="rotate(-90 56.5 339.5)" fill="#F1F3F4" stroke="#CCCCCC"/>
<rect x="241.5" y="610.5" width="57" height="74" transform="rotate(-90 241.5 610.5)" fill="#F1F3F4" stroke="#CCCCCC"/>
<rect x="0.5" y="304.5" width="55" height="69" transform="rotate(-90 0.5 304.5)" fill="#F1F3F4" stroke="#CCCCCC"/>
<rect x="0.5" y="55.5" width="55" height="90" transform="rotate(-90 0.5 55.5)" fill="#F1F3F4" stroke="#CCCCCC"/>
<rect x="0.5" y="179.5" width="124" height="92" transform="rotate(-90 0.5 179.5)" fill="#E6E6E6" stroke="#CCCCCC"/>
<rect x="128.5" y="117.5" width="62" height="92" transform="rotate(-90 128.5 117.5)" fill="#E6E6E6" stroke="#CCCCCC"/>
<rect x="128.5" y="179.5" width="62" height="92" transform="rotate(-90 128.5 179.5)" fill="#E6E6E6" stroke="#CCCCCC"/>
<rect x="210.5" y="553.5" width="254" height="152" transform="rotate(-90 210.5 553.5)" fill="#FDF9EF" stroke="#CCCCCC"/>
<rect x="0.5" y="553.5" width="130" height="173" transform="rotate(-90 0.5 553.5)" fill="#FDF9EF" stroke="#CCCCCC"/>
<rect x="128.5" y="299.5" width="120" height="92" transform="rotate(-90 128.5 299.5)" fill="#E6E6E6" stroke="#CCCCCC"/>
<rect x="128.5" y="327.5" width="28" height="82" transform="rotate(-90 128.5 327.5)" fill="#E6E6E6" stroke="#CCCCCC"/>
<rect x="0.5" y="190.5" width="11" height="50" transform="rotate(-90 0.5 190.5)" fill="#E6E6E6" stroke="#CCCCCC"/>
<rect x="50.5" y="214.5" width="35" height="42" transform="rotate(-90 50.5 214.5)" fill="#E6E6E6" stroke="#CCCCCC"/>
<mask id="path-16-inside-2_304_1164" fill="white">
<path fill-rule="evenodd" clip-rule="evenodd" d="M3.27835e-06 379L0 304H49L50 304L57 304L57 340H50V348H61H78V356H89V374H61V379H50H49H3.27835e-06Z"/>
</mask>
<path fill-rule="evenodd" clip-rule="evenodd" d="M3.27835e-06 379L0 304H49L50 304L57 304L57 340H50V348H61H78V356H89V374H61V379H50H49H3.27835e-06Z" fill="#E0E5FF"/>
<path d="M0 304V303H-1L-1 304L0 304ZM3.27835e-06 379L-0.999997 379L-0.999997 380H3.27835e-06V379ZM49 304L49 305L49 305L49 304ZM50 304L50 303L50 303L50 304ZM57 304L58 304L58 303L57 303L57 304ZM57 340V341H58L58 340L57 340ZM50 340V339H49V340H50ZM50 348H49V349H50V348ZM78 348H79V347H78V348ZM78 356H77V357H78V356ZM89 356H90V355H89V356ZM89 374V375H90V374H89ZM61 374V373H60V374H61ZM61 379V380H62V379H61ZM-1 304L-0.999997 379L1 379L1 304L-1 304ZM49 303H0V305H49V303ZM50 303L49 303L49 305L50 305L50 303ZM57 303L50 303L50 305L57 305L57 303ZM58 340L58 304L56 304L56 340L58 340ZM50 341H57V339H50V341ZM51 348V340H49V348H51ZM61 347H50V349H61V347ZM61 349H78V347H61V349ZM77 348V356H79V348H77ZM89 355H78V357H89V355ZM90 374V356H88V374H90ZM61 375H89V373H61V375ZM62 379V374H60V379H62ZM50 380H61V378H50V380ZM49 380H50V378H49V380ZM3.27835e-06 380H49V378H3.27835e-06V380Z" fill="#CCCCCC" mask="url(#path-16-inside-2_304_1164)"/>
<mask id="path-18-inside-3_304_1164" fill="white">
<path fill-rule="evenodd" clip-rule="evenodd" d="M89 379V424L2.01072e-06 424L0 378L60 378V373H89V378V379Z"/>
</mask>
<path fill-rule="evenodd" clip-rule="evenodd" d="M89 379V424L2.01072e-06 424L0 378L60 378V373H89V378V379Z" fill="#E0E5FF"/>
<path d="M89 424L89 425L90 425V424H89ZM2.01072e-06 424L-0.999998 424L-0.999998 425L2.05359e-06 425L2.01072e-06 424ZM0 378L-3.97364e-08 377L-1 377L-1 378L0 378ZM60 378L60 379L61 379V378H60ZM60 373V372H59V373H60ZM89 373H90V372H89V373ZM88 379V424H90V379H88ZM89 423L1.96786e-06 423L2.05359e-06 425L89 425L89 423ZM1 424L1 378L-1 378L-0.999998 424L1 424ZM3.97364e-08 379L60 379L60 377L-3.97364e-08 377L3.97364e-08 379ZM61 378V373H59V378H61ZM60 374H89V372H60V374ZM88 373V378H90V373H88ZM88 378V379H90V378H88Z" fill="#CCCCCC" mask="url(#path-18-inside-3_304_1164)"/>
<rect x="49.5" y="348.5" width="9" height="39" transform="rotate(-90 49.5 348.5)" fill="#E6E6E6" stroke="#CCCCCC"/>
<mask id="path-21-inside-4_304_1164" fill="white">
<path fill-rule="evenodd" clip-rule="evenodd" d="M49 339V349H77V357H89V349V339H49Z"/>
</mask>
<path fill-rule="evenodd" clip-rule="evenodd" d="M49 339V349H77V357H89V349V339H49Z" fill="#E6E6E6"/>
<path d="M49 349H48V350H49V349ZM49 339V338H48V339H49ZM77 349H78V348H77V349ZM77 357H76V358H77V357ZM89 357V358H90V357H89ZM89 339H90V338H89V339ZM50 349V339H48V349H50ZM77 348H49V350H77V348ZM76 349V357H78V349H76ZM77 358H89V356H77V358ZM90 357V349H88V357H90ZM88 339V349H90V339H88ZM49 340H89V338H49V340Z" fill="#CCCCCC" mask="url(#path-21-inside-4_304_1164)"/>
<line x1="69" y1="249.5" x2="89" y2="249.5" stroke="#CCCCCC"/>
</svg>
