<svg width="300" height="514" viewBox="0 0 300 514" fill="none" xmlns="http://www.w3.org/2000/svg">
<rect x="0.5" y="320.5" width="320" height="299" transform="rotate(-90 0.5 320.5)" fill="#FDF9EF" stroke="#CCCCCC"/>
<mask id="path-2-inside-1_297_950" fill="white">
<path fill-rule="evenodd" clip-rule="evenodd" d="M-1.44963e-06 480L-4.72083e-06 405.164L-4.85912e-06 402L-8.4363e-06 320.164L75 320.164L75 402L268 402L268 320.164L300 320.164L300 402L300 403.164L300 480C182.841 523.432 117.156 524.998 -1.44963e-06 480Z"/>
</mask>
<path fill-rule="evenodd" clip-rule="evenodd" d="M-1.44963e-06 480L-4.72083e-06 405.164L-4.85912e-06 402L-8.4363e-06 320.164L75 320.164L75 402L268 402L268 320.164L300 320.164L300 402L300 403.164L300 480C182.841 523.432 117.156 524.998 -1.44963e-06 480Z" fill="white"/>
<path d="M-1.44963e-06 480L-1 480L-1 480.688L-0.358547 480.934L-1.44963e-06 480ZM-8.4363e-06 320.164L-8.48001e-06 319.164L-1.00001 319.164L-1.00001 320.164L-8.4363e-06 320.164ZM75 320.164L76 320.164L76 319.164L75 319.164L75 320.164ZM75 402L74 402L74 403L75 403L75 402ZM268 402L268 403L269 403L269 402L268 402ZM268 320.164L268 319.164L267 319.164L267 320.164L268 320.164ZM300 320.164L301 320.164L301 319.164L300 319.164L300 320.164ZM300 480L300.348 480.938L301 480.696L301 480L300 480ZM-1 405.164L-1 480L0.999999 480L0.999995 405.164L-1 405.164ZM-1 402L-1 405.164L0.999995 405.164L0.999995 402L-1 402ZM-1.00001 320.164L-1 402L0.999995 402L0.999992 320.164L-1.00001 320.164ZM75 319.164L-8.48001e-06 319.164L-8.39259e-06 321.164L75 321.164L75 319.164ZM76 402L76 320.164L74 320.164L74 402L76 402ZM268 401L75 401L75 403L268 403L268 401ZM269 402L269 320.164L267 320.164L267 402L269 402ZM268 321.164L300 321.164L300 319.164L268 319.164L268 321.164ZM299 320.164L299 402L301 402L301 320.164L299 320.164ZM299 402L299 403.164L301 403.164L301 402L299 402ZM301 480L301 403.164L299 403.164L299 480L301 480ZM-0.358547 480.934C58.2791 503.456 104.12 514.358 150.003 514.161C195.883 513.965 241.72 502.672 300.348 480.938L299.652 479.063C241.121 500.761 195.537 511.966 149.995 512.161C104.457 512.356 58.8768 501.543 0.358544 479.067L-0.358547 480.934Z" fill="#CCCCCC" mask="url(#path-2-inside-1_297_950)"/>
<rect x="149" y="403" width="83" height="120" transform="rotate(-90 149 403)" fill="#F1F3F4"/>
<rect x="149.5" y="402.5" width="82" height="119" transform="rotate(-90 149.5 402.5)" stroke="#CCCCCC" stroke-opacity="0.8"/>
<rect x="74" y="403" width="83" height="76" transform="rotate(-90 74 403)" fill="#E0E5FF"/>
<rect x="74.5" y="402.5" width="82" height="75" transform="rotate(-90 74.5 402.5)" stroke="#CCCCCC" stroke-opacity="0.8"/>
</svg>
