<svg width="422" height="422" viewBox="0 0 422 422" fill="none" xmlns="http://www.w3.org/2000/svg">
<mask id="path-1-inside-1_266_166" fill="white">
<path fill-rule="evenodd" clip-rule="evenodd" d="M95 112L95 139L134 139L134 112L159 112L159 28L95 28L95 111L95 112Z"/>
</mask>
<path fill-rule="evenodd" clip-rule="evenodd" d="M95 112L95 139L134 139L134 112L159 112L159 28L95 28L95 111L95 112Z" fill="#E6E6E6"/>
<path d="M95 139L94 139L94 140L95 140L95 139ZM134 139L134 140L135 140L135 139L134 139ZM134 112L134 111L133 111L133 112L134 112ZM159 112L159 113L160 113L160 112L159 112ZM159 28L160 28L160 27L159 27L159 28ZM95 28L95 27L94 27L94 28L95 28ZM96 139L96 112L94 112L94 139L96 139ZM134 138L95 138L95 140L134 140L134 138ZM133 112L133 139L135 139L135 112L133 112ZM159 111L134 111L134 113L159 113L159 111ZM158 28L158 112L160 112L160 28L158 28ZM95 29L159 29L159 27L95 27L95 29ZM96 111L96 28L94 28L94 111L96 111ZM96 112L96 111L94 111L94 112L96 112Z" fill="#CCCCCC" mask="url(#path-1-inside-1_266_166)"/>
<rect x="133.5" y="138.5" width="27" height="25" transform="rotate(-90 133.5 138.5)" fill="#F1F3F4" stroke="#CCCCCC"/>
<path d="M231.5 390L231.5 326.5L255.5 326.5L255.5 390L255.5 390.5L256 390.5L283.5 390.5L283.5 399.79L261.296 421.5L253.207 421.5L231.5 399.793L231.5 390Z" fill="#F1F3F4" stroke="#CCCCCC"/>
<path d="M32 190.5L95.5 190.5L95.5 166.5L32 166.5L31.5 166.5L31.5 166L31.5 138.5L22.2104 138.5L0.499997 160.704L0.499998 168.793L22.2071 190.5L32 190.5Z" fill="#F1F3F4" stroke="#CCCCCC"/>
<rect x="367.5" y="138.5" width="21" height="26" transform="rotate(-90 367.5 138.5)" fill="#E6E6E6" stroke="#CCCCCC"/>
<rect x="283.5" y="54.5" width="26" height="21" transform="rotate(-90 283.5 54.5)" fill="#E6E6E6" stroke="#CCCCCC"/>
<rect x="312.5" y="358.5" width="32" height="49" transform="rotate(-90 312.5 358.5)" fill="#E0E5FF" stroke="#CECFD2"/>
<rect x="299.5" y="389.5" width="31" height="62" transform="rotate(-90 299.5 389.5)" fill="#E0E5FF" stroke="#CECFD2"/>
<rect x="259.5" y="390.5" width="32" height="24" transform="rotate(-90 259.5 390.5)" fill="#E0E5FF" stroke="#CECFD2"/>
<path d="M284 326.5L312.5 326.5L312.5 358.5L260 358.5L259.5 358.5L259.5 359L259.5 390.5L255.5 390.5L255.5 359L255.5 358L255.5 327L255.5 326.5L255 326.5L95.5 326.5L95.5 167L95.5 166.5L95 166.5L31.5 166.5L31.5 138.5L64 138.5L64.5 138.5L64.5 138L64.5 122.5L95.5 122.5L95.5 138L95.5 138.5L96 138.5L236 138.5L236.207 138.5L236.354 138.354L283.354 91.3535L283.5 91.2071L283.5 91L283.5 54.5L304.5 54.5L304.5 117L304.5 117.5L305 117.5L367.5 117.5L367.5 138.5L330 138.5L329.793 138.5L329.646 138.646L283.646 184.646L283.5 184.793L283.5 185L283.5 326L283.5 326.5L284 326.5Z" fill="white" stroke="#CCCCCC"/>
<rect x="169.5" y="353.5" width="27" height="41" transform="rotate(-90 169.5 353.5)" fill="white" stroke="#CCCCCC"/>
<rect x="283.5" y="326.5" width="41" height="21" transform="rotate(-90 283.5 326.5)" fill="white" stroke="#CCCCCC"/>
<rect x="32.5" y="122.5" width="110" height="63" transform="rotate(-90 32.5 122.5)" fill="#FDF9EF" stroke="#E9DFC9"/>
<path d="M171.5 12L171.5 0.499999L283.5 0.499995L283.5 90.7929L235.793 138.5L158.5 138.5L158.5 12.5L171 12.5L171.5 12.5L171.5 12Z" fill="#FDF9EF" stroke="#E9DFC9"/>
<path d="M330.545 138.5L421.5 138.5L421.5 264.413L408.906 264.413L408.406 264.413L408.406 264.913L408.406 276.5L283.5 276.5L283.5 184.544L330.545 138.5Z" fill="#FDF9EF" stroke="#E9DFC9"/>
<rect x="304.5" y="117.5" width="89" height="89" transform="rotate(-90 304.5 117.5)" fill="#FDF9EF" stroke="#E9DFC9"/>
<path d="M64 138.5L64.5 138.5L64.5 138L64.5 123L64.5 122.5L64 122.5L32.5 122.5L32.5 12.5L95.5 12.5L95.5 28L95.5 28.5L96 28.5L158 28.5L158.5 28.5L158.5 28L158.5 12.5L171 12.5L171.5 12.5L171.5 12L171.5 0.499993L283.5 0.499988L283.5 28L283.5 28.5L284 28.5L304 28.5L305 28.5L393.5 28.5L393.5 117L393.5 118L393.5 138L393.5 138.5L394 138.5L421.5 138.5L421.5 264.413L408.906 264.413L408.406 264.413L408.406 264.913L408.406 276.5L284 276.5L283.5 276.5L283.5 277L283.5 285L283.5 285.5L284 285.5L304.5 285.5L304.5 326L304.5 326.5L305 326.5L313 326.5L337.5 326.5L361.5 326.5L361.5 358L361.5 359L361.5 389.5L299.5 389.5L299.5 359L299.5 358.5L299 358.5L284 358.5L283.5 358.5L283.5 359L283.5 390L283.5 391L283.5 399.79L261.296 421.5L253.207 421.5L231.5 399.793L231.5 390L231.5 327L231.5 326.5L231 326.5L211 326.5L210.5 326.5L210.5 327L210.5 353.5L169.5 353.5L169.5 327L169.5 326.5L169 326.5L95.5 326.5L95.5 191L95.5 190.5L95 190.5L32 190.5L22.2071 190.5L0.499989 168.793L0.499989 160.704L22.2104 138.5L31 138.5L32 138.5L64 138.5Z" stroke="#CCCCCC"/>
</svg>
