<svg width="422" height="422" viewBox="0 0 422 422" fill="none" xmlns="http://www.w3.org/2000/svg">
<rect x="133.5" y="138.5" width="27" height="25" transform="rotate(-90 133.5 138.5)" fill="#F1F3F4" stroke="#CCCCCC"/>
<path d="M283.5 390L283.5 358.5L231.5 358.5L231.5 399.79L253.704 421.5L261.793 421.5L283.5 399.793L283.5 390Z" fill="#F1F3F4" stroke="#CCCCCC"/>
<path d="M0.5 160.22L24.1945 138.5L64.5 138.5V191.5H24.204L0.5 168.29V160.22Z" fill="#F1F3F4" stroke="#CCCCCC"/>
<rect x="331.5" y="388.5" width="47" height="29" transform="rotate(-90 331.5 388.5)" fill="#E0E5FF" stroke="#CECFD2"/>
<rect x="283.5" y="327.5" width="22" height="24" transform="rotate(-90 283.5 327.5)" fill="#F1F3F4" stroke="#CECFD2"/>
<rect x="94.5" y="138.5" width="27" height="22" transform="rotate(-90 94.5 138.5)" fill="#F1F3F4" stroke="#CECFD2"/>
<rect x="298.5" y="388.5" width="61" height="33" transform="rotate(-90 298.5 388.5)" fill="#E0E5FF" stroke="#CECFD2"/>
<path d="M331.5 328L331.5 327.5L331 327.5L307.5 327.5L307.5 264.5L331 264.5L360.5 264.5L360.5 328L360.5 341.5L331.5 341.5L331.5 328Z" fill="white" stroke="#CCCCCC"/>
<path d="M84.5 378.5L95.5 378.5L95.5 389.5L84.5 389.5L33.5 389.5L33.5 378L33.5 326.5L43.5 326.5L43.5 338L43.5 338.209L43.6486 338.356L84.1487 378.356L84.2947 378.5L84.5 378.5Z" fill="#E6E6E6" stroke="#CCCCCC"/>
<path d="M355.5 25.5L344.5 25.5L344.5 14.5L355.5 14.5L406.5 14.5L406.5 26L406.5 77.5L396.5 77.5L396.5 66L396.5 65.7911L396.351 65.6443L355.851 25.6443L355.705 25.5L355.5 25.5Z" fill="#E6E6E6" stroke="#CCCCCC"/>
<rect x="94.5" y="111.5" width="53" height="64" transform="rotate(-90 94.5 111.5)" fill="white" stroke="#CCCCCC"/>
<path d="M33.5 123.5L33.5 8.20711L38.7071 3L90.2631 3L94.5 8.17848L94.5 123.5L33.5 123.5Z" fill="#E6E6E6" stroke="#CCCCCC"/>
<rect x="94.5" y="58.5" width="29" height="64" transform="rotate(-90 94.5 58.5)" fill="#E6E6E6" stroke="#CCCCCC"/>
<rect x="360.5" y="306.5" width="42" height="29" transform="rotate(-90 360.5 306.5)" fill="#E6E6E6" stroke="#CCCCCC"/>
<path d="M360.5 368.5L360.5 305.5L401.781 305.5L407.498 311.693L407.002 363.291L401.793 368.5L360.5 368.5Z" fill="#E6E6E6" stroke="#CCCCCC"/>
<path d="M94.5 138L94.5 138.5L95 138.5L116 138.5L116.5 138.5L116.5 138L116.5 111.5L133.5 111.5L133.5 138L133.5 138.5L134 138.5L158.5 138.5L158.5 139.5L158.5 139.707L158.646 139.853L282.646 264.353L282.792 264.5L283 264.5L284 264.5L307.5 264.5L307.5 305.5L284 305.5L283.5 305.5L283.5 306L283.5 327L283.5 327.5L284 327.5L298.5 327.5L298.5 358.5L231.5 358.5L231.5 327L231.5 326.5L231 326.5L219.5 326.5L219.5 265L219.5 264.796L219.358 264.651L157.864 201.651L157.717 201.5L157.506 201.5L95.4961 201.5L95.4219 191.996L95.418 191.5L94.9219 191.5L64.5 191.5L64.5 123.5L94.5 123.5L94.5 138Z" fill="white" stroke="#CCCCCC"/>
<path d="M43.5 327L43.5 326.5L43 326.5L33.5 326.5L33.5 201.5L157.789 201.5L219.5 264.704L219.5 389.5L95.5 389.5L95.5 379L95.5 378.5L95 378.5L84.2053 378.5L43.5 338.291L43.5 327Z" fill="#FDF9EF" stroke="#E9DFC9"/>
<path d="M396.5 77L396.5 77.5L397 77.5L406.5 77.5L406.5 264.5L282.208 264.5L158.5 139.794L158.5 14.5L344.5 14.5L344.5 25L344.5 25.5L345 25.5L355.795 25.5L396.5 65.709L396.5 77Z" fill="#FDF9EF" stroke="#E9DFC9"/>
<path d="M219.5 327L219.5 389.5L96 389.5L95 389.5L84.5 389.5L33.5 389.5L33.5 378L33.5 327L33.5 326L33.5 201.5L94.9922 201.5L95.4961 201.5L95.4922 200.996L95.4218 191.996L95.418 191.5L94.9219 191.5L65 191.5L24.204 191.5L0.499989 168.29L0.499989 160.22L24.1945 138.5L64 138.5L64.5 138.5L64.5 138L64.5 124L64.5 123.5L64 123.5L33.5 123.5L33.5 8.20709L38.7071 3L90.263 3L94.5 8.17846L94.5 29L94.5 29.5L95 29.5L158 29.5L158.5 29.5L158.5 29L158.5 14.5L344 14.5L355.5 14.5L406.5 14.5L406.5 26L406.5 77L406.5 78L406.5 264.5L390 264.5L389.5 264.5L389.5 265L389.5 305L389.5 305.5L390 305.5L401.781 305.5L407.498 311.693L407.002 363.291L401.793 368.5L361 368.5L360.5 368.5L360.5 369L360.5 388.5L332 388.5L331 388.5L298.5 388.5L298.5 359L298.5 358.5L298 358.5L284 358.5L283.5 358.5L283.5 359L283.5 390L283.5 399.793L261.793 421.5L253.704 421.5L231.5 399.79L231.5 359L231.5 358L231.5 327L231.5 326.5L231 326.5L220 326.5L219.5 326.5L219.5 327Z" stroke="#CCCCCC"/>
<line x1="58" y1="299.5" x2="176" y2="299.5" stroke="black"/>
<line x1="119.5" y1="271" x2="119.5" y2="335" stroke="black"/>
</svg>
