<svg width="868" height="628" viewBox="0 0 868 628" fill="none" xmlns="http://www.w3.org/2000/svg">
<path d="M57.0472 301.5L0.5 383.396L0.500007 301.5L57.0472 301.5Z" fill="#E6E6E6" stroke="#CCCCCC"/>
<mask id="path-2-inside-1_304_1116" fill="white">
<path fill-rule="evenodd" clip-rule="evenodd" d="M0 628L227 628L227 356L194 323L172 301L56.5909 301L2.13312e-05 384L0 628Z"/>
</mask>
<path fill-rule="evenodd" clip-rule="evenodd" d="M0 628L227 628L227 356L194 323L172 301L56.5909 301L2.13312e-05 384L0 628Z" fill="#FDF9EF"/>
<path d="M227 628L227 629L228 629L228 628L227 628ZM0 628L-1 628L-1 629L-8.74228e-08 629L0 628ZM227 356L228 356L228 355.586L227.707 355.293L227 356ZM172 301L172.707 300.293L172.414 300L172 300L172 301ZM56.5909 301L56.5909 300L56.0624 300L55.7647 300.437L56.5909 301ZM2.13312e-05 384L-0.826206 383.437L-0.999979 383.692L-0.999979 384L2.13312e-05 384ZM227 627L8.74228e-08 627L-8.74228e-08 629L227 629L227 627ZM226 356L226 628L228 628L228 356L226 356ZM227.707 355.293L194.707 322.293L193.293 323.707L226.293 356.707L227.707 355.293ZM194.707 322.293L172.707 300.293L171.293 301.707L193.293 323.707L194.707 322.293ZM56.5909 302L172 302L172 300L56.5909 300L56.5909 302ZM0.826249 384.563L57.4172 301.563L55.7647 300.437L-0.826206 383.437L0.826249 384.563ZM1 628L1.00002 384L-0.999979 384L-1 628L1 628Z" fill="#CCCCCC" mask="url(#path-2-inside-1_304_1116)"/>
<mask id="path-4-inside-2_304_1116" fill="white">
<path d="M227 301L227 357L171 301L227 301Z"/>
</mask>
<path d="M227 301L227 357L171 301L227 301Z" fill="#E6E6E6"/>
<path d="M227 357L226.293 357.707L228 359.414L228 357L227 357ZM227 301L228 301L228 300L227 300L227 301ZM171 301L171 300L168.586 300L170.293 301.707L171 301ZM228 357L228 301L226 301L226 357L228 357ZM227 300L171 300L171 302L227 302L227 300ZM170.293 301.707L226.293 357.707L227.707 356.293L171.707 300.293L170.293 301.707Z" fill="#CCCCCC" mask="url(#path-4-inside-2_304_1116)"/>
<mask id="path-6-inside-3_304_1116" fill="white">
<path fill-rule="evenodd" clip-rule="evenodd" d="M373 628L542 628L542 389L542 388L542 340L386 340L386 388L373 388L373 628Z"/>
</mask>
<path fill-rule="evenodd" clip-rule="evenodd" d="M373 628L542 628L542 389L542 388L542 340L386 340L386 388L373 388L373 628Z" fill="#FDF9EF"/>
<path d="M542 628L542 629L543 629L543 628L542 628ZM373 628L372 628L372 629L373 629L373 628ZM542 340L543 340L543 339L542 339L542 340ZM386 340L386 339L385 339L385 340L386 340ZM386 388L386 389L387 389L387 388L386 388ZM373 388L373 387L372 387L372 388L373 388ZM542 627L373 627L373 629L542 629L542 627ZM541 389L541 628L543 628L543 389L541 389ZM541 388L541 389L543 389L543 388L541 388ZM541 340L541 388L543 388L543 340L541 340ZM386 341L542 341L542 339L386 339L386 341ZM387 388L387 340L385 340L385 388L387 388ZM373 389L386 389L386 387L373 387L373 389ZM374 628L374 388L372 388L372 628L374 628Z" fill="#CCCCCC" mask="url(#path-6-inside-3_304_1116)"/>
<path d="M541.5 340.5L541.5 388.833L490.75 340.5L541.5 340.5Z" fill="#E6E6E6" stroke="#CCCCCC"/>
<path d="M386.5 340.5L386.5 384.774L429.811 340.5L386.5 340.5Z" fill="#E6E6E6" stroke="#CCCCCC"/>
<line x1="373" y1="589.5" x2="427" y2="589.5" stroke="#CCCCCC"/>
<rect x="386.5" y="388.5" width="86" height="100" transform="rotate(-180 386.5 388.5)" fill="#E0E5FF" stroke="#CCCCCC"/>
<rect x="325.5" y="260.5" width="47" height="51" transform="rotate(-180 325.5 260.5)" fill="#E0E5FF" stroke="#CCCCCC"/>
<rect x="426.5" y="227.5" width="46" height="39" transform="rotate(-180 426.5 227.5)" fill="#F1F3F4" stroke="#CCCCCC"/>
<rect x="533.5" y="295.5" width="32" height="103" transform="rotate(-180 533.5 295.5)" fill="#F1F3F4" stroke="#CCCCCC"/>
<rect x="533.5" y="192.5" width="67" height="17" transform="rotate(-180 533.5 192.5)" fill="#E6E6E6" stroke="#CCCCCC"/>
<rect x="867.5" y="295.5" width="334" height="120" transform="rotate(-180 867.5 295.5)" fill="#E6E6E6" stroke="#CCCCCC"/>
<rect x="867.5" y="128.5" width="487" height="128" transform="rotate(-180 867.5 128.5)" fill="#E6E6E6" stroke="#CCCCCC"/>
<rect x="380.5" y="128.5" width="80" height="128" transform="rotate(-180 380.5 128.5)" fill="#E6E6E6" stroke="#CCCCCC"/>
<mask id="path-19-inside-4_304_1116" fill="white">
<path fill-rule="evenodd" clip-rule="evenodd" d="M374 388L301 388L301 288L279 288L279 177L380 177L380 189L426 189L426 228L466 228L466 296L502 296L502 192L467 192L467 189L467 188L467 177L838 177L838 128L219 128L219 176L179 176L179 302L194 302L194 324L226 324L226 388L226 390L226 464L374 464L374 388Z"/>
</mask>
<path fill-rule="evenodd" clip-rule="evenodd" d="M374 388L301 388L301 288L279 288L279 177L380 177L380 189L426 189L426 228L466 228L466 296L502 296L502 192L467 192L467 189L467 188L467 177L838 177L838 128L219 128L219 176L179 176L179 302L194 302L194 324L226 324L226 388L226 390L226 464L374 464L374 388Z" fill="white"/>
<path d="M301 388L300 388L300 389L301 389L301 388ZM374 388L375 388L375 387L374 387L374 388ZM301 288L302 288L302 287L301 287L301 288ZM279 288L278 288L278 289L279 289L279 288ZM279 177L279 176L278 176L278 177L279 177ZM380 177L381 177L381 176L380 176L380 177ZM380 189L379 189L379 190L380 190L380 189ZM426 189L427 189L427 188L426 188L426 189ZM426 228L425 228L425 229L426 229L426 228ZM466 228L467 228L467 227L466 227L466 228ZM466 296L465 296L465 297L466 297L466 296ZM502 296L502 297L503 297L503 296L502 296ZM502 192L503 192L503 191L502 191L502 192ZM467 192L466 192L466 193L467 193L467 192ZM467 189L468 189L467 189ZM467 188L466 188L467 188ZM467 177L467 176L466 176L466 177L467 177ZM838 177L838 178L839 178L839 177L838 177ZM838 128L839 128L839 127L838 127L838 128ZM219 128L219 127L218 127L218 128L219 128ZM219 176L219 177L220 177L220 176L219 176ZM179 176L179 175L178 175L178 176L179 176ZM179 302L178 302L178 303L179 303L179 302ZM194 302L195 302L195 301L194 301L194 302ZM194 324L193 324L193 325L194 325L194 324ZM226 324L227 324L227 323L226 323L226 324ZM226 388L225 388L226 388ZM226 390L225 390L226 390ZM226 464L225 464L225 465L226 465L226 464ZM374 464L374 465L375 465L375 464L374 464ZM301 389L374 389L374 387L301 387L301 389ZM300 288L300 388L302 388L302 288L300 288ZM279 289L301 289L301 287L279 287L279 289ZM278 177L278 288L280 288L280 177L278 177ZM380 176L279 176L279 178L380 178L380 176ZM381 189L381 177L379 177L379 189L381 189ZM426 188L380 188L380 190L426 190L426 188ZM427 228L427 189L425 189L425 228L427 228ZM466 227L426 227L426 229L466 229L466 227ZM467 296L467 228L465 228L465 296L467 296ZM502 295L466 295L466 297L502 297L502 295ZM501 192L501 296L503 296L503 192L501 192ZM467 193L502 193L502 191L467 191L467 193ZM466 189L466 192L468 192L468 189L466 189ZM466 188L466 189L468 189L468 188L466 188ZM466 177L466 188L468 188L468 177L466 177ZM838 176L467 176L467 178L838 178L838 176ZM837 128L837 177L839 177L839 128L837 128ZM219 129L838 129L838 127L219 127L219 129ZM220 176L220 128L218 128L218 176L220 176ZM179 177L219 177L219 175L179 175L179 177ZM180 302L180 176L178 176L178 302L180 302ZM194 301L179 301L179 303L194 303L194 301ZM195 324L195 302L193 302L193 324L195 324ZM226 323L194 323L194 325L226 325L226 323ZM227 388L227 324L225 324L225 388L227 388ZM227 390L227 388L225 388L225 390L227 390ZM227 464L227 390L225 390L225 464L227 464ZM374 463L226 463L226 465L374 465L374 463ZM373 388L373 464L375 464L375 388L373 388Z" fill="#CCCCCC" mask="url(#path-19-inside-4_304_1116)"/>
<rect x="300.5" y="128.5" width="80" height="128" transform="rotate(-180 300.5 128.5)" fill="#E6E6E6" stroke="#CCCCCC"/>
<rect x="220.5" y="176.5" width="168" height="176" transform="rotate(-180 220.5 176.5)" fill="#E6E6E6" stroke="#CCCCCC"/>
<rect x="52.5" y="52.5" width="30" height="37" transform="rotate(-180 52.5 52.5)" fill="#E6E6E6" stroke="#CCCCCC"/>
<rect x="52.5" y="89.5" width="30" height="37" transform="rotate(-180 52.5 89.5)" fill="#E6E6E6" stroke="#CCCCCC"/>
<rect x="179.5" y="301.5" width="127" height="125" transform="rotate(-180 179.5 301.5)" fill="#E6E6E6" stroke="#CCCCCC"/>
<mask id="path-26-inside-5_304_1116" fill="white">
<path fill-rule="evenodd" clip-rule="evenodd" d="M385.932 296L467 296L467 289L467 288L467 227L380 227L380 289L385.932 289L385.932 296Z"/>
</mask>
<path fill-rule="evenodd" clip-rule="evenodd" d="M385.932 296L467 296L467 289L467 288L467 227L380 227L380 289L385.932 289L385.932 296Z" fill="#E6E6E6"/>
<path d="M467 296L467 297L468 297L468 296L467 296ZM385.932 296L384.932 296L384.932 297L385.932 297L385.932 296ZM467 227L468 227L468 226L467 226L467 227ZM380 227L380 226L379 226L379 227L380 227ZM380 289L379 289L379 290L380 290L380 289ZM385.932 289L386.932 289L386.932 288L385.932 288L385.932 289ZM467 295L385.932 295L385.932 297L467 297L467 295ZM466 289L466 296L468 296L468 289L466 289ZM466 288L466 289L468 289L468 288L466 288ZM466 227L466 288L468 288L468 227L466 227ZM380 228L467 228L467 226L380 226L380 228ZM381 289L381 227L379 227L379 289L381 289ZM385.932 288L380 288L380 290L385.932 290L385.932 288ZM386.932 296L386.932 289L384.932 289L384.932 296L386.932 296Z" fill="#CCCCCC" mask="url(#path-26-inside-5_304_1116)"/>
<mask id="path-28-inside-6_304_1116" fill="white">
<path fill-rule="evenodd" clip-rule="evenodd" d="M381 289L278 289L278 260L325 260L325 210L278 210L278 176L381 176L381 209L381 210L381 260L381 261L381 289Z"/>
</mask>
<path fill-rule="evenodd" clip-rule="evenodd" d="M381 289L278 289L278 260L325 260L325 210L278 210L278 176L381 176L381 209L381 210L381 260L381 261L381 289Z" fill="#E0E5FF"/>
<path d="M278 289L277 289L277 290L278 290L278 289ZM381 289L381 290L382 290L382 289L381 289ZM278 260L278 259L277 259L277 260L278 260ZM325 260L325 261L326 261L326 260L325 260ZM325 210L326 210L326 209L325 209L325 210ZM278 210L277 210L277 211L278 211L278 210ZM278 176L278 175L277 175L277 176L278 176ZM381 176L382 176L382 175L381 175L381 176ZM278 290L381 290L381 288L278 288L278 290ZM277 260L277 289L279 289L279 260L277 260ZM325 259L278 259L278 261L325 261L325 259ZM326 260L326 210L324 210L324 260L326 260ZM278 211L325 211L325 209L278 209L278 211ZM277 176L277 210L279 210L279 176L277 176ZM381 175L278 175L278 177L381 177L381 175ZM382 209L382 176L380 176L380 209L382 209ZM380 209L380 210L382 210L382 209L380 209ZM380 210L380 260L382 260L382 210L380 210ZM380 260L380 261L382 261L382 260L380 260ZM382 289L382 261L380 261L380 289L382 289Z" fill="#CCCCCC" mask="url(#path-28-inside-6_304_1116)"/>
<line x1="225.5" y1="302" x2="225.5" y2="207" stroke="#CCCCCC"/>
<mask id="path-31-inside-7_304_1116" fill="white">
<path d="M270 462H334L334 465H270L270 462Z"/>
</mask>
<path d="M270 462H334L334 465H270L270 462Z" fill="#CDF2FB"/>
<path d="M333 462L333 465H335L335 462H333ZM271 465L271 462H269L269 465H271Z" fill="#CCCCCC" mask="url(#path-31-inside-7_304_1116)"/>
<mask id="path-33-inside-8_304_1116" fill="white">
<path d="M228 489L228 521L225 521L225 489L228 489Z"/>
</mask>
<path d="M228 489L228 521L225 521L225 489L228 489Z" fill="#CDF2FB"/>
<path d="M228 520L225 520L225 522L228 522L228 520ZM225 490L228 490L228 488L225 488L225 490Z" fill="#CCCCCC" mask="url(#path-33-inside-8_304_1116)"/>
<mask id="path-35-inside-9_304_1116" fill="white">
<path d="M375 489L375 521L372 521L372 489L375 489Z"/>
</mask>
<path d="M375 489L375 521L372 521L372 489L375 489Z" fill="#CDF2FB"/>
<path d="M375 520L372 520L372 522L375 522L375 520ZM372 490L375 490L375 488L372 488L372 490Z" fill="#CCCCCC" mask="url(#path-35-inside-9_304_1116)"/>
</svg>
