<svg width="1041" height="238" viewBox="0 0 1041 238" fill="none" xmlns="http://www.w3.org/2000/svg">
<rect x="0.5" y="1.5" width="127" height="97" fill="#E6E6E6" stroke="#CCCCCC"/>
<rect x="0.5" y="128.5" width="236" height="107" fill="#E6E6E6" stroke="#CCCCCC"/>
<rect x="194.5" y="1.5" width="65" height="98" fill="#E6E6E6" stroke="#CCCCCC"/>
<rect x="650.5" y="1.5" width="130" height="97" fill="#E6E6E6" stroke="#CCCCCC"/>
<rect x="715.5" y="138.5" width="65" height="97" fill="#E6E6E6" stroke="#CCCCCC"/>
<rect x="585.5" y="138.5" width="130" height="97" fill="#E6E6E6" stroke="#CCCCCC"/>
<rect x="520.5" y="138.5" width="65" height="97" fill="#E6E6E6" stroke="#CCCCCC"/>
<rect x="520.5" y="1.5" width="32" height="97" fill="#E6E6E6" stroke="#CCCCCC"/>
<mask id="path-9-inside-1_306_1272" fill="white">
<path fill-rule="evenodd" clip-rule="evenodd" d="M651 52H618V62H552V98H520V140H911V98H651V63V62V52Z"/>
</mask>
<path fill-rule="evenodd" clip-rule="evenodd" d="M651 52H618V62H552V98H520V140H911V98H651V63V62V52Z" fill="white"/>
<path d="M618 52V51H617V52H618ZM651 52H652V51H651V52ZM618 62V63H619V62H618ZM552 62V61H551V62H552ZM552 98V99H553V98H552ZM520 98V97H519V98H520ZM520 140H519V141H520V140ZM911 140V141H912V140H911ZM911 98H912V97H911V98ZM651 98H650V99H651V98ZM618 53H651V51H618V53ZM619 62V52H617V62H619ZM618 61H552V63H618V61ZM551 62V98H553V62H551ZM552 97H520V99H552V97ZM519 98V140H521V98H519ZM520 141H911V139H520V141ZM912 140V98H910V140H912ZM911 97H651V99H911V97ZM652 98V63H650V98H652ZM652 63V62H650V63H652ZM650 52V62H652V52H650Z" fill="#CCCCCC" mask="url(#path-9-inside-1_306_1272)"/>
<rect x="780.5" y="138.5" width="130" height="97" fill="#FDF9EF" stroke="#CCCCCC"/>
<rect x="780.5" y="1.5" width="130" height="97" fill="#FDF9EF" stroke="#CCCCCC"/>
<rect x="910.5" y="1.5" width="130" height="235" fill="#FDF9EF" stroke="#CCCCCC"/>
<rect x="552.5" y="26.5" width="66" height="36" fill="#F1F3F4" stroke="#CCCCCC"/>
<rect x="127.5" y="1.5" width="67" height="69" fill="#F1F3F4" stroke="#CCCCCC"/>
<mask id="path-16-inside-2_306_1272" fill="white">
<path fill-rule="evenodd" clip-rule="evenodd" d="M618 1H552V27H618V53H651V1H619H618Z"/>
</mask>
<path fill-rule="evenodd" clip-rule="evenodd" d="M618 1H552V27H618V53H651V1H619H618Z" fill="#F1F3F4"/>
<path d="M552 1V0H551V1H552ZM552 27H551V28H552V27ZM618 27H619V26H618V27ZM618 53H617V54H618V53ZM651 53V54H652V53H651ZM651 1H652V0H651V1ZM552 2H618V0H552V2ZM553 27V1H551V27H553ZM618 26H552V28H618V26ZM619 53V27H617V53H619ZM651 52H618V54H651V52ZM650 1V53H652V1H650ZM619 2H651V0H619V2ZM618 2H619V0H618V2Z" fill="#CCCCCC" mask="url(#path-16-inside-2_306_1272)"/>
<line x1="520.5" y1="53" x2="520.5" y2="99" stroke="#CCCCCC"/>
<mask id="path-19-inside-3_306_1272" fill="white">
<path fill-rule="evenodd" clip-rule="evenodd" d="M195 70H127V98H0V130H236V237H260V130V98H236H195V70Z"/>
</mask>
<path fill-rule="evenodd" clip-rule="evenodd" d="M195 70H127V98H0V130H236V237H260V130V98H236H195V70Z" fill="white"/>
<path d="M127 70V69H126V70H127ZM195 70H196V69H195V70ZM127 98V99H128V98H127ZM0 98V97H-1V98H0ZM0 130H-1V131H0V130ZM236 130H237V129H236V130ZM236 237H235V238H236V237ZM260 237V238H261V237H260ZM260 98H261V97H260V98ZM195 98H194V99H195V98ZM127 71H195V69H127V71ZM128 98V70H126V98H128ZM127 97H0V99H127V97ZM-1 98V130H1V98H-1ZM0 131H236V129H0V131ZM235 130V237H237V130H235ZM236 238H260V236H236V238ZM261 237V130H259V237H261ZM261 130V98H259V130H261ZM260 97H236V99H260V97ZM236 97H195V99H236V97ZM194 70V98H196V70H194Z" fill="#CCCCCC" mask="url(#path-19-inside-3_306_1272)"/>
<line x1="127" y1="98.5" x2="163" y2="98.5" stroke="#CCCCCC"/>
</svg>
