<svg width="1041" height="238" viewBox="0 0 1041 238" fill="none" xmlns="http://www.w3.org/2000/svg">
<rect x="0.5" y="1.5" width="127" height="97" fill="#E6E6E6" stroke="#CCCCCC"/>
<rect x="0.5" y="139.5" width="77" height="45" fill="#E6E6E6" stroke="#CCCCCC"/>
<rect x="0.5" y="184.5" width="127" height="52" fill="#E6E6E6" stroke="#CCCCCC"/>
<rect x="127.5" y="139.5" width="132" height="97" fill="#E6E6E6" stroke="#CCCCCC"/>
<rect x="194.5" y="1.5" width="65" height="69" fill="#E6E6E6" stroke="#CCCCCC"/>
<rect x="237.5" y="70.5" width="22" height="28" fill="#E6E6E6" stroke="#CCCCCC"/>
<rect x="318.5" y="62.5" width="23" height="36" fill="#E6E6E6" stroke="#CCCCCC"/>
<rect x="282.5" y="62.5" width="36" height="36" fill="#E0E5FF" stroke="#CCCCCC"/>
<mask id="path-9-inside-1_306_1271" fill="white">
<path fill-rule="evenodd" clip-rule="evenodd" d="M282 1H259V99H283V63H319V1H283H282Z"/>
</mask>
<path fill-rule="evenodd" clip-rule="evenodd" d="M282 1H259V99H283V63H319V1H283H282Z" fill="#E0E5FF"/>
<path d="M259 1V0H258V1H259ZM259 99H258V100H259V99ZM283 99V100H284V99H283ZM283 63V62H282V63H283ZM319 63V64H320V63H319ZM319 1H320V0H319V1ZM259 2H282V0H259V2ZM260 99V1H258V99H260ZM283 98H259V100H283V98ZM282 63V99H284V63H282ZM319 62H283V64H319V62ZM318 1V63H320V1H318ZM283 2H319V0H283V2ZM282 2H283V0H282V2Z" fill="#CCCCCC" mask="url(#path-9-inside-1_306_1271)"/>
<rect x="389.5" y="1.5" width="66" height="48" fill="#E6E6E6" stroke="#CCCCCC"/>
<rect x="650.5" y="1.5" width="130" height="97" fill="#E6E6E6" stroke="#CCCCCC"/>
<rect x="650.5" y="139.5" width="130" height="97" fill="#E6E6E6" stroke="#CCCCCC"/>
<rect x="780.5" y="139.5" width="130" height="97" fill="#FDF9EF" stroke="#CCCCCC"/>
<rect x="780.5" y="1.5" width="130" height="97" fill="#FDF9EF" stroke="#CCCCCC"/>
<mask id="path-16-inside-2_306_1271" fill="white">
<path d="M259 139H521V237H259V139Z"/>
</mask>
<path d="M259 139H521V237H259V139Z" fill="#FDF9EF"/>
<path d="M259 139V138H258V139H259ZM521 139H522V138H521V139ZM521 237V238H522V237H521ZM259 237H258V238H259V237ZM259 140H521V138H259V140ZM520 139V237H522V139H520ZM521 236H259V238H521V236ZM260 237V139H258V237H260Z" fill="#CCCCCC" mask="url(#path-16-inside-2_306_1271)"/>
<rect x="910.5" y="1.5" width="130" height="235" fill="#FDF9EF" stroke="#CCCCCC"/>
<rect x="389.5" y="49.5" width="66" height="49" fill="#E6E6E6" stroke="#CCCCCC"/>
<mask id="path-20-inside-3_306_1271" fill="white">
<path fill-rule="evenodd" clip-rule="evenodd" d="M341 1H318V63H341V99H390V1H342H341Z"/>
</mask>
<path fill-rule="evenodd" clip-rule="evenodd" d="M341 1H318V63H341V99H390V1H342H341Z" fill="#E0E5FF"/>
<path d="M318 1V0H317V1H318ZM318 63H317V64H318V63ZM341 63H342V62H341V63ZM341 99H340V100H341V99ZM390 99V100H391V99H390ZM390 1H391V0H390V1ZM318 2H341V0H318V2ZM319 63V1H317V63H319ZM341 62H318V64H341V62ZM342 99V63H340V99H342ZM390 98H341V100H390V98ZM389 1V99H391V1H389ZM342 2H390V0H342V2ZM341 2H342V0H341V2Z" fill="#CCCCCC" mask="url(#path-20-inside-3_306_1271)"/>
<rect x="455.5" y="1.5" width="65" height="40" fill="white" stroke="#CCCCCC"/>
<rect x="545.5" y="189.5" width="80" height="44" fill="white" stroke="#CCCCCC"/>
<mask id="path-24-inside-4_306_1271" fill="white">
<path fill-rule="evenodd" clip-rule="evenodd" d="M521 41H455V98H238V70H127V98H0V140H77V185H128V140H455H456H520V189V190V212H546V190H552H553H618H619H625V212H651V190V189V140H911V98H651V52H618V62H553V52H521V41Z"/>
</mask>
<path fill-rule="evenodd" clip-rule="evenodd" d="M521 41H455V98H238V70H127V98H0V140H77V185H128V140H455H456H520V189V190V212H546V190H552H553H618H619H625V212H651V190V189V140H911V98H651V52H618V62H553V52H521V41Z" fill="white"/>
<path d="M455 41V40H454V41H455ZM521 41H522V40H521V41ZM455 98V99H456V98H455ZM238 98H237V99H238V98ZM238 70H239V69H238V70ZM127 70V69H126V70H127ZM127 98V99H128V98H127ZM0 98V97H-1V98H0ZM0 140H-1V141H0V140ZM77 140H78V139H77V140ZM77 185H76V186H77V185ZM128 185V186H129V185H128ZM128 140V139H127V140H128ZM520 140H521V139H520V140ZM520 212H519V213H520V212ZM546 212V213H547V212H546ZM546 190V189H545V190H546ZM625 190H626V189H625V190ZM625 212H624V213H625V212ZM651 212V213H652V212H651ZM651 140V139H650V140H651ZM911 140V141H912V140H911ZM911 98H912V97H911V98ZM651 98H650V99H651V98ZM651 52H652V51H651V52ZM618 52V51H617V52H618ZM618 62V63H619V62H618ZM553 62H552V63H553V62ZM553 52H554V51H553V52ZM521 52H520V53H521V52ZM455 42H521V40H455V42ZM456 98V41H454V98H456ZM238 99H455V97H238V99ZM237 70V98H239V70H237ZM127 71H238V69H127V71ZM128 98V70H126V98H128ZM0 99H127V97H0V99ZM1 140V98H-1V140H1ZM77 139H0V141H77V139ZM78 185V140H76V185H78ZM128 184H77V186H128V184ZM127 140V185H129V140H127ZM455 139H128V141H455V139ZM456 139H455V141H456V139ZM520 139H456V141H520V139ZM521 189V140H519V189H521ZM521 190V189H519V190H521ZM521 212V190H519V212H521ZM546 211H520V213H546V211ZM545 190V212H547V190H545ZM552 189H546V191H552V189ZM553 189H552V191H553V189ZM618 189H553V191H618V189ZM619 189H618V191H619V189ZM625 189H619V191H625V189ZM626 212V190H624V212H626ZM651 211H625V213H651V211ZM650 190V212H652V190H650ZM650 189V190H652V189H650ZM650 140V189H652V140H650ZM911 139H651V141H911V139ZM910 98V140H912V98H910ZM651 99H911V97H651V99ZM650 52V98H652V52H650ZM618 53H651V51H618V53ZM619 62V52H617V62H619ZM553 63H618V61H553V63ZM552 52V62H554V52H552ZM521 53H553V51H521V53ZM520 41V52H522V41H520Z" fill="#CCCCCC" mask="url(#path-24-inside-4_306_1271)"/>
<rect x="552.5" y="26.5" width="66" height="36" fill="#F1F3F4" stroke="#CCCCCC"/>
<rect x="127.5" y="1.5" width="67" height="69" fill="#F1F3F4" stroke="#CCCCCC"/>
<mask id="path-28-inside-5_306_1271" fill="white">
<path fill-rule="evenodd" clip-rule="evenodd" d="M520 1H552H553H618H619H651V53H618V27H553V53H520V1Z"/>
</mask>
<path fill-rule="evenodd" clip-rule="evenodd" d="M520 1H552H553H618H619H651V53H618V27H553V53H520V1Z" fill="#F1F3F4"/>
<path d="M520 1V0H519V1H520ZM651 1H652V0H651V1ZM651 53V54H652V53H651ZM618 53H617V54H618V53ZM618 27H619V26H618V27ZM553 27V26H552V27H553ZM553 53V54H554V53H553ZM520 53H519V54H520V53ZM552 0H520V2H552V0ZM552 2H553V0H552V2ZM553 2H618V0H553V2ZM618 2H619V0H618V2ZM651 0H619V2H651V0ZM652 53V1H650V53H652ZM618 54H651V52H618V54ZM617 27V53H619V27H617ZM618 26H553V28H618V26ZM554 53V27H552V53H554ZM520 54H553V52H520V54ZM519 1V53H521V1H519Z" fill="#CCCCCC" mask="url(#path-28-inside-5_306_1271)"/>
<line x1="194.5" y1="71" x2="194.5" y2="99" stroke="#CCCCCC"/>
<line x1="520.5" y1="53" x2="520.5" y2="99" stroke="#CCCCCC"/>
<mask id="path-32-inside-6_306_1271" fill="white">
<path d="M472 0H504L504 3.02542H472L472 0Z"/>
</mask>
<path d="M472 0H504L504 3.02542H472L472 0Z" fill="#CDF2FB"/>
<path d="M503 0L503 3.02542H505L505 0H503ZM473 3.02542L473 0H471L471 3.02542H473Z" fill="#CCCCCC" mask="url(#path-32-inside-6_306_1271)"/>
<mask id="path-34-inside-7_306_1271" fill="white">
<path d="M472 40H504L504 43.0254H472L472 40Z"/>
</mask>
<path d="M472 40H504L504 43.0254H472L472 40Z" fill="#CDF2FB"/>
<path d="M503 40L503 43.0254H505L505 40H503ZM473 43.0254L473 40H471L471 43.0254H473Z" fill="#CCCCCC" mask="url(#path-34-inside-7_306_1271)"/>
<mask id="path-36-inside-8_306_1271" fill="white">
<path d="M570 188H602L602 191.025H570L570 188Z"/>
</mask>
<path d="M570 188H602L602 191.025H570L570 188Z" fill="#CDF2FB"/>
<path d="M601 188L601 191.025H603L603 188H601ZM571 191.025L571 188H569L569 191.025H571Z" fill="#CCCCCC" mask="url(#path-36-inside-8_306_1271)"/>
<mask id="path-38-inside-9_306_1271" fill="white">
<path d="M570 232H602L602 235.025H570L570 232Z"/>
</mask>
<path d="M570 232H602L602 235.025H570L570 232Z" fill="#CDF2FB"/>
<path d="M601 232L601 235.025H603L603 232H601ZM571 235.025L571 232H569L569 235.025H571Z" fill="#CCCCCC" mask="url(#path-38-inside-9_306_1271)"/>
</svg>
