<svg width="96" height="96" viewBox="0 0 96 96" fill="none" xmlns="http://www.w3.org/2000/svg">
<g clip-path="url(#clip0_293_857)">
<circle cx="48" cy="48" r="48" fill="#F29900"/>
<path d="M30.5 60.1308C32.9924 60.1308 35.4186 60.4089 37.7784 60.965C40.1383 61.521 42.4848 62.3551 44.8182 63.4673V32.1682C42.6439 30.8972 40.3371 29.9439 37.8977 29.3084C35.4583 28.6729 32.9924 28.3551 30.5 28.3551C28.5909 28.3551 26.6951 28.5405 24.8125 28.9112C22.9299 29.2819 21.1136 29.838 19.3636 30.5794V62.0374C21.2197 61.4019 23.0625 60.9252 24.892 60.6075C26.7216 60.2897 28.5909 60.1308 30.5 60.1308ZM51.1818 63.4673C53.5152 62.3551 55.8617 61.521 58.2216 60.965C60.5814 60.4089 63.0076 60.1308 65.5 60.1308C67.4091 60.1308 69.2784 60.2897 71.108 60.6075C72.9375 60.9252 74.7803 61.4019 76.6364 62.0374V30.5794C74.8864 29.838 73.0701 29.2819 71.1875 28.9112C69.3049 28.5405 67.4091 28.3551 65.5 28.3551C63.0076 28.3551 60.5417 28.6729 58.1023 29.3084C55.6629 29.9439 53.3561 30.8972 51.1818 32.1682V63.4673ZM48 72.8411C45.4545 70.8287 42.697 69.2664 39.7273 68.1542C36.7576 67.0421 33.6818 66.486 30.5 66.486C27.6894 66.486 24.7462 67.0156 21.6705 68.0748C18.5947 69.134 15.7045 70.7757 13 73V26.9252C15.3333 25.3364 18.0777 24.1184 21.233 23.271C24.3883 22.4237 27.4773 22 30.5 22C33.5758 22 36.5852 22.3972 39.5284 23.1916C42.4716 23.986 45.2955 25.1776 48 26.7664C50.7045 25.1776 53.5284 23.986 56.4716 23.1916C59.4148 22.3972 62.4242 22 65.5 22C68.5227 22 71.6117 22.4237 74.767 23.271C77.9223 24.1184 80.6667 25.3364 83 26.9252V73C80.3485 70.7757 77.4716 69.134 74.3693 68.0748C71.267 67.0156 68.3106 66.486 65.5 66.486C62.3182 66.486 59.2424 67.0421 56.2727 68.1542C53.303 69.2664 50.5455 70.8287 48 72.8411Z" fill="white"/>
</g>
<defs>
<clipPath id="clip0_293_857">
<rect width="96" height="96" fill="white"/>
</clipPath>
</defs>
</svg>
