<svg width="96" height="96" viewBox="0 0 96 96" fill="none" xmlns="http://www.w3.org/2000/svg">
<g clip-path="url(#clip0_262_8)">
<circle cx="48" cy="48" r="48" fill="#7D909B"/>
<path d="M31.8889 67.3333H41.5556V54.4444H44.7778V46.3889C44.7778 44.6167 44.1468 43.0995 42.8847 41.8375C41.6227 40.5755 40.1056 39.9444 38.3333 39.9444H35.1111C33.3389 39.9444 31.8218 40.5755 30.5597 41.8375C29.2977 43.0995 28.6667 44.6167 28.6667 46.3889V54.4444H31.8889V67.3333ZM36.7222 36.7222C37.85 36.7222 38.8032 36.3329 39.5819 35.5542C40.3606 34.7755 40.75 33.8222 40.75 32.6944C40.75 31.5667 40.3606 30.6134 39.5819 29.8347C38.8032 29.056 37.85 28.6667 36.7222 28.6667C35.5944 28.6667 34.6412 29.056 33.8625 29.8347C33.0838 30.6134 32.6944 31.5667 32.6944 32.6944C32.6944 33.8222 33.0838 34.7755 33.8625 35.5542C34.6412 36.3329 35.5944 36.7222 36.7222 36.7222ZM51.2222 44.7778H67.3333L59.2778 31.8889L51.2222 44.7778ZM59.2778 64.1111L67.3333 51.2222H51.2222L59.2778 64.1111ZM25.4444 77C23.6722 77 22.1551 76.369 20.8931 75.1069C19.631 73.8449 19 72.3278 19 70.5556V25.4444C19 23.6722 19.631 22.1551 20.8931 20.8931C22.1551 19.631 23.6722 19 25.4444 19H70.5556C72.3278 19 73.8449 19.631 75.1069 20.8931C76.369 22.1551 77 23.6722 77 25.4444V70.5556C77 72.3278 76.369 73.8449 75.1069 75.1069C73.8449 76.369 72.3278 77 70.5556 77H25.4444ZM25.4444 70.5556H70.5556V25.4444H25.4444V70.5556Z" fill="white"/>
</g>
<defs>
<clipPath id="clip0_262_8">
<rect width="96" height="96" fill="white"/>
</clipPath>
</defs>
</svg>
