<svg width="96" height="96" viewBox="0 0 96 96" fill="none" xmlns="http://www.w3.org/2000/svg">
<g clip-path="url(#clip0_267_364)">
<circle cx="48" cy="48" r="48" fill="#7D909B"/>
<path d="M47.6075 76.5C47.8255 76.5 48.0436 76.4458 48.2617 76.3375C48.4798 76.2292 48.6433 76.1208 48.7524 76.0125L75.5766 49.3625C76.2308 48.7125 76.7079 47.9812 77.0077 47.1687C77.3076 46.3562 77.4575 45.5437 77.4575 44.7312C77.4575 43.8646 77.3076 43.0385 77.0077 42.2531C76.7079 41.4677 76.2308 40.7771 75.5766 40.1812L61.6738 26.3687C61.0741 25.7187 60.3789 25.2448 59.5884 24.9469C58.7978 24.649 57.9664 24.5 57.094 24.5C56.2762 24.5 55.4584 24.649 54.6406 24.9469C53.8228 25.2448 53.0868 25.7187 52.4325 26.3687L51.5329 27.2625L57.5847 33.3562C58.4025 34.1146 59.0023 34.9812 59.3839 35.9562C59.7656 36.9312 59.9564 37.9604 59.9564 39.0437C59.9564 41.3187 59.1795 43.2281 57.6256 44.7719C56.0718 46.3156 54.1499 47.0875 51.8601 47.0875C50.7696 47.0875 49.7201 46.8979 48.7115 46.5187C47.7029 46.1396 46.8169 45.5708 46.0536 44.8125L39.92 38.8L25.6084 53.0187C25.4448 53.1812 25.3221 53.3573 25.2403 53.5469C25.1586 53.7365 25.1177 53.9396 25.1177 54.1562C25.1177 54.5896 25.2812 54.9823 25.6084 55.3344C25.9355 55.6865 26.3171 55.8625 26.7533 55.8625C26.9714 55.8625 27.1895 55.8083 27.4075 55.7C27.6256 55.5917 27.7892 55.4833 27.8982 55.375L39.0204 44.325L43.6002 48.875L32.5597 59.925C32.3962 60.0875 32.2735 60.2635 32.1917 60.4531C32.1099 60.6427 32.0691 60.8458 32.0691 61.0625C32.0691 61.4958 32.2326 61.875 32.5597 62.2C32.8869 62.525 33.2685 62.6875 33.7047 62.6875C33.9228 62.6875 34.1408 62.6333 34.3589 62.525C34.577 62.4167 34.7406 62.3083 34.8496 62.2L45.9718 51.2312L50.5516 55.7812L39.5111 66.8312C39.3476 66.9396 39.2249 67.1021 39.1431 67.3187C39.0613 67.5354 39.0204 67.7521 39.0204 67.9687C39.0204 68.4021 39.184 68.7812 39.5111 69.1062C39.8383 69.4312 40.2199 69.5937 40.6561 69.5937C40.8741 69.5937 41.0786 69.5531 41.2694 69.4719C41.4602 69.3906 41.6374 69.2687 41.801 69.1062L52.9232 58.1375L57.503 62.6875L46.3807 73.7375C46.2172 73.9 46.0945 74.076 46.0127 74.2656C45.9309 74.4552 45.89 74.6583 45.89 74.875C45.89 75.3083 46.0672 75.6875 46.4216 76.0125C46.776 76.3375 47.1713 76.5 47.6075 76.5ZM47.5257 83C45.5084 83 43.7229 82.3365 42.169 81.0094C40.6152 79.6823 39.702 78.0167 39.4293 76.0125C37.5756 75.7417 36.0218 74.9833 34.7678 73.7375C33.5139 72.4917 32.7506 70.9479 32.478 69.1062C30.6243 68.8354 29.0841 68.0635 27.8573 66.7906C26.6306 65.5177 25.881 63.9875 25.6084 62.2C23.5366 61.9292 21.8464 61.0354 20.5379 59.5187C19.2294 58.0021 18.5752 56.2146 18.5752 54.1562C18.5752 53.0729 18.7796 52.0302 19.1886 51.0281C19.5975 50.026 20.1836 49.1458 20.9468 48.3875L39.92 29.6187L50.6333 40.2625C50.7424 40.425 50.906 40.5469 51.124 40.6281C51.3421 40.7094 51.5602 40.75 51.7783 40.75C52.269 40.75 52.6779 40.601 53.005 40.3031C53.3321 40.0052 53.4957 39.6125 53.4957 39.125C53.4957 38.9083 53.4548 38.6917 53.373 38.475C53.2912 38.2583 53.1686 38.0958 53.005 37.9875L41.3103 26.3687C40.7106 25.7187 40.0154 25.2448 39.2249 24.9469C38.4343 24.649 37.6029 24.5 36.7306 24.5C35.9128 24.5 35.095 24.649 34.2771 24.9469C33.4593 25.2448 32.7233 25.7187 32.0691 26.3687L20.5379 37.9062C20.0473 38.3937 19.6383 38.9625 19.3112 39.6125C18.9841 40.2625 18.766 40.9125 18.657 41.5625C18.5479 42.2125 18.5479 42.876 18.657 43.5531C18.766 44.2302 18.9841 44.8667 19.3112 45.4625L14.5679 50.175C13.6411 48.9292 12.9596 47.5615 12.5234 46.0719C12.0872 44.5823 11.9237 43.0792 12.0327 41.5625C12.1418 40.0458 12.5234 38.5698 13.1776 37.1344C13.8319 35.699 14.7315 34.4125 15.8764 33.275L27.4075 21.8187C28.716 20.5729 30.1745 19.625 31.7828 18.975C33.3912 18.325 35.0404 18 36.7306 18C38.4207 18 40.07 18.325 41.6783 18.975C43.2867 19.625 44.7179 20.5729 45.9718 21.8187L46.8714 22.7125L47.771 21.8187C49.0795 20.5729 50.5379 19.625 52.1463 18.975C53.7547 18.325 55.4039 18 57.094 18C58.7842 18 60.4334 18.325 62.0418 18.975C63.6502 19.625 65.0813 20.5729 66.3353 21.8187L80.1563 35.55C81.4103 36.7958 82.3644 38.2312 83.0186 39.8562C83.6729 41.4812 84 43.1333 84 44.8125C84 46.4917 83.6729 48.1302 83.0186 49.7281C82.3644 51.326 81.4103 52.7479 80.1563 53.9937L53.3321 80.5625C52.5688 81.3208 51.6829 81.9167 50.6742 82.35C49.6656 82.7833 48.6161 83 47.5257 83Z" fill="white"/>
</g>
<defs>
<clipPath id="clip0_267_364">
<rect width="96" height="96" fill="white"/>
</clipPath>
</defs>
</svg>
