<svg width="96" height="96" viewBox="0 0 96 96" fill="none" xmlns="http://www.w3.org/2000/svg">
<g clip-path="url(#clip0_267_369)">
<circle cx="48" cy="48" r="48" fill="#7D909B"/>
<path d="M59.6419 74.56L46.1637 60.96L50.6036 56.48L59.6419 65.6L77.5601 47.52L82 52L59.6419 74.56ZM77.0844 42.8H70.7417V26.8H64.399V36.4H32.6854V26.8H26.3427V71.6H45.3708V78H26.3427C24.5985 78 23.1053 77.3733 21.8632 76.12C20.6211 74.8667 20 73.36 20 71.6V26.8C20 25.04 20.6211 23.5333 21.8632 22.28C23.1053 21.0267 24.5985 20.4 26.3427 20.4H39.5831C40.1645 18.5333 41.3009 17 42.9923 15.8C44.6837 14.6 46.5337 14 48.5422 14C50.6564 14 52.546 14.6 54.211 15.8C55.876 17 56.9991 18.5333 57.5806 20.4H70.7417C72.4859 20.4 73.9791 21.0267 75.2212 22.28C76.4633 23.5333 77.0844 25.04 77.0844 26.8V42.8ZM48.5422 26.8C49.4407 26.8 50.1939 26.4933 50.8018 25.88C51.4096 25.2667 51.7136 24.5067 51.7136 23.6C51.7136 22.6933 51.4096 21.9333 50.8018 21.32C50.1939 20.7067 49.4407 20.4 48.5422 20.4C47.6436 20.4 46.8905 20.7067 46.2826 21.32C45.6748 21.9333 45.3708 22.6933 45.3708 23.6C45.3708 24.5067 45.6748 25.2667 46.2826 25.88C46.8905 26.4933 47.6436 26.8 48.5422 26.8Z" fill="white"/>
</g>
<defs>
<clipPath id="clip0_267_369">
<rect width="96" height="96" fill="white"/>
</clipPath>
</defs>
</svg>
