<svg width="96" height="96" viewBox="0 0 96 96" fill="none" xmlns="http://www.w3.org/2000/svg">
<g clip-path="url(#clip0_262_33)">
<circle cx="48" cy="48" r="48" fill="#7B87C6"/>
<path d="M47.7 29.4C45.995 29.4 44.5354 28.7929 43.3213 27.5788C42.1071 26.3646 41.5 24.905 41.5 23.2C41.5 21.495 42.1071 20.0354 43.3213 18.8213C44.5354 17.6071 45.995 17 47.7 17C49.405 17 50.8646 17.6071 52.0788 18.8213C53.2929 20.0354 53.9 21.495 53.9 23.2C53.9 24.905 53.2929 26.3646 52.0788 27.5788C50.8646 28.7929 49.405 29.4 47.7 29.4ZM63.2 79V63.5H47.7C45.995 63.5 44.5354 62.8929 43.3213 61.6788C42.1071 60.4646 41.5 59.005 41.5 57.3V38.7C41.5 36.995 42.1071 35.5354 43.3213 34.3213C44.5354 33.1071 45.995 32.5 47.7 32.5C48.94 32.5 50.0121 32.7713 50.9163 33.3138C51.8204 33.8563 52.7892 34.7217 53.8225 35.91C56.6642 39.32 59.2346 41.6579 61.5338 42.9238C63.8329 44.1896 66.455 44.8483 69.4 44.9V51.1C66.6617 51.1 63.8975 50.5058 61.1075 49.3175C58.3175 48.1292 55.915 46.7083 53.9 45.055V55.75H63.2C64.905 55.75 66.3646 56.3571 67.5788 57.5713C68.7929 58.7854 69.4 60.245 69.4 61.95V79H63.2ZM41.5 79C37.2117 79 33.5563 77.4888 30.5338 74.4663C27.5113 71.4438 26 67.7883 26 63.5C26 59.78 27.1754 56.4992 29.5263 53.6575C31.8771 50.8158 34.835 49.0333 38.4 48.31V54.665C36.5917 55.3883 35.1063 56.5379 33.9438 58.1138C32.7813 59.6896 32.2 61.485 32.2 63.5C32.2 66.0833 33.1042 68.2792 34.9125 70.0875C36.7208 71.8958 38.9167 72.8 41.5 72.8C43.515 72.8 45.3104 72.2188 46.8863 71.0563C48.4621 69.8938 49.6117 68.4083 50.335 66.6H56.69C55.9667 70.165 54.1842 73.1229 51.3425 75.4738C48.5008 77.8246 45.22 79 41.5 79Z" fill="white"/>
</g>
<defs>
<clipPath id="clip0_262_33">
<rect width="96" height="96" fill="white"/>
</clipPath>
</defs>
</svg>
