<svg width="96" height="96" viewBox="0 0 96 96" fill="none" xmlns="http://www.w3.org/2000/svg">
<g clip-path="url(#clip0_297_937)">
<circle cx="48" cy="48" r="48" fill="#7B87C6"/>
<path d="M27.2 79V57.3H21V38.7C21 36.995 21.6071 35.5354 22.8212 34.3213C24.0354 33.1071 25.495 32.5 27.2 32.5H39.6C41.305 32.5 42.7646 33.1071 43.9788 34.3213C45.1929 35.5354 45.8 36.995 45.8 38.7V57.3H39.6V79H27.2ZM33.4 29.4C31.695 29.4 30.2354 28.7929 29.0212 27.5787C27.8071 26.3646 27.2 24.905 27.2 23.2C27.2 21.495 27.8071 20.0354 29.0212 18.8212C30.2354 17.6071 31.695 17 33.4 17C35.105 17 36.5646 17.6071 37.7787 18.8212C38.9929 20.0354 39.6 21.495 39.6 23.2C39.6 24.905 38.9929 26.3646 37.7787 27.5787C36.5646 28.7929 35.105 29.4 33.4 29.4Z" fill="white"/>
<path d="M59.3 79V60.4H50L59.455 36.53C59.9717 35.29 60.7725 34.3083 61.8575 33.585C62.9425 32.8617 64.1567 32.5 65.5 32.5C66.8433 32.5 68.0575 32.8617 69.1425 33.585C70.2275 34.3083 71.0283 35.29 71.545 36.53L81 60.4H71.7V79H59.3ZM65.5 29.4C63.795 29.4 62.3354 28.7929 61.1213 27.5788C59.9071 26.3646 59.3 24.905 59.3 23.2C59.3 21.495 59.9071 20.0354 61.1213 18.8213C62.3354 17.6071 63.795 17 65.5 17C67.205 17 68.6646 17.6071 69.8788 18.8213C71.0929 20.0354 71.7 21.495 71.7 23.2C71.7 24.905 71.0929 26.3646 69.8788 27.5788C68.6646 28.7929 67.205 29.4 65.5 29.4Z" fill="white"/>
</g>
<defs>
<clipPath id="clip0_297_937">
<rect width="96" height="96" fill="white"/>
</clipPath>
</defs>
</svg>
