<svg width="96" height="96" viewBox="0 0 96 96" fill="none" xmlns="http://www.w3.org/2000/svg">
<g clip-path="url(#clip0_262_30)">
<circle cx="48" cy="48" r="48" fill="#7B87C6"/>
<path d="M41.3 79V60.4H32L41.455 36.53C41.9717 35.29 42.7725 34.3083 43.8575 33.585C44.9425 32.8617 46.1567 32.5 47.5 32.5C48.8433 32.5 50.0575 32.8617 51.1425 33.585C52.2275 34.3083 53.0283 35.29 53.545 36.53L63 60.4H53.7V79H41.3ZM47.5 29.4C45.795 29.4 44.3354 28.7929 43.1213 27.5788C41.9071 26.3646 41.3 24.905 41.3 23.2C41.3 21.495 41.9071 20.0354 43.1213 18.8213C44.3354 17.6071 45.795 17 47.5 17C49.205 17 50.6646 17.6071 51.8788 18.8213C53.0929 20.0354 53.7 21.495 53.7 23.2C53.7 24.905 53.0929 26.3646 51.8788 27.5788C50.6646 28.7929 49.205 29.4 47.5 29.4Z" fill="white"/>
</g>
<defs>
<clipPath id="clip0_262_30">
<rect width="96" height="96" fill="white"/>
</clipPath>
</defs>
</svg>
