<svg width="96" height="96" viewBox="0 0 96 96" fill="none" xmlns="http://www.w3.org/2000/svg">
<g clip-path="url(#clip0_262_19)">
<circle cx="48" cy="48" r="48" fill="#7B87C6"/>
<path d="M42.2 79V57.3H36V38.7C36 36.995 36.6071 35.5354 37.8213 34.3213C39.0354 33.1071 40.495 32.5 42.2 32.5H54.6C56.305 32.5 57.7646 33.1071 58.9788 34.3213C60.1929 35.5354 60.8 36.995 60.8 38.7V57.3H54.6V79H42.2ZM48.4 29.4C46.695 29.4 45.2354 28.7929 44.0213 27.5788C42.8071 26.3646 42.2 24.905 42.2 23.2C42.2 21.495 42.8071 20.0354 44.0213 18.8213C45.2354 17.6071 46.695 17 48.4 17C50.105 17 51.5646 17.6071 52.7788 18.8213C53.9929 20.0354 54.6 21.495 54.6 23.2C54.6 24.905 53.9929 26.3646 52.7788 27.5788C51.5646 28.7929 50.105 29.4 48.4 29.4Z" fill="white"/>
</g>
<defs>
<clipPath id="clip0_262_19">
<rect width="96" height="96" fill="white"/>
</clipPath>
</defs>
</svg>
