<svg width="860" height="276" viewBox="0 0 860 276" fill="none" xmlns="http://www.w3.org/2000/svg">
<g clip-path="url(#clip0_248_3)">
<path d="M790.5 245H859.5V202.5H790.5V245Z" fill="white"/>
<path d="M791 244.5V203H859V244.5H791ZM790 245.5H860V202H790V245.5Z" fill="#CCCCCC"/>
<path d="M310 245.5L470 245.5V35L310 35V245.5Z" fill="white"/>
<path d="M310.5 245L469.5 245V35L310.5 35V245Z" fill="white"/>
<path d="M311 244.5V35.5L469 35.5V244.5L311 244.5ZM310 245.5L470 245.5V34.5L310 34.5V245.5Z" fill="#CCCCCC"/>
<path d="M790.5 99.5L859.5 99.5V0.5L790.5 0.5V99.5Z" fill="#E6E6E6"/>
<path d="M791 99V1L859 1V99L791 99ZM790 100L860 100V0L790 0V100Z" fill="#C9C7E4"/>
<path d="M790.5 202.5H859.5V99.5L790.5 99.5V202.5Z" fill="#F1F3F4"/>
<path d="M791 202V100L859 100V202H791ZM790 203H860V99L790 99V203Z" fill="#CCCCCC"/>
<path d="M310.5 82L389.5 82V35L310.5 35V82Z" fill="#E6E6E6"/>
<path d="M311 81.5V35.5L389 35.5V81.5L311 81.5ZM310 82.5L390 82.5V34.5L310 34.5V82.5Z" fill="#CCCCCC"/>
<path d="M310.5 123H351.5V82H310.5V123Z" fill="#E0E5FF"/>
<path d="M311 122.5V82.5H351V122.5H311ZM310 123.5H352V81.5H310V123.5Z" fill="#CCCCCC"/>
<path d="M310.5 164H351.5V123H310.5V164Z" fill="#F1F3F4"/>
<path d="M311 163.5V123.5H351V163.5H311ZM310 164.5H352V122.5H310V164.5Z" fill="#CCCCCC"/>
<path d="M0.5 245H69.5V202.5H0.5V245Z" fill="white"/>
<path d="M1 244.5V203H69V244.5H1ZM0 245.5H70V202H0V245.5Z" fill="#CCCCCC"/>
<path d="M0.5 99.5L69.5 99.5L69.5 0.5L0.5 0.5L0.5 99.5Z" fill="#E6E6E6"/>
<path d="M1 99L1 1L69 1L69 99L1 99ZM0 100L70 100L70 0L0 0L0 100Z" fill="#C9C7E4"/>
<path d="M0.5 202.5H69.5L69.5 99.5L0.5 99.5L0.5 202.5Z" fill="#F1F3F4"/>
<path d="M1 202L1 100L69 100L69 202H1ZM0 203H70L70 99L0 99L0 203Z" fill="#CCCCCC"/>
<path d="M469.5 245L790.5 245V35L469.5 35V245Z" fill="#FDF9EF"/>
<path d="M470 244.5V35.5L790 35.5V244.5L470 244.5ZM469 245.5L791 245.5V34.5L469 34.5V245.5Z" fill="#E9DFC9"/>
<path d="M69.5 245L310.5 245V35L69.5 35L69.5 245Z" fill="#FDF9EF"/>
<path d="M70 244.5L70 35.5L310 35.5V244.5L70 244.5ZM69 245.5L311 245.5V34.5L69 34.5L69 245.5Z" fill="#E9DFC9"/>
<path d="M1 244.5V1L69 1V35.5L791 35.5V1H859V244.5L1 244.5ZM0 245.5L860 245.5V0H790V34.5L70 34.5V0L0 0V245.5Z" fill="#CCCCCC"/>
<circle cx="0.5" cy="0.5" r="0.5" transform="matrix(1 0 0 -1 189 138)" fill="#D9D9D9"/>
</g>
<defs>
<clipPath id="clip0_248_3">
<rect x="860" y="276" width="860" height="276" transform="rotate(-180 860 276)" fill="white"/>
</clipPath>
</defs>
</svg>
