<svg width="860" height="276" viewBox="0 0 860 276" fill="none" xmlns="http://www.w3.org/2000/svg">
<g clip-path="url(#clip0_273_120)">
<mask id="mask0_273_120" style="mask-type:luminance" maskUnits="userSpaceOnUse" x="0" y="0" width="860" height="276">
<path d="M0 276L860 276V0L0 0V276Z" fill="white"/>
</mask>
<g mask="url(#mask0_273_120)">
<path d="M790 245H859V202.5H790V245Z" fill="white"/>
<path d="M791 244.5V203H859V244.5H791ZM790 245.5H860V202H790V245.5Z" fill="#CCCCCC"/>
<path d="M310 245.5H470V35H310V245.5Z" fill="white"/>
<path d="M310.5 245H469.5V35H310.5V245Z" fill="white"/>
<path d="M311 244.5V35.5H469V244.5H311ZM310 245.5H470V34.5H310V245.5Z" fill="#CCCCCC"/>
<path d="M790.5 99.5H859.5V0.5H790.5V99.5Z" fill="#E6E6E6"/>
<path d="M791 99V1H859V99H791ZM790 100H860V0H790V100Z" fill="#C9C7E4"/>
<path d="M790.5 202.5H859.5V99.5H790.5V202.5Z" fill="#F1F3F4"/>
<path d="M791 202V100H859V202H791ZM790 203H860V99H790V203Z" fill="#CCCCCC"/>
<path d="M310.5 82H389.5V35H310.5V82Z" fill="#E6E6E6"/>
<path d="M311 81.5V35.5H389V81.5H311ZM310 82.5H390V34.5H310V82.5Z" fill="#CCCCCC"/>
<path d="M310.5 123H351.5V82H310.5V123Z" fill="#E0E5FF"/>
<path d="M311 122.5V82.5H351V122.5H311ZM310 123.5H352V81.5H310V123.5Z" fill="#CCCCCC"/>
<path d="M310.5 164H351.5V123H310.5V164Z" fill="#F1F3F4"/>
<path d="M311 163.5V123.5H351V163.5H311ZM310 164.5H352V122.5H310V164.5Z" fill="#CCCCCC"/>
<path d="M0 245H69V202.5H0V245Z" fill="white"/>
<path d="M1 244.5V203H69V244.5H1ZM0 245.5H70V202H0V245.5Z" fill="#CCCCCC"/>
<path d="M0.5 99.5H69.5V0.5H0.5V99.5Z" fill="#E6E6E6"/>
<path d="M1 99V1H69V99H1ZM0 100H70V0H0V100Z" fill="#C9C7E4"/>
<path d="M0.5 202.5H69.5V99.5H0.5V202.5Z" fill="#F1F3F4"/>
<path d="M1 202V100H69V202H1ZM0 203H70V99H0V203Z" fill="#CCCCCC"/>
<path d="M469.5 245H790.5V35H469.5V245Z" fill="#FDF9EF"/>
<path d="M470 244.5V35.5H790V244.5H470ZM469 245.5H791V34.5H469V245.5Z" fill="#E9DFC9"/>
<path d="M69.5 245H310.5V35H69.5V245Z" fill="#FDF9EF"/>
<path d="M70 244.5V35.5H310V244.5H70ZM69 245.5H311V34.5H69V245.5Z" fill="#E9DFC9"/>
<path d="M1 244.5V1H69V35.5H791V1H859V244.5H1ZM0 245.5H860V0H790V34.5H70V0H0V245.5Z" fill="#CCCCCC"/>
<path d="M189.5 137C189.776 137 190 137.224 190 137.5C190 137.776 189.776 138 189.5 138C189.224 138 189 137.776 189 137.5C189 137.224 189.224 137 189.5 137Z" fill="#D9D9D9"/>
<mask id="path-29-inside-1_273_120" fill="white">
<path d="M841 247L809 247L809 244L841 244L841 247Z"/>
</mask>
<path d="M841 247L809 247L809 244L841 244L841 247Z" fill="#CDF2FB"/>
<path d="M810 247L810 244L808 244L808 247L810 247ZM840 244L840 247L842 247L842 244L840 244Z" fill="#CCCCCC" mask="url(#path-29-inside-1_273_120)"/>
<mask id="path-31-inside-2_273_120" fill="white">
<path d="M406 246.5L374 246.5L374 243.5L406 243.5L406 246.5Z"/>
</mask>
<path d="M406 246.5L374 246.5L374 243.5L406 243.5L406 246.5Z" fill="#CDF2FB"/>
<path d="M375 246.5L375 243.5L373 243.5L373 246.5L375 246.5ZM405 243.5L405 246.5L407 246.5L407 243.5L405 243.5Z" fill="#CCCCCC" mask="url(#path-31-inside-2_273_120)"/>
<mask id="path-33-inside-3_273_120" fill="white">
<path d="M448 36.5L416 36.5L416 33.5L448 33.5L448 36.5Z"/>
</mask>
<path d="M448 36.5L416 36.5L416 33.5L448 33.5L448 36.5Z" fill="#CDF2FB"/>
<path d="M417 36.5L417 33.5L415 33.5L415 36.5L417 36.5ZM447 33.5L447 36.5L449 36.5L449 33.5L447 33.5Z" fill="#CCCCCC" mask="url(#path-33-inside-3_273_120)"/>
<mask id="path-35-inside-4_273_120" fill="white">
<path d="M51 246.5L19 246.5L19 243.5L51 243.5L51 246.5Z"/>
</mask>
<path d="M51 246.5L19 246.5L19 243.5L51 243.5L51 246.5Z" fill="#CDF2FB"/>
<path d="M20 246.5L20 243.5L18 243.5L18 246.5L20 246.5ZM50 243.5L50 246.5L52 246.5L52 243.5L50 243.5Z" fill="#CCCCCC" mask="url(#path-35-inside-4_273_120)"/>
</g>
</g>
<defs>
<clipPath id="clip0_273_120">
<rect width="860" height="276" fill="white"/>
</clipPath>
</defs>
</svg>
