<svg width="860" height="276" viewBox="0 0 860 276" fill="none" xmlns="http://www.w3.org/2000/svg">
<path d="M790.5 245H859.5V202.5H790.5V245Z" fill="white"/>
<path d="M791 244.5V203H859V244.5H791ZM790 245.5H860V202H790V245.5Z" fill="#CCCCCC"/>
<path d="M310 245.5H470V35H310V245.5Z" fill="white"/>
<path d="M310.5 245H469.5V35H310.5V245Z" fill="white"/>
<path d="M311 244.5V35.5H469V244.5H311ZM310 245.5H470V34.5H310V245.5Z" fill="#CCCCCC"/>
<path d="M790.5 99.5H859.5V0.5H790.5V99.5Z" fill="#E0E5FF"/>
<path d="M791 99V1H859V99H791ZM790 100H860V0H790V100Z" fill="#C9C7E4"/>
<path d="M790.5 202.5H859.5V99.5H790.5V202.5Z" fill="#F1F3F4"/>
<path d="M791 202V100H859V202H791ZM790 203H860V99H790V203Z" fill="#CCCCCC"/>
<path d="M310.5 82H389.5V35H310.5V82Z" fill="#E6E6E6"/>
<path d="M311 81.5V35.5H389V81.5H311ZM310 82.5H390V34.5H310V82.5Z" fill="#CCCCCC"/>
<path d="M310.5 164H351.5V123H310.5V164Z" fill="#F1F3F4"/>
<path d="M311 163.5V123.5H351V163.5H311ZM310 164.5H352V122.5H310V164.5Z" fill="#CCCCCC"/>
<path d="M0.5 245H69.5V202.5H0.5V245Z" fill="white"/>
<path d="M1 244.5V203H69V244.5H1ZM0 245.5H70V202H0V245.5Z" fill="#CCCCCC"/>
<path d="M0.5 99.5H69.5V0.5H0.5V99.5Z" fill="#E0E5FF"/>
<path d="M1 99V1H69V99H1ZM0 100H70V0H0V100Z" fill="#C9C7E4"/>
<path d="M0.5 202.5H69.5V99.5H0.5V202.5Z" fill="#F1F3F4"/>
<path d="M1 202V100H69V202H1ZM0 203H70V99H0V203Z" fill="#CCCCCC"/>
<path d="M389.5 144.5H469.5V35H389.5V144.5Z" fill="#E6E6E6"/>
<path d="M390 144V35.5H469V144H390ZM389 145H470V34.5H389V145Z" fill="#CCCCCC"/>
<path d="M389.5 82V164H351.5V123H310.5V82H389.5Z" fill="#E6E6E6"/>
<path d="M352 163.5V122.5H311V82.5H389V163.5H352ZM351 164.5H390V81.5H310V123.5H351V164.5Z" fill="#CCCCCC"/>
<path d="M469.5 245H790.5V35H469.5V245Z" fill="#FDF9EF"/>
<path d="M470 244.5V35.5H790V244.5H470ZM469 245.5H791V34.5H469V245.5Z" fill="#E9DFC9"/>
<path d="M69.5 245H310.5V35H69.5V245Z" fill="#FDF9EF"/>
<path d="M70 244.5V35.5H310V244.5H70ZM69 245.5H311V34.5H69V245.5Z" fill="#E9DFC9"/>
<path d="M1 244.5V1H69V35.5H791V1H859V244.5H1ZM0 245.5H860V0H790V34.5H70V0H0V245.5Z" fill="#CCCCCC"/>
</svg>
