<svg width="860" height="276" viewBox="0 0 860 276" fill="none" xmlns="http://www.w3.org/2000/svg">
<path d="M790.5 99.5L859.5 99.5V0.5L790.5 0.5V99.5Z" fill="#E0E5FF"/>
<path d="M791 99V1L859 1V99L791 99ZM790 100L860 100V0L790 0V100Z" fill="#C9C7E4"/>
<path d="M790.5 202.5H859.5V99.5L790.5 99.5V202.5Z" fill="#F1F3F4"/>
<path d="M791 202V100L859 100V202H791ZM790 203H860V99L790 99V203Z" fill="#CCCCCC"/>
<path d="M310.5 82L389.5 82V35L310.5 35V82Z" fill="#E6E6E6"/>
<path d="M311 81.5V35.5L389 35.5V81.5L311 81.5ZM310 82.5L390 82.5V34.5L310 34.5V82.5Z" fill="#CCCCCC"/>
<path d="M310.5 164H351.5V123H310.5V164Z" fill="#F1F3F4"/>
<path d="M311 163.5V123.5H351V163.5H311ZM310 164.5H352V122.5H310V164.5Z" fill="#CCCCCC"/>
<path d="M0.5 99.5L69.5 99.5L69.5 0.5L0.5 0.5L0.5 99.5Z" fill="#E0E5FF"/>
<path d="M1 99L1 1L69 1L69 99L1 99ZM0 100L70 100L70 0L0 0L0 100Z" fill="#C9C7E4"/>
<path d="M0.5 202.5H69.5L69.5 99.5L0.5 99.5L0.5 202.5Z" fill="#F1F3F4"/>
<path d="M1 202L1 100L69 100L69 202H1ZM0 203H70L70 99L0 99L0 203Z" fill="#CCCCCC"/>
<path d="M389.5 82V164H351.5V123H310.5V82L389.5 82Z" fill="#E6E6E6"/>
<path d="M352 163.5V122.5H311V82.5L389 82.5V163.5H352ZM351 164.5H390V81.5L310 81.5V123.5H351V164.5Z" fill="#CCCCCC"/>
<path d="M389.5 164V204L790.5 204V202.5H859.5V245L0.5 245V202.5H69.5V204L310.5 204V164H389.5Z" fill="white"/>
<path d="M1 244.5V203H69V204.5L311 204.5V164.5H389V204.5L791 204.5V203H859V244.5L1 244.5ZM0 245.5L860 245.5V202H790V203.5L390 203.5V163.5H310V203.5L70 203.5V202H0V245.5Z" fill="#CCCCCC"/>
<path d="M551.5 204L790.5 204V35L551.5 35V204Z" fill="#FDF9EF"/>
<path d="M552 203.5V35.5L790 35.5V203.5L552 203.5ZM551 204.5L791 204.5V34.5L551 34.5V204.5Z" fill="#E9DFC9"/>
<path d="M69.5 205L310.5 205V35L69.5 35L69.5 205Z" fill="#FDF9EF"/>
<path d="M70 204.5L70 35.5L310 35.5V204.5L70 204.5ZM69 205.5L311 205.5V34.5L69 34.5L69 205.5Z" fill="#E9DFC9"/>
<path d="M389.5 204L551.8 204V35L389.5 35V204Z" fill="#FDF9EF"/>
<path d="M390 203.5V35.5L551.3 35.5V203.5L390 203.5ZM389 204.5L552.3 204.5V34.5L389 34.5V204.5Z" fill="#E9DFC9"/>
<path d="M1 244.5V1L69 1V35.5L791 35.5V1H859V244.5L1 244.5ZM0 245.5L860 245.5V0H790V34.5L70 34.5V0L0 0V245.5Z" fill="#CCCCCC"/>
</svg>
