<svg width="266" height="483" viewBox="0 0 266 483" fill="none" xmlns="http://www.w3.org/2000/svg">
<g clip-path="url(#clip0_273_158)">
<rect x="265" y="482" width="74" height="71" transform="rotate(-180 265 482)" fill="#D9D9D9"/>
<rect x="264.5" y="481.5" width="73" height="71" transform="rotate(-180 264.5 481.5)" fill="white" stroke="#CCCCCC"/>
<rect x="191.5" y="481.5" width="49" height="49" transform="rotate(-180 191.5 481.5)" fill="#F1F3F4" stroke="#CCCCCC"/>
<path d="M191.5 411L191.5 432.5L142.5 432.5L142.5 412L142.5 411.5L142 411.5L84.5 411.5L84.5 342L84.5 341L84.5 284.5L107.5 284.5L107.5 341L107.5 341.5L108 341.5L142 341.5L142.5 341.5L142.5 341L142.5 284.5L264.5 284.5L264.5 410.5L192 410.5L191.5 410.5L191.5 411Z" fill="white" stroke="#CCCCCC"/>
<rect x="142.5" y="481.5" width="142" height="70" transform="rotate(-180 142.5 481.5)" fill="#F1F3F4" stroke="#CCCCCC"/>
<rect x="-0.5" y="0.5" width="84" height="23" transform="matrix(-1 -8.74228e-08 -8.74228e-08 1 84 388)" fill="#E6E6E6" stroke="#CCCCCC"/>
<rect x="-0.5" y="0.5" width="264" height="35" transform="matrix(-1 -8.74228e-08 -8.74228e-08 1 264 -4.37114e-08)" fill="#E6E6E6" stroke="#CCCCCC"/>
<rect x="-0.5" y="0.5" width="84" height="57" transform="matrix(-1 -8.74228e-08 -8.74228e-08 1 84 331)" fill="#E0E5FF" stroke="#CCCCCC"/>
<rect x="-0.5" y="0.5" width="84" height="47" transform="matrix(-1 -8.74228e-08 -8.74228e-08 1 84 284)" fill="#E0E5FF" stroke="#CCCCCC"/>
<rect x="-0.5" y="0.5" width="35" height="57" transform="matrix(-1 -8.74228e-08 -8.74228e-08 1 142 284)" fill="#E0E5FF" stroke="#CCCCCC"/>
<mask id="path-11-inside-1_273_158" fill="white">
<path d="M212 409L244 409L244 412L212 412L212 409Z"/>
</mask>
<path d="M212 409L244 409L244 412L212 412L212 409Z" fill="#CDF2FB"/>
<path d="M243 409L243 412L245 412L245 409L243 409ZM213 412L213 409L211 409L211 412L213 412Z" fill="#CCCCCC" mask="url(#path-11-inside-1_273_158)"/>
<rect x="-0.5" y="0.5" width="264" height="249" transform="matrix(-1 -8.74228e-08 -8.74228e-08 1 264 35)" fill="#FDF9EF" stroke="#F0E9D7"/>
<rect x="264.5" y="481.5" width="264" height="481" transform="rotate(-180 264.5 481.5)" stroke="#CCCCCC"/>
<mask id="path-15-inside-2_273_158" fill="white">
<path d="M266 342L266 374L263 374L263 342L266 342Z"/>
</mask>
<path d="M266 342L266 374L263 374L263 342L266 342Z" fill="#CDF2FB"/>
<path d="M266 373L263 373L263 375L266 375L266 373ZM263 343L266 343L266 341L263 341L263 343Z" fill="#CCCCCC" mask="url(#path-15-inside-2_273_158)"/>
<mask id="path-17-inside-3_273_158" fill="white">
<path d="M212 480L244 480L244 483L212 483L212 480Z"/>
</mask>
<path d="M212 480L244 480L244 483L212 483L212 480Z" fill="#CDF2FB"/>
<path d="M243 480L243 483L245 483L245 480L243 480ZM213 483L213 480L211 480L211 483L213 483Z" fill="#CCCCCC" mask="url(#path-17-inside-3_273_158)"/>
<mask id="path-19-inside-4_273_158" fill="white">
<path d="M143 482L104 482L104 411L143 411L143 482Z"/>
</mask>
<path d="M143 482L104 482L104 411L143 411L143 482Z" fill="white"/>
<path d="M143 482L143 483L144 483L144 482L143 482ZM104 482L103 482L103 483L104 483L104 482ZM143 481L104 481L104 483L143 483L143 481ZM105 482L105 411L103 411L103 482L105 482ZM142 411L142 482L144 482L144 411L142 411Z" fill="#CCCCCC" mask="url(#path-19-inside-4_273_158)"/>
</g>
<defs>
<clipPath id="clip0_273_158">
<rect width="266" height="483" fill="white" transform="translate(266 483) rotate(-180)"/>
</clipPath>
</defs>
</svg>
