<svg width="872" height="1173" viewBox="0 0 872 1173" fill="none" xmlns="http://www.w3.org/2000/svg">
<rect x="759" y="1014" width="160" height="112" transform="rotate(-90 759 1014)" fill="#E6E6E6" stroke="#CCCCCC"/>
<rect x="759" y="854" width="165" height="112" transform="rotate(-90 759 854)" fill="#E6E6E6" stroke="#CCCCCC"/>
<rect x="759" y="607" width="70" height="112" transform="rotate(-90 759 607)" fill="#F1F3F4" stroke="#CCCCCC"/>
<rect x="759" y="537" width="153" height="112" transform="rotate(-90 759 537)" fill="#E6E6E6" stroke="#CCCCCC"/>
<rect x="721" y="503" width="119" height="38" transform="rotate(-90 721 503)" fill="#E6E6E6" stroke="#CCCCCC"/>
<rect x="276" y="495" width="111" height="149" transform="rotate(-90 276 495)" fill="#E6E6E6" stroke="#CCCCCC"/>
<rect x="425" y="824" width="257" height="296" transform="rotate(-90 425 824)" fill="#E6E6E6" stroke="#CCCCCC"/>
<rect x="127" y="320" width="161" height="149" transform="rotate(-90 127 320)" fill="#E6E6E6" stroke="#CCCCCC"/>
<rect x="573" y="160" width="159" height="92" transform="rotate(-90 573 160)" fill="#E6E6E6" stroke="#CCCCCC"/>
<rect x="665" y="160" width="159" height="205" transform="rotate(-90 665 160)" fill="#E6E6E6" stroke="#CCCCCC"/>
<rect x="720" y="320" width="160" height="150" transform="rotate(-90 720 320)" fill="#E6E6E6" stroke="#CCCCCC"/>
<rect x="646" y="320" width="112" height="74" transform="rotate(-90 646 320)" fill="#E6E6E6" stroke="#CCCCCC"/>
<rect x="573" y="320" width="112" height="74" transform="rotate(-90 573 320)" fill="#E6E6E6" stroke="#CCCCCC"/>
<rect x="472" y="320" width="112" height="17" transform="rotate(-90 472 320)" fill="#E6E6E6" stroke="#CCCCCC"/>
<rect x="489" y="320" width="112" height="84" transform="rotate(-90 489 320)" fill="#F1F3F4" stroke="#CCCCCC"/>
<rect x="128" y="853" width="79" height="108" transform="rotate(-90 128 853)" fill="#F1F3F4" stroke="#CCCCCC"/>
<mask id="path-17-inside-1_297_935" fill="white">
<path fill-rule="evenodd" clip-rule="evenodd" d="M89.5 953.5L89.5 852.5L235.5 852.5L235.5 774.5L171.5 774.5L171.5 693.5L236.5 693.5L236.5 694.5L351.5 694.5L351.5 494.5L424.5 494.5L424.5 158.5L472.5 158.5L472.5 159.5L720.5 159.5L720.5 208.5L472.5 208.5L472.5 536.5L720.5 536.5L720.5 502.5L759.5 502.5L759.5 823.5L759.5 854.5L759.5 1012.5L720.5 1012.5L720.5 854.5L425.5 854.5L423.5 854.5L385.5 854.5L385.5 903.5L276.5 903.5L276.5 954.5L134.5 954.5L134.5 1008.5L89.5 1008.5L89.5 954.5L89.5 953.5ZM720.5 823.5L720.5 567.5L425.5 567.5L425.5 823.5L720.5 823.5Z"/>
</mask>
<path fill-rule="evenodd" clip-rule="evenodd" d="M89.5 953.5L89.5 852.5L235.5 852.5L235.5 774.5L171.5 774.5L171.5 693.5L236.5 693.5L236.5 694.5L351.5 694.5L351.5 494.5L424.5 494.5L424.5 158.5L472.5 158.5L472.5 159.5L720.5 159.5L720.5 208.5L472.5 208.5L472.5 536.5L720.5 536.5L720.5 502.5L759.5 502.5L759.5 823.5L759.5 854.5L759.5 1012.5L720.5 1012.5L720.5 854.5L425.5 854.5L423.5 854.5L385.5 854.5L385.5 903.5L276.5 903.5L276.5 954.5L134.5 954.5L134.5 1008.5L89.5 1008.5L89.5 954.5L89.5 953.5ZM720.5 823.5L720.5 567.5L425.5 567.5L425.5 823.5L720.5 823.5Z" fill="white"/>
<path d="M89.5 852.5L89.5 851.5L88.5 851.5L88.5 852.5L89.5 852.5ZM89.5 953.5L90.5 953.5L89.5 953.5ZM235.5 852.5L235.5 853.5L236.5 853.5L236.5 852.5L235.5 852.5ZM235.5 774.5L236.5 774.5L236.5 773.5L235.5 773.5L235.5 774.5ZM171.5 774.5L170.5 774.5L170.5 775.5L171.5 775.5L171.5 774.5ZM171.5 693.5L171.5 692.5L170.5 692.5L170.5 693.5L171.5 693.5ZM236.5 693.5L237.5 693.5L237.5 692.5L236.5 692.5L236.5 693.5ZM236.5 694.5L235.5 694.5L235.5 695.5L236.5 695.5L236.5 694.5ZM351.5 694.5L351.5 695.5L352.5 695.5L352.5 694.5L351.5 694.5ZM351.5 494.5L351.5 493.5L350.5 493.5L350.5 494.5L351.5 494.5ZM424.5 494.5L424.5 495.5L425.5 495.5L425.5 494.5L424.5 494.5ZM424.5 158.5L424.5 157.5L423.5 157.5L423.5 158.5L424.5 158.5ZM472.5 158.5L473.5 158.5L473.5 157.5L472.5 157.5L472.5 158.5ZM472.5 159.5L471.5 159.5L471.5 160.5L472.5 160.5L472.5 159.5ZM720.5 159.5L721.5 159.5L721.5 158.5L720.5 158.5L720.5 159.5ZM720.5 208.5L720.5 209.5L721.5 209.5L721.5 208.5L720.5 208.5ZM472.5 208.5L472.5 207.5L471.5 207.5L471.5 208.5L472.5 208.5ZM472.5 536.5L471.5 536.5L471.5 537.5L472.5 537.5L472.5 536.5ZM720.5 536.5L720.5 537.5L721.5 537.5L721.5 536.5L720.5 536.5ZM720.5 502.5L720.5 501.5L719.5 501.5L719.5 502.5L720.5 502.5ZM759.5 502.5L760.5 502.5L760.5 501.5L759.5 501.5L759.5 502.5ZM759.5 1012.5L759.5 1013.5L760.5 1013.5L760.5 1012.5L759.5 1012.5ZM720.5 1012.5L719.5 1012.5L719.5 1013.5L720.5 1013.5L720.5 1012.5ZM720.5 854.5L721.5 854.5L721.5 853.5L720.5 853.5L720.5 854.5ZM425.5 854.5L425.5 853.5L425.5 854.5ZM385.5 854.5L385.5 853.5L384.5 853.5L384.5 854.5L385.5 854.5ZM385.5 903.5L385.5 904.5L386.5 904.5L386.5 903.5L385.5 903.5ZM276.5 903.5L276.5 902.5L275.5 902.5L275.5 903.5L276.5 903.5ZM276.5 954.5L276.5 955.5L277.5 955.5L277.5 954.5L276.5 954.5ZM134.5 954.5L134.5 953.5L133.5 953.5L133.5 954.5L134.5 954.5ZM134.5 1008.5L134.5 1009.5L135.5 1009.5L135.5 1008.5L134.5 1008.5ZM89.5 1008.5L88.5 1008.5L88.5 1009.5L89.5 1009.5L89.5 1008.5ZM89.5 954.5L88.5 954.5L89.5 954.5ZM720.5 567.5L721.5 567.5L721.5 566.5L720.5 566.5L720.5 567.5ZM720.5 823.5L720.5 824.5L721.5 824.5L721.5 823.5L720.5 823.5ZM425.5 567.5L425.5 566.5L424.5 566.5L424.5 567.5L425.5 567.5ZM425.5 823.5L424.5 823.5L424.5 824.5L425.5 824.5L425.5 823.5ZM88.5 852.5L88.5 953.5L90.5 953.5L90.5 852.5L88.5 852.5ZM235.5 851.5L89.5 851.5L89.5 853.5L235.5 853.5L235.5 851.5ZM234.5 774.5L234.5 852.5L236.5 852.5L236.5 774.5L234.5 774.5ZM171.5 775.5L235.5 775.5L235.5 773.5L171.5 773.5L171.5 775.5ZM170.5 693.5L170.5 774.5L172.5 774.5L172.5 693.5L170.5 693.5ZM236.5 692.5L171.5 692.5L171.5 694.5L236.5 694.5L236.5 692.5ZM237.5 694.5L237.5 693.5L235.5 693.5L235.5 694.5L237.5 694.5ZM351.5 693.5L236.5 693.5L236.5 695.5L351.5 695.5L351.5 693.5ZM350.5 494.5L350.5 694.5L352.5 694.5L352.5 494.5L350.5 494.5ZM424.5 493.5L351.5 493.5L351.5 495.5L424.5 495.5L424.5 493.5ZM423.5 158.5L423.5 494.5L425.5 494.5L425.5 158.5L423.5 158.5ZM472.5 157.5L424.5 157.5L424.5 159.5L472.5 159.5L472.5 157.5ZM473.5 159.5L473.5 158.5L471.5 158.5L471.5 159.5L473.5 159.5ZM720.5 158.5L472.5 158.5L472.5 160.5L720.5 160.5L720.5 158.5ZM721.5 208.5L721.5 159.5L719.5 159.5L719.5 208.5L721.5 208.5ZM472.5 209.5L720.5 209.5L720.5 207.5L472.5 207.5L472.5 209.5ZM473.5 536.5L473.5 208.5L471.5 208.5L471.5 536.5L473.5 536.5ZM720.5 535.5L472.5 535.5L472.5 537.5L720.5 537.5L720.5 535.5ZM719.5 502.5L719.5 536.5L721.5 536.5L721.5 502.5L719.5 502.5ZM759.5 501.5L720.5 501.5L720.5 503.5L759.5 503.5L759.5 501.5ZM760.5 823.5L760.5 502.5L758.5 502.5L758.5 823.5L760.5 823.5ZM760.5 854.5L760.5 823.5L758.5 823.5L758.5 854.5L760.5 854.5ZM760.5 1012.5L760.5 854.5L758.5 854.5L758.5 1012.5L760.5 1012.5ZM720.5 1013.5L759.5 1013.5L759.5 1011.5L720.5 1011.5L720.5 1013.5ZM719.5 854.5L719.5 1012.5L721.5 1012.5L721.5 854.5L719.5 854.5ZM425.5 855.5L720.5 855.5L720.5 853.5L425.5 853.5L425.5 855.5ZM423.5 855.5L425.5 855.5L425.5 853.5L423.5 853.5L423.5 855.5ZM385.5 855.5L423.5 855.5L423.5 853.5L385.5 853.5L385.5 855.5ZM386.5 903.5L386.5 854.5L384.5 854.5L384.5 903.5L386.5 903.5ZM276.5 904.5L385.5 904.5L385.5 902.5L276.5 902.5L276.5 904.5ZM277.5 954.5L277.5 903.5L275.5 903.5L275.5 954.5L277.5 954.5ZM134.5 955.5L276.5 955.5L276.5 953.5L134.5 953.5L134.5 955.5ZM133.5 954.5L133.5 1008.5L135.5 1008.5L135.5 954.5L133.5 954.5ZM134.5 1007.5L89.5 1007.5L89.5 1009.5L134.5 1009.5L134.5 1007.5ZM90.5 1008.5L90.5 954.5L88.5 954.5L88.5 1008.5L90.5 1008.5ZM90.5 954.5L90.5 953.5L88.5 953.5L88.5 954.5L90.5 954.5ZM719.5 567.5L719.5 823.5L721.5 823.5L721.5 567.5L719.5 567.5ZM425.5 568.5L720.5 568.5L720.5 566.5L425.5 566.5L425.5 568.5ZM426.5 823.5L426.5 567.5L424.5 567.5L424.5 823.5L426.5 823.5ZM720.5 822.5L425.5 822.5L425.5 824.5L720.5 824.5L720.5 822.5Z" fill="#CCCCCC" mask="url(#path-17-inside-1_297_935)"/>
<rect x="128" y="774" width="80" height="44" transform="rotate(-90 128 774)" fill="#F1F3F4" stroke="#CCCCCC"/>
<mask id="path-20-inside-2_297_935" fill="white">
<path fill-rule="evenodd" clip-rule="evenodd" d="M126.5 0.5L126.5 160.5L275.5 160.5L275.5 320.5L425.5 320.5L425.5 160.5L573.5 160.5L573.5 0.49998L126.5 0.5Z"/>
</mask>
<path fill-rule="evenodd" clip-rule="evenodd" d="M126.5 0.5L126.5 160.5L275.5 160.5L275.5 320.5L425.5 320.5L425.5 160.5L573.5 160.5L573.5 0.49998L126.5 0.5Z" fill="#E6E6E6"/>
<path d="M126.5 160.5L125.5 160.5L125.5 161.5L126.5 161.5L126.5 160.5ZM126.5 0.5L126.5 -0.5L125.5 -0.5L125.5 0.5L126.5 0.5ZM275.5 160.5L276.5 160.5L276.5 159.5L275.5 159.5L275.5 160.5ZM275.5 320.5L274.5 320.5L274.5 321.5L275.5 321.5L275.5 320.5ZM425.5 320.5L425.5 321.5L426.5 321.5L426.5 320.5L425.5 320.5ZM425.5 160.5L425.5 159.5L424.5 159.5L424.5 160.5L425.5 160.5ZM573.5 160.5L573.5 161.5L574.5 161.5L574.5 160.5L573.5 160.5ZM573.5 0.49998L574.5 0.49998L574.5 -0.50002L573.5 -0.50002L573.5 0.49998ZM127.5 160.5L127.5 0.5L125.5 0.5L125.5 160.5L127.5 160.5ZM275.5 159.5L126.5 159.5L126.5 161.5L275.5 161.5L275.5 159.5ZM276.5 320.5L276.5 160.5L274.5 160.5L274.5 320.5L276.5 320.5ZM425.5 319.5L275.5 319.5L275.5 321.5L425.5 321.5L425.5 319.5ZM424.5 160.5L424.5 320.5L426.5 320.5L426.5 160.5L424.5 160.5ZM573.5 159.5L425.5 159.5L425.5 161.5L573.5 161.5L573.5 159.5ZM572.5 0.499981L572.5 160.5L574.5 160.5L574.5 0.49998L572.5 0.499981ZM126.5 1.5L573.5 1.49998L573.5 -0.50002L126.5 -0.5L126.5 1.5Z" fill="#CCCCCC" mask="url(#path-20-inside-2_297_935)"/>
<rect x="276" y="1012" width="109" height="109" transform="rotate(-90 276 1012)" fill="#E6E6E6" stroke="#CCCCCC"/>
<rect x="134" y="1018" width="64" height="142" transform="rotate(-90 134 1018)" fill="white" stroke="#CCCCCC"/>
<mask id="path-24-inside-3_297_935" fill="white">
<path fill-rule="evenodd" clip-rule="evenodd" d="M0.500025 1126.5L0.500027 1172.5L196.5 1172.5L196.5 1126.5L125.5 1126.5L125.5 1124.5L133.5 1124.5L134.5 1124.5L198.5 1124.5L198.5 1017.5L133.5 1017.5L133.5 1081.5L125.5 1081.5L122.5 1081.5L71.5 1081.5L71.5 1126.5L0.500025 1126.5Z"/>
</mask>
<path fill-rule="evenodd" clip-rule="evenodd" d="M0.500025 1126.5L0.500027 1172.5L196.5 1172.5L196.5 1126.5L125.5 1126.5L125.5 1124.5L133.5 1124.5L134.5 1124.5L198.5 1124.5L198.5 1017.5L133.5 1017.5L133.5 1081.5L125.5 1081.5L122.5 1081.5L71.5 1081.5L71.5 1126.5L0.500025 1126.5Z" fill="#F1F3F4"/>
<path d="M0.500027 1172.5L-0.499973 1172.5L-0.499973 1173.5L0.500027 1173.5L0.500027 1172.5ZM0.500025 1126.5L0.500025 1125.5L-0.499975 1125.5L-0.499975 1126.5L0.500025 1126.5ZM196.5 1172.5L196.5 1173.5L197.5 1173.5L197.5 1172.5L196.5 1172.5ZM196.5 1126.5L197.5 1126.5L197.5 1125.5L196.5 1125.5L196.5 1126.5ZM125.5 1126.5L124.5 1126.5L124.5 1127.5L125.5 1127.5L125.5 1126.5ZM125.5 1124.5L125.5 1123.5L124.5 1123.5L124.5 1124.5L125.5 1124.5ZM198.5 1124.5L198.5 1125.5L199.5 1125.5L199.5 1124.5L198.5 1124.5ZM198.5 1017.5L199.5 1017.5L199.5 1016.5L198.5 1016.5L198.5 1017.5ZM133.5 1017.5L133.5 1016.5L132.5 1016.5L132.5 1017.5L133.5 1017.5ZM133.5 1081.5L133.5 1082.5L134.5 1082.5L134.5 1081.5L133.5 1081.5ZM71.5 1081.5L71.5 1080.5L70.5 1080.5L70.5 1081.5L71.5 1081.5ZM71.5 1126.5L71.5 1127.5L72.5 1127.5L72.5 1126.5L71.5 1126.5ZM1.50003 1172.5L1.50002 1126.5L-0.499975 1126.5L-0.499973 1172.5L1.50003 1172.5ZM196.5 1171.5L0.500027 1171.5L0.500027 1173.5L196.5 1173.5L196.5 1171.5ZM195.5 1126.5L195.5 1172.5L197.5 1172.5L197.5 1126.5L195.5 1126.5ZM125.5 1127.5L196.5 1127.5L196.5 1125.5L125.5 1125.5L125.5 1127.5ZM124.5 1124.5L124.5 1126.5L126.5 1126.5L126.5 1124.5L124.5 1124.5ZM133.5 1123.5L125.5 1123.5L125.5 1125.5L133.5 1125.5L133.5 1123.5ZM134.5 1123.5L133.5 1123.5L133.5 1125.5L134.5 1125.5L134.5 1123.5ZM198.5 1123.5L134.5 1123.5L134.5 1125.5L198.5 1125.5L198.5 1123.5ZM197.5 1017.5L197.5 1124.5L199.5 1124.5L199.5 1017.5L197.5 1017.5ZM133.5 1018.5L198.5 1018.5L198.5 1016.5L133.5 1016.5L133.5 1018.5ZM134.5 1081.5L134.5 1017.5L132.5 1017.5L132.5 1081.5L134.5 1081.5ZM125.5 1082.5L133.5 1082.5L133.5 1080.5L125.5 1080.5L125.5 1082.5ZM122.5 1082.5L125.5 1082.5L125.5 1080.5L122.5 1080.5L122.5 1082.5ZM71.5 1082.5L122.5 1082.5L122.5 1080.5L71.5 1080.5L71.5 1082.5ZM72.5 1126.5L72.5 1081.5L70.5 1081.5L70.5 1126.5L72.5 1126.5ZM0.500025 1127.5L71.5 1127.5L71.5 1125.5L0.500025 1125.5L0.500025 1127.5Z" fill="#CCCCCC" mask="url(#path-24-inside-3_297_935)"/>
<rect x="385" y="1012" width="158" height="336" transform="rotate(-90 385 1012)" fill="#FDF9EF" stroke="#CCCCCC"/>
<rect x="276" y="694" width="199" height="76" transform="rotate(-90 276 694)" fill="#E6E6E6" stroke="#CCCCCC"/>
<rect x="-0.5" y="-0.5" width="72" height="148" transform="matrix(-4.37114e-08 -1 -1 4.37114e-08 275.5 693.5)" fill="#E6E6E6" stroke="#CCCCCC"/>
<rect x="-0.5" y="-0.5" width="238" height="148" transform="matrix(-4.37114e-08 -1 -1 4.37114e-08 275.5 621.5)" fill="#E6E6E6" stroke="#CCCCCC"/>
<rect x="472" y="537" width="153" height="249" transform="rotate(-90 472 537)" fill="#FDF9EF" stroke="#CCCCCC"/>
<rect x="759" y="689" width="82" height="112" transform="rotate(-90 759 689)" fill="#E0E5FF" stroke="#CCCCCC"/>
<mask id="path-32-inside-4_297_935" fill="white">
<path d="M173.5 952.5H237.5L237.5 955.5H173.5L173.5 952.5Z"/>
</mask>
<path d="M173.5 952.5H237.5L237.5 955.5H173.5L173.5 952.5Z" fill="#CDF2FB"/>
<path d="M236.5 952.5L236.5 955.5H238.5L238.5 952.5H236.5ZM174.5 955.5L174.5 952.5H172.5L172.5 955.5H174.5Z" fill="#CCCCCC" mask="url(#path-32-inside-4_297_935)"/>
</svg>
