<svg width="440" height="322" viewBox="0 0 440 322" fill="none" xmlns="http://www.w3.org/2000/svg">
<g clip-path="url(#clip0_270_3)">
<rect x="0.5" y="224.5" width="84" height="46" transform="rotate(-90 0.5 224.5)" fill="#F1F3F4" stroke="#CCCCCC"/>
<rect x="46.5" y="140.5" width="45" height="48" transform="rotate(-90 46.5 140.5)" fill="#F1F3F4" stroke="#CCCCCC"/>
<rect x="46.5" y="95.5" width="13" height="48" transform="rotate(-90 46.5 95.5)" fill="#E6E6E6" stroke="#CCCCCC"/>
<rect x="349.5" y="81.5" width="80" height="63" transform="rotate(-90 349.5 81.5)" fill="#E6E6E6" stroke="#CCCCCC"/>
<rect x="349.5" y="320.5" width="77" height="63" transform="rotate(-90 349.5 320.5)" fill="#E6E6E6" stroke="#CCCCCC"/>
<rect x="268.5" y="320.5" width="77" height="81" transform="rotate(-90 268.5 320.5)" fill="white" stroke="#CCCCCC"/>
<mask id="path-7-inside-1_270_3" fill="white">
<path fill-rule="evenodd" clip-rule="evenodd" d="M-2.49155e-06 264L-4.24e-06 224L46 224L46 140L94 140L94 0.999996L268 0.999988L269 0.999988L350 0.999985L350 80L413 80L413 244L269 244L269 321L94 321L94 264L46 264L-2.49155e-06 264Z"/>
</mask>
<path fill-rule="evenodd" clip-rule="evenodd" d="M-2.49155e-06 264L-4.24e-06 224L46 224L46 140L94 140L94 0.999996L268 0.999988L269 0.999988L350 0.999985L350 80L413 80L413 244L269 244L269 321L94 321L94 264L46 264L-2.49155e-06 264Z" fill="white"/>
<path d="M-4.24e-06 224L-4.28372e-06 223L-1 223L-1 224L-4.24e-06 224ZM-2.49155e-06 264L-1 264L-1 265L-2.44784e-06 265L-2.49155e-06 264ZM46 224L46 225L47 225L47 224L46 224ZM46 140L46 139L45 139L45 140L46 140ZM94 140L94 141L95 141L95 140L94 140ZM94 0.999996L94 -4.10887e-06L93 -4.06516e-06L93 0.999996L94 0.999996ZM350 0.999985L351 0.999985L351 -1.53427e-05L350 -1.5299e-05L350 0.999985ZM350 80L349 80L349 81L350 81L350 80ZM413 80L414 80L414 79L413 79L413 80ZM413 244L413 245L414 245L414 244L413 244ZM269 244L269 243L268 243L268 244L269 244ZM269 321L269 322L270 322L270 321L269 321ZM94 321L93 321L93 322L94 322L94 321ZM94 264L95 264L95 263L94 263L94 264ZM-1 224L-1 264L0.999998 264L0.999996 224L-1 224ZM46 223L-4.28372e-06 223L-4.19629e-06 225L46 225L46 223ZM47 224L47 140L45 140L45 224L47 224ZM46 141L94 141L94 139L46 139L46 141ZM93 0.999996L93 140L95 140L95 0.999996L93 0.999996ZM268 -1.17147e-05L94 -4.10887e-06L94 2L268 1.99999L268 -1.17147e-05ZM269 -1.17584e-05L268 -1.17147e-05L268 1.99999L269 1.99999L269 -1.17584e-05ZM350 -1.5299e-05L269 -1.17584e-05L269 1.99999L350 1.99998L350 -1.5299e-05ZM351 80L351 0.999985L349 0.999985L349 80L351 80ZM413 79L350 79L350 81L413 81L413 79ZM414 244L414 80L412 80L412 244L414 244ZM269 245L413 245L413 243L269 243L269 245ZM270 321L270 244L268 244L268 321L270 321ZM94 322L269 322L269 320L94 320L94 322ZM93 264L93 321L95 321L95 264L93 264ZM94 263L46 263L46 265L94 265L94 263ZM-2.44784e-06 265L46 265L46 263L-2.53526e-06 263L-2.44784e-06 265Z" fill="#CCCCCC" mask="url(#path-7-inside-1_270_3)"/>
<mask id="path-9-inside-2_270_3" fill="white">
<path fill-rule="evenodd" clip-rule="evenodd" d="M0 141L-2.49155e-06 84L-2.53526e-06 83L-3.62805e-06 58L95 58L95 84L47 84L47 141L0 141Z"/>
</mask>
<path fill-rule="evenodd" clip-rule="evenodd" d="M0 141L-2.49155e-06 84L-2.53526e-06 83L-3.62805e-06 58L95 58L95 84L47 84L47 141L0 141Z" fill="#E6E6E6"/>
<path d="M0 141L-1 141L-1 142L4.37114e-08 142L0 141ZM-3.62805e-06 58L-3.67176e-06 57L-1 57L-1 58L-3.62805e-06 58ZM95 58L96 58L96 57L95 57L95 58ZM95 84L95 85L96 85L96 84L95 84ZM47 84L47 83L46 83L46 84L47 84ZM47 141L47 142L48 142L48 141L47 141ZM-1 84L-1 141L1 141L0.999998 84L-1 84ZM0.999998 84L0.999997 83L-1 83L-1 84L0.999998 84ZM0.999997 83L0.999996 58L-1 58L-1 83L0.999997 83ZM-3.58433e-06 59L95 59L95 57L-3.67176e-06 57L-3.58433e-06 59ZM94 58L94 84L96 84L96 58L94 58ZM95 83L47 83L47 85L95 85L95 83ZM48 141L48 84L46 84L46 141L48 141ZM4.37114e-08 142L47 142L47 140L-4.37114e-08 140L4.37114e-08 142Z" fill="#CCCCCC" mask="url(#path-9-inside-2_270_3)"/>
<rect x="0.5" y="320.5" width="57" height="94" transform="rotate(-90 0.5 320.5)" fill="#E0E5FF" stroke="#CCCCCC"/>
<rect x="0.5" y="58.5" width="57" height="94" transform="rotate(-90 0.5 58.5)" fill="#E0E5FF" stroke="#CCCCCC"/>
<rect x="0.5" y="320.5" width="319" height="412" transform="rotate(-90 0.5 320.5)" stroke="#CCCCCC"/>
<line x1="155.5" y1="243" x2="155.5" y2="321" stroke="#CCCCCC"/>
<line x1="155.5" y1="1" x2="155.5" y2="151" stroke="#CCCCCC"/>
<line x1="94.5" y1="140" x2="94.5" y2="225" stroke="#CCCCCC"/>
<mask id="path-17-inside-3_270_3" fill="white">
<path d="M270 265.653L270 297.853L267 297.853L267 265.653L270 265.653Z"/>
</mask>
<path d="M270 265.653L270 297.853L267 297.853L267 265.653L270 265.653Z" fill="#CDF2FB"/>
<path d="M270 296.853L267 296.853L267 298.853L270 298.853L270 296.853ZM267 266.653L270 266.653L270 264.653L267 264.653L267 266.653Z" fill="#CCCCCC" mask="url(#path-17-inside-3_270_3)"/>
<mask id="path-19-inside-4_270_3" fill="white">
<path d="M325 322.003L293 322.003L293 318.984L325 318.984L325 322.003Z"/>
</mask>
<path d="M325 322.003L293 322.003L293 318.984L325 318.984L325 322.003Z" fill="#CDF2FB"/>
<path d="M294 322.003L294 318.984L292 318.984L292 322.003L294 322.003ZM324 318.984L324 322.003L326 322.003L326 318.984L324 318.984Z" fill="#CCCCCC" mask="url(#path-19-inside-4_270_3)"/>
<mask id="path-21-inside-5_270_3" fill="white">
<path d="M141 3.0188L109 3.0188L109 5.45431e-05L141 5.17368e-05L141 3.0188Z"/>
</mask>
<path d="M141 3.0188L109 3.0188L109 5.45431e-05L141 5.17368e-05L141 3.0188Z" fill="#CDF2FB"/>
<path d="M110 3.0188L110 5.44554e-05L108 5.46308e-05L108 3.0188L110 3.0188ZM140 5.18245e-05L140 3.0188L142 3.0188L142 5.16491e-05L140 5.18245e-05Z" fill="#CCCCCC" mask="url(#path-21-inside-5_270_3)"/>
<mask id="path-23-inside-6_270_3" fill="white">
<path d="M411 215.341L411 183.141L414 183.141L414 215.341L411 215.341Z"/>
</mask>
<path d="M411 215.341L411 183.141L414 183.141L414 215.341L411 215.341Z" fill="#CDF2FB"/>
<path d="M411 184.141L414 184.141L414 182.141L411 182.141L411 184.141ZM414 214.341L411 214.341L411 216.341L414 216.341L414 214.341Z" fill="#CCCCCC" mask="url(#path-23-inside-6_270_3)"/>
</g>
<defs>
<clipPath id="clip0_270_3">
<rect width="322" height="440" fill="white" transform="translate(0 322) rotate(-90)"/>
</clipPath>
</defs>
</svg>
