<svg width="440" height="322" viewBox="0 0 440 322" fill="none" xmlns="http://www.w3.org/2000/svg">
<g clip-path="url(#clip0_271_85)">
<rect x="0.5" y="224.5" width="84" height="94" transform="rotate(-90 0.5 224.5)" fill="#F1F3F4" stroke="#CCCCCC"/>
<rect x="46.5" y="140.5" width="45" height="48" transform="rotate(-90 46.5 140.5)" fill="#F1F3F4" stroke="#CCCCCC"/>
<rect x="46.5" y="95.5" width="13" height="48" transform="rotate(-90 46.5 95.5)" fill="#E6E6E6" stroke="#CCCCCC"/>
<mask id="path-4-inside-1_271_85" fill="white">
<path fill-rule="evenodd" clip-rule="evenodd" d="M-4.24e-06 224L-2.49155e-06 264L94 264L94 321L156 321L156 0.999993L94 0.999996L94 224L-4.24e-06 224Z"/>
</mask>
<path fill-rule="evenodd" clip-rule="evenodd" d="M-4.24e-06 224L-2.49155e-06 264L94 264L94 321L156 321L156 0.999993L94 0.999996L94 224L-4.24e-06 224Z" fill="white"/>
<path d="M-2.49155e-06 264L-1 264L-1 265L-2.44784e-06 265L-2.49155e-06 264ZM-4.24e-06 224L-4.28372e-06 223L-1 223L-1 224L-4.24e-06 224ZM94 264L95 264L95 263L94 263L94 264ZM94 321L93 321L93 322L94 322L94 321ZM156 321L156 322L157 322L157 321L156 321ZM156 0.999993L157 0.999993L157 -6.86269e-06L156 -6.81898e-06L156 0.999993ZM94 0.999996L94 -4.10887e-06L93 -4.06516e-06L93 0.999996L94 0.999996ZM94 224L94 225L95 225L95 224L94 224ZM0.999998 264L0.999996 224L-1 224L-1 264L0.999998 264ZM94 263L-2.53526e-06 263L-2.44784e-06 265L94 265L94 263ZM95 321L95 264L93 264L93 321L95 321ZM156 320L94 320L94 322L156 322L156 320ZM155 0.999993L155 321L157 321L157 0.999993L155 0.999993ZM94 2L156 1.99999L156 -6.81898e-06L94 -4.10887e-06L94 2ZM95 224L95 0.999996L93 0.999996L93 224L95 224ZM-4.19629e-06 225L94 225L94 223L-4.28372e-06 223L-4.19629e-06 225Z" fill="#CCCCCC" mask="url(#path-4-inside-1_271_85)"/>
<mask id="path-6-inside-2_271_85" fill="white">
<path fill-rule="evenodd" clip-rule="evenodd" d="M0 141L-2.49155e-06 84L-2.53526e-06 83L-3.62805e-06 58L95 58L95 84L47 84L47 141L0 141Z"/>
</mask>
<path fill-rule="evenodd" clip-rule="evenodd" d="M0 141L-2.49155e-06 84L-2.53526e-06 83L-3.62805e-06 58L95 58L95 84L47 84L47 141L0 141Z" fill="#E6E6E6"/>
<path d="M0 141L-1 141L-1 142L4.37114e-08 142L0 141ZM-3.62805e-06 58L-3.67176e-06 57L-1 57L-1 58L-3.62805e-06 58ZM95 58L96 58L96 57L95 57L95 58ZM95 84L95 85L96 85L96 84L95 84ZM47 84L47 83L46 83L46 84L47 84ZM47 141L47 142L48 142L48 141L47 141ZM-1 84L-1 141L1 141L0.999998 84L-1 84ZM0.999998 84L0.999997 83L-1 83L-1 84L0.999998 84ZM0.999997 83L0.999996 58L-1 58L-1 83L0.999997 83ZM-3.58433e-06 59L95 59L95 57L-3.67176e-06 57L-3.58433e-06 59ZM94 58L94 84L96 84L96 58L94 58ZM95 83L47 83L47 85L95 85L95 83ZM48 141L48 84L46 84L46 141L48 141ZM4.37114e-08 142L47 142L47 140L-4.37114e-08 140L4.37114e-08 142Z" fill="#CCCCCC" mask="url(#path-6-inside-2_271_85)"/>
<rect x="0.5" y="320.5" width="57" height="94" transform="rotate(-90 0.5 320.5)" fill="#E6E6E6" stroke="#CCCCCC"/>
<rect x="0.5" y="58.5" width="57" height="94" transform="rotate(-90 0.5 58.5)" fill="#E0E5FF" stroke="#CCCCCC"/>
<line x1="94.5" y1="140" x2="94.5" y2="225" stroke="#CCCCCC"/>
<rect x="412.5" y="1.5" width="27" height="319" fill="#E6E6E6" stroke="#CCCCCC"/>
<rect x="155.5" y="1.5" width="257" height="319" fill="#FDF9EF" stroke="#E9DFC9"/>
<rect x="0.5" y="320.5" width="319" height="439" transform="rotate(-90 0.5 320.5)" stroke="#CCCCCC"/>
</g>
<defs>
<clipPath id="clip0_271_85">
<rect width="322" height="440" fill="white" transform="translate(0 322) rotate(-90)"/>
</clipPath>
</defs>
</svg>
