<svg width="963" height="806" viewBox="0 0 963 806" fill="none" xmlns="http://www.w3.org/2000/svg">
<rect x="0.5" y="642.5" width="170" height="110" transform="rotate(-90 0.5 642.5)" fill="#E6E6E6" stroke="#CCCCCC"/>
<rect x="0.5" y="409.5" width="89" height="110" transform="rotate(-90 0.5 409.5)" fill="#E0E5FF" stroke="#CCCCCC"/>
<rect x="0.5" y="320.5" width="81" height="110" transform="rotate(-90 0.5 320.5)" fill="#E6E6E6" stroke="#CCCCCC"/>
<rect x="0.5" y="239.5" width="239" height="110" transform="rotate(-90 0.5 239.5)" fill="#E6E6E6" stroke="#CCCCCC"/>
<rect x="150.5" y="121.5" width="121" height="77" transform="rotate(-90 150.5 121.5)" fill="#E6E6E6" stroke="#CCCCCC"/>
<rect x="227.5" y="121.5" width="121" height="149" transform="rotate(-90 227.5 121.5)" fill="#E6E6E6" stroke="#CCCCCC"/>
<rect x="376.5" y="121.5" width="121" height="148" transform="rotate(-90 376.5 121.5)" fill="#E6E6E6" stroke="#CCCCCC"/>
<rect x="599.5" y="121.5" width="121" height="70" transform="rotate(-90 599.5 121.5)" fill="#E6E6E6" stroke="#CCCCCC"/>
<rect x="669.5" y="121.5" width="121" height="78" transform="rotate(-90 669.5 121.5)" fill="#E6E6E6" stroke="#CCCCCC"/>
<rect x="524.5" y="121.5" width="121" height="75" transform="rotate(-90 524.5 121.5)" fill="#E6E6E6" stroke="#CCCCCC"/>
<rect x="0.5" y="472.5" width="63" height="82" transform="rotate(-90 0.5 472.5)" fill="#F1F3F4" stroke="#CCCCCC"/>
<rect x="820.5" y="228.5" width="63" height="82" transform="rotate(-90 820.5 228.5)" fill="#F1F3F4" stroke="#CCCCCC"/>
<rect x="850.5" y="313.5" width="85" height="52" transform="rotate(-90 850.5 313.5)" fill="#F1F3F4" stroke="#CCCCCC"/>
<mask id="path-14-inside-1_300_1011" fill="white">
<path fill-rule="evenodd" clip-rule="evenodd" d="M747 165V159H151L151 477H747V314V313V166V165ZM151 518H306V643H450V518H747V643H788V314H820H821H851V228H821V166H963V2.57577e-06L747 0V121L151 121L151 3.58433e-06L110 0L110 409H82L82 473H110V477V518L110 643H151L151 518Z"/>
</mask>
<path fill-rule="evenodd" clip-rule="evenodd" d="M747 165V159H151L151 477H747V314V313V166V165ZM151 518H306V643H450V518H747V643H788V314H820H821H851V228H821V166H963V2.57577e-06L747 0V121L151 121L151 3.58433e-06L110 0L110 409H82L82 473H110V477V518L110 643H151L151 518Z" fill="white"/>
<path d="M747 159H748V158H747V159ZM151 159V158H150L150 159L151 159ZM151 477L150 477L150 478H151V477ZM747 477V478H748V477H747ZM306 518H307V517H306V518ZM151 518V517H150L150 518L151 518ZM306 643H305V644H306V643ZM450 643V644H451V643H450ZM450 518V517H449V518H450ZM747 518H748V517H747V518ZM747 643H746V644H747V643ZM788 643V644H789V643H788ZM788 314V313H787V314H788ZM851 314V315H852V314H851ZM851 228H852V227H851V228ZM821 228H820V229H821V228ZM821 166V165H820V166H821ZM963 166V167H964V166H963ZM963 2.57577e-06H964V-0.999997L963 -0.999997L963 2.57577e-06ZM747 0L747 -1L746 -1V0H747ZM747 121L747 122L748 122V121H747ZM151 121L150 121L150 122L151 122L151 121ZM151 3.58433e-06L152 3.64738e-06L152 -0.999996L151 -0.999996L151 3.58433e-06ZM110 0L110 -1L109 -1L109 -1.25913e-07L110 0ZM110 409V410H111L111 409L110 409ZM82 409V408H81L81 409L82 409ZM82 473L81 473L81 474H82V473ZM110 473H111V472H110V473ZM110 518L109 518V518L110 518ZM110 643L109 643L109 644H110V643ZM151 643V644H152L152 643L151 643ZM746 159V165H748V159H746ZM151 160H747V158H151V160ZM152 477L152 159L150 159L150 477L152 477ZM747 476H151V478H747V476ZM746 314V477H748V314H746ZM746 313V314H748V313H746ZM746 166V313H748V166H746ZM746 165V166H748V165H746ZM306 517H151V519H306V517ZM307 643V518H305V643H307ZM450 642H306V644H450V642ZM449 518V643H451V518H449ZM747 517H450V519H747V517ZM748 643V518H746V643H748ZM788 642H747V644H788V642ZM787 314V643H789V314H787ZM820 313H788V315H820V313ZM821 313H820V315H821V313ZM851 313H821V315H851V313ZM850 228V314H852V228H850ZM821 229H851V227H821V229ZM820 166V228H822V166H820ZM963 165H821V167H963V165ZM962 2.57577e-06V166H964V2.57577e-06H962ZM747 1L963 1L963 -0.999997L747 -1L747 1ZM748 121V0H746V121H748ZM151 122L747 122L747 120L151 120L151 122ZM150 3.52128e-06L150 121L152 121L152 3.64738e-06L150 3.52128e-06ZM110 1L151 1L151 -0.999996L110 -1L110 1ZM111 409L111 1.25913e-07L109 -1.25913e-07L109 409L111 409ZM82 410H110V408H82V410ZM83 473L83 409L81 409L81 473L83 473ZM110 472H82V474H110V472ZM111 477V473H109V477H111ZM111 518V477H109V518H111ZM111 643L111 518L109 518L109 643L111 643ZM151 642H110V644H151V642ZM150 518L150 643L152 643L152 518L150 518Z" fill="#CCCCCC" mask="url(#path-14-inside-1_300_1011)"/>
<rect x="229.5" y="642.5" width="125" height="77" transform="rotate(-90 229.5 642.5)" fill="#E6E6E6" stroke="#CCCCCC"/>
<rect x="150.5" y="642.5" width="125" height="79" transform="rotate(-90 150.5 642.5)" fill="#E6E6E6" stroke="#CCCCCC"/>
<rect x="449.5" y="642.5" width="125" height="220" transform="rotate(-90 449.5 642.5)" fill="#E6E6E6" stroke="#CCCCCC"/>
<rect x="669.5" y="642.5" width="125" height="78" transform="rotate(-90 669.5 642.5)" fill="#E6E6E6" stroke="#CCCCCC"/>
<rect x="595.5" y="477.5" width="319" height="152" transform="rotate(-90 595.5 477.5)" fill="#FDF9EF" stroke="#CCCCCC"/>
<rect x="300.5" y="477.5" width="319" height="295" transform="rotate(-90 300.5 477.5)" fill="#E6E6E6" stroke="#CCCCCC"/>
<rect x="-0.5" y="-0.5" width="159" height="150" transform="matrix(1.19249e-08 -1 -1 -1.19249e-08 300 317)" fill="#E6E6E6" stroke="#CCCCCC"/>
<rect x="-0.5" y="-0.5" width="160" height="150" transform="matrix(1.19249e-08 -1 -1 -1.19249e-08 300 477)" fill="#E6E6E6" stroke="#CCCCCC"/>
<rect x="787.5" y="642.5" width="329" height="115" transform="rotate(-90 787.5 642.5)" fill="#E6E6E6" stroke="#CCCCCC"/>
<line x1="820" y1="165.5" x2="788" y2="165.5" stroke="#CCCCCC"/>
<line x1="820" y1="228.5" x2="788" y2="228.5" stroke="#CCCCCC"/>
</svg>
